{
DisplayStrings = (
"/gjA/gjI/gjII/gjU/gjUU/gjKA/gjKHA/gjGA/gjGHA/gjNGA \012/gjCA/gjCHA/gjJA/gjJHA/gjNYA/gjTTA/gjTTHA/gjDDA/gjDDHA/gjNNA \012/gjTA/gjTHA/gjDA/gjDHA/gjNA/gjPA/gjPHA/gjBA/gjBHA/gjMA \012/gjYA/gjRA/gjLA/gjLLA/gjVA/gjSHA/gjSSA/gjSA/gjHA \012/gjVA/gjAnusvara/gjVA/gjmE/gjVA/gjmAI/gjmI/gjVA/gjmI.alt/gjVA/gjVA/gjmII/gjVA/gjmU/gjVA/gjmUU",

glyphs = (
{
glyphname = gjA;
lastChange = "2015-07-17 13:06:12 +0000";
layers = (
{
background = {
components = (
{
{
name = gjBA;
transform = "{1, 0, 0, 1, 128, 0}";
}}
);
};
layerId = "AF1B7CCB-9C31-456C-8386-1D362D80AEF6";
name = "Bold Italic";
paths = (
{
closed = 1;
nodes = (
"664 196 OFFCURVE",
"624 141 OFFCURVE",
"624 118 CURVE SMOOTH",
"624 82 OFFCURVE",
"732 0 OFFCURVE",
"782 0 CURVE SMOOTH",
"843 0 OFFCURVE",
"1052 122 OFFCURVE",
"1052 193 CURVE SMOOTH",
"1052 237 OFFCURVE",
"1000 293 OFFCURVE",
"931 312 CURVE",
"888 257 OFFCURVE",
"850 208 OFFCURVE",
"793 175 CURVE",
"841 315 OFFCURVE",
"915 471 OFFCURVE",
"915 522 CURVE SMOOTH",
"915 551 OFFCURVE",
"798 583 OFFCURVE",
"755 583 CURVE SMOOTH",
"719 583 OFFCURVE",
"699 444 OFFCURVE",
"625 370 CURVE",
"598 403 OFFCURVE",
"572 438 OFFCURVE",
"542 438 CURVE SMOOTH",
"513 438 OFFCURVE",
"451 376 OFFCURVE",
"452 350 CURVE SMOOTH",
"453 333 OFFCURVE",
"461 320 OFFCURVE",
"480 304 CURVE",
"425 261 OFFCURVE",
"346 226 OFFCURVE",
"271 202 CURVE",
"244 239 LINE",
"360 301 OFFCURVE",
"487 432 OFFCURVE",
"487 494 CURVE SMOOTH",
"487 552 OFFCURVE",
"387 619 OFFCURVE",
"318 619 CURVE SMOOTH",
"220 619 OFFCURVE",
"82 576 OFFCURVE",
"82 510 CURVE SMOOTH",
"82 465 OFFCURVE",
"108 431 OFFCURVE",
"155 398 CURVE",
"211 436 OFFCURVE",
"265 458 OFFCURVE",
"335 480 CURVE",
"279 400 OFFCURVE",
"207 354 OFFCURVE",
"102 309 CURVE",
"142 298 LINE",
"113 362 OFFCURVE",
"85 414 OFFCURVE",
"52 415 CURVE SMOOTH",
"9 416 OFFCURVE",
"-53 365 OFFCURVE",
"-53 333 CURVE SMOOTH",
"-54 297 OFFCURVE",
"11 214 OFFCURVE",
"50 213 CURVE SMOOTH",
"76 212 OFFCURVE",
"97 226 OFFCURVE",
"118 239 CURVE",
"81 239 LINE",
"114 166 OFFCURVE",
"194 61 OFFCURVE",
"292 61 CURVE SMOOTH",
"386 61 OFFCURVE",
"506 168 OFFCURVE",
"553 238 CURVE",
"568 220 OFFCURVE",
"591 205 OFFCURVE",
"606 206 CURVE SMOOTH",
"624 207 OFFCURVE",
"655 230 OFFCURVE",
"684 261 CURVE",
"702 247 LINE"
);
}
);
width = 1084;
},
{
associatedMasterId = "AF1B7CCB-9C31-456C-8386-1D362D80AEF6";
background = {
paths = (
{
closed = 1;
nodes = (
"449 60 OFFCURVE",
"559 170 OFFCURVE",
"616 228 CURVE",
"635 208 OFFCURVE",
"651 191 OFFCURVE",
"670 191 CURVE SMOOTH",
"688 191 OFFCURVE",
"730 222 OFFCURVE",
"759 261 CURVE",
"772 252 LINE",
"734 201 OFFCURVE",
"694 146 OFFCURVE",
"694 123 CURVE SMOOTH",
"694 84 OFFCURVE",
"811 -1 OFFCURVE",
"855 -1 CURVE SMOOTH",
"937 -1 OFFCURVE",
"1127 132 OFFCURVE",
"1127 191 CURVE SMOOTH",
"1127 247 OFFCURVE",
"1066 296 OFFCURVE",
"990 316 CURVE",
"960 276 OFFCURVE",
"919 235 OFFCURVE",
"877 210 CURVE",
"915 308 OFFCURVE",
"1010 451 OFFCURVE",
"1010 515 CURVE SMOOTH",
"1010 537 OFFCURVE",
"893 583 OFFCURVE",
"826 583 CURVE SMOOTH",
"787 583 OFFCURVE",
"782 439 OFFCURVE",
"709 342 CURVE",
"684 391 OFFCURVE",
"660 429 OFFCURVE",
"621 431 CURVE SMOOTH",
"594 431 OFFCURVE",
"523 381 OFFCURVE",
"521 355 CURVE SMOOTH",
"519 339 OFFCURVE",
"528 326 OFFCURVE",
"544 311 CURVE",
"484 260 OFFCURVE",
"425 233 OFFCURVE",
"357 210 CURVE",
"342 231 LINE",
"468 298 OFFCURVE",
"569 413 OFFCURVE",
"569 486 CURVE SMOOTH",
"569 550 OFFCURVE",
"430 617 OFFCURVE",
"354 617 CURVE SMOOTH",
"258 617 OFFCURVE",
"151 557 OFFCURVE",
"151 498 CURVE SMOOTH",
"151 447 OFFCURVE",
"207 398 OFFCURVE",
"263 378 CURVE",
"303 410 OFFCURVE",
"347 439 OFFCURVE",
"385 451 CURVE",
"351 394 OFFCURVE",
"260 350 OFFCURVE",
"195 325 CURVE",
"170 367 OFFCURVE",
"144 399 OFFCURVE",
"112 395 CURVE SMOOTH",
"79 393 OFFCURVE",
"50 378 OFFCURVE",
"14 347 CURVE",
"39 298 OFFCURVE",
"75 203 OFFCURVE",
"120 203 CURVE SMOOTH",
"142 204 OFFCURVE",
"149 209 OFFCURVE",
"164 218 CURVE",
"214 148 OFFCURVE",
"281 60 OFFCURVE",
"356 60 CURVE SMOOTH"
);
}
);
};
layerId = "BF77DC07-1BEB-4C24-800D-452BDBB3F995";
name = bolder;
paths = (
{
closed = 1;
nodes = (
"520 334 OFFCURVE",
"528 323 OFFCURVE",
"544 311 CURVE",
"484 260 OFFCURVE",
"422 237 OFFCURVE",
"355 211 CURVE",
"339 231 LINE",
"462 304 OFFCURVE",
"569 413 OFFCURVE",
"569 486 CURVE SMOOTH",
"569 550 OFFCURVE",
"430 617 OFFCURVE",
"354 617 CURVE SMOOTH",
"258 617 OFFCURVE",
"151 557 OFFCURVE",
"151 498 CURVE SMOOTH",
"151 447 OFFCURVE",
"207 398 OFFCURVE",
"263 378 CURVE",
"303 410 OFFCURVE",
"347 439 OFFCURVE",
"385 451 CURVE",
"351 394 OFFCURVE",
"260 350 OFFCURVE",
"195 325 CURVE",
"170 370 OFFCURVE",
"149 410 OFFCURVE",
"118 410 CURVE SMOOTH",
"75 410 OFFCURVE",
"14 358 OFFCURVE",
"14 326 CURVE SMOOTH",
"14 293 OFFCURVE",
"80 208 OFFCURVE",
"120 208 CURVE SMOOTH",
"135 208 OFFCURVE",
"147 211 OFFCURVE",
"164 218 CURVE",
"204 154 OFFCURVE",
"276 60 OFFCURVE",
"356 60 CURVE SMOOTH",
"461 60 OFFCURVE",
"547 134 OFFCURVE",
"620 223 CURVE",
"635 208 OFFCURVE",
"655 194 OFFCURVE",
"674 194 CURVE SMOOTH",
"692 194 OFFCURVE",
"730 222 OFFCURVE",
"759 261 CURVE",
"772 252 LINE",
"734 201 OFFCURVE",
"694 146 OFFCURVE",
"694 123 CURVE SMOOTH",
"694 84 OFFCURVE",
"811 -1 OFFCURVE",
"855 -1 CURVE SMOOTH",
"937 -1 OFFCURVE",
"1127 132 OFFCURVE",
"1127 191 CURVE SMOOTH",
"1127 247 OFFCURVE",
"1066 296 OFFCURVE",
"990 316 CURVE",
"960 276 OFFCURVE",
"919 235 OFFCURVE",
"877 210 CURVE",
"915 308 OFFCURVE",
"1010 451 OFFCURVE",
"1010 515 CURVE SMOOTH",
"1010 537 OFFCURVE",
"893 583 OFFCURVE",
"826 583 CURVE SMOOTH",
"787 583 OFFCURVE",
"780 439 OFFCURVE",
"718 356 CURVE",
"684 391 OFFCURVE",
"660 429 OFFCURVE",
"620 428 CURVE SMOOTH",
"578 427 OFFCURVE",
"520 376 OFFCURVE",
"520 350 CURVE SMOOTH"
);
}
);
width = 1107;
},
{
associatedMasterId = "AF1B7CCB-9C31-456C-8386-1D362D80AEF6";
background = {
paths = (
{
closed = 1;
nodes = (
"475 267 OFFCURVE",
"402 229 OFFCURVE",
"327 202 CURVE",
"300 239 LINE",
"416 301 OFFCURVE",
"547 424 OFFCURVE",
"547 485 CURVE SMOOTH",
"547 545 OFFCURVE",
"439 619 OFFCURVE",
"365 619 CURVE SMOOTH",
"267 619 OFFCURVE",
"129 576 OFFCURVE",
"129 510 CURVE SMOOTH",
"129 460 OFFCURVE",
"169 411 OFFCURVE",
"226 386 CURVE",
"272 416 OFFCURVE",
"325 438 OFFCURVE",
"379 456 CURVE",
"336 399 OFFCURVE",
"234 350 OFFCURVE",
"163 322 CURVE",
"182 312 LINE",
"160 362 OFFCURVE",
"132 414 OFFCURVE",
"99 415 CURVE SMOOTH",
"56 416 OFFCURVE",
"-6 365 OFFCURVE",
"-6 333 CURVE SMOOTH",
"-7 297 OFFCURVE",
"58 214 OFFCURVE",
"97 213 CURVE SMOOTH",
"123 212 OFFCURVE",
"144 226 OFFCURVE",
"165 239 CURVE",
"128 239 LINE",
"161 166 OFFCURVE",
"241 61 OFFCURVE",
"339 61 CURVE SMOOTH",
"433 61 OFFCURVE",
"552 168 OFFCURVE",
"602 236 CURVE",
"617 222 OFFCURVE",
"644 206 OFFCURVE",
"659 206 CURVE SMOOTH",
"677 206 OFFCURVE",
"712 230 OFFCURVE",
"741 261 CURVE",
"759 247 LINE",
"721 196 OFFCURVE",
"681 141 OFFCURVE",
"681 118 CURVE SMOOTH",
"681 79 OFFCURVE",
"793 -1 OFFCURVE",
"837 -1 CURVE SMOOTH",
"919 -1 OFFCURVE",
"1109 132 OFFCURVE",
"1109 191 CURVE SMOOTH",
"1109 247 OFFCURVE",
"1043 298 OFFCURVE",
"988 312 CURVE",
"950 267 OFFCURVE",
"913 222 OFFCURVE",
"871 197 CURVE",
"913 322 OFFCURVE",
"992 457 OFFCURVE",
"992 515 CURVE SMOOTH",
"992 542 OFFCURVE",
"866 583 OFFCURVE",
"812 583 CURVE SMOOTH",
"778 583 OFFCURVE",
"764 470 OFFCURVE",
"682 369 CURVE",
"646 414 OFFCURVE",
"626 441 OFFCURVE",
"593 441 CURVE SMOOTH",
"566 441 OFFCURVE",
"502 383 OFFCURVE",
"502 357 CURVE SMOOTH",
"502 340 OFFCURVE",
"508 328 OFFCURVE",
"532 305 CURVE"
);
}
);
};
layerId = "ED64447B-DAAF-4CB9-8D9E-7BCA69578AB4";
name = "Bold Italic Jul 9 15, 14:47";
paths = (
{
closed = 1;
nodes = (
"482 263 OFFCURVE",
"412 229 OFFCURVE",
"337 202 CURVE",
"310 239 LINE",
"426 301 OFFCURVE",
"557 424 OFFCURVE",
"557 485 CURVE SMOOTH",
"557 545 OFFCURVE",
"449 619 OFFCURVE",
"375 619 CURVE SMOOTH",
"277 619 OFFCURVE",
"139 576 OFFCURVE",
"139 510 CURVE SMOOTH",
"139 460 OFFCURVE",
"179 411 OFFCURVE",
"236 386 CURVE",
"282 416 OFFCURVE",
"335 438 OFFCURVE",
"389 456 CURVE",
"346 399 OFFCURVE",
"244 350 OFFCURVE",
"173 322 CURVE",
"192 312 LINE",
"170 362 OFFCURVE",
"142 414 OFFCURVE",
"109 415 CURVE SMOOTH",
"66 416 OFFCURVE",
"4 365 OFFCURVE",
"4 333 CURVE SMOOTH",
"3 297 OFFCURVE",
"68 214 OFFCURVE",
"107 213 CURVE SMOOTH",
"133 212 OFFCURVE",
"154 226 OFFCURVE",
"175 239 CURVE",
"138 239 LINE",
"171 166 OFFCURVE",
"251 61 OFFCURVE",
"349 61 CURVE SMOOTH",
"443 61 OFFCURVE",
"563 168 OFFCURVE",
"610 238 CURVE",
"625 220 OFFCURVE",
"648 205 OFFCURVE",
"663 206 CURVE SMOOTH",
"681 207 OFFCURVE",
"712 230 OFFCURVE",
"741 261 CURVE",
"759 247 LINE",
"721 196 OFFCURVE",
"681 141 OFFCURVE",
"681 118 CURVE SMOOTH",
"681 79 OFFCURVE",
"793 -1 OFFCURVE",
"837 -1 CURVE SMOOTH",
"919 -1 OFFCURVE",
"1109 132 OFFCURVE",
"1109 191 CURVE SMOOTH",
"1109 247 OFFCURVE",
"1043 298 OFFCURVE",
"988 312 CURVE",
"950 267 OFFCURVE",
"913 222 OFFCURVE",
"871 197 CURVE",
"913 322 OFFCURVE",
"992 457 OFFCURVE",
"992 515 CURVE SMOOTH",
"992 542 OFFCURVE",
"866 583 OFFCURVE",
"812 583 CURVE SMOOTH",
"776 583 OFFCURVE",
"756 444 OFFCURVE",
"682 370 CURVE",
"655 403 OFFCURVE",
"629 438 OFFCURVE",
"599 438 CURVE SMOOTH",
"570 438 OFFCURVE",
"508 376 OFFCURVE",
"509 350 CURVE SMOOTH",
"510 333 OFFCURVE",
"518 320 OFFCURVE",
"537 304 CURVE"
);
}
);
width = 1139;
},
{
associatedMasterId = "AF1B7CCB-9C31-456C-8386-1D362D80AEF6";
background = {
paths = (
{
closed = 1;
nodes = (
"482 263 OFFCURVE",
"412 229 OFFCURVE",
"337 202 CURVE",
"310 239 LINE",
"426 301 OFFCURVE",
"557 424 OFFCURVE",
"557 485 CURVE SMOOTH",
"557 545 OFFCURVE",
"449 619 OFFCURVE",
"375 619 CURVE SMOOTH",
"277 619 OFFCURVE",
"139 576 OFFCURVE",
"139 510 CURVE SMOOTH",
"139 460 OFFCURVE",
"179 411 OFFCURVE",
"236 386 CURVE",
"282 416 OFFCURVE",
"335 438 OFFCURVE",
"389 456 CURVE",
"346 399 OFFCURVE",
"244 350 OFFCURVE",
"173 322 CURVE",
"192 312 LINE",
"170 362 OFFCURVE",
"142 414 OFFCURVE",
"109 415 CURVE SMOOTH",
"66 416 OFFCURVE",
"4 365 OFFCURVE",
"4 333 CURVE SMOOTH",
"3 297 OFFCURVE",
"68 214 OFFCURVE",
"107 213 CURVE SMOOTH",
"133 212 OFFCURVE",
"154 226 OFFCURVE",
"175 239 CURVE",
"138 239 LINE",
"171 166 OFFCURVE",
"251 61 OFFCURVE",
"349 61 CURVE SMOOTH",
"443 61 OFFCURVE",
"563 168 OFFCURVE",
"610 238 CURVE",
"625 220 OFFCURVE",
"648 205 OFFCURVE",
"663 206 CURVE SMOOTH",
"681 207 OFFCURVE",
"712 230 OFFCURVE",
"741 261 CURVE",
"759 247 LINE",
"721 196 OFFCURVE",
"681 141 OFFCURVE",
"681 118 CURVE SMOOTH",
"681 79 OFFCURVE",
"793 -1 OFFCURVE",
"837 -1 CURVE SMOOTH",
"919 -1 OFFCURVE",
"1109 132 OFFCURVE",
"1109 191 CURVE SMOOTH",
"1109 247 OFFCURVE",
"1043 298 OFFCURVE",
"988 312 CURVE",
"950 267 OFFCURVE",
"913 222 OFFCURVE",
"871 197 CURVE",
"913 322 OFFCURVE",
"992 457 OFFCURVE",
"992 515 CURVE SMOOTH",
"992 542 OFFCURVE",
"866 583 OFFCURVE",
"812 583 CURVE SMOOTH",
"776 583 OFFCURVE",
"756 444 OFFCURVE",
"682 370 CURVE",
"655 403 OFFCURVE",
"629 438 OFFCURVE",
"599 438 CURVE SMOOTH",
"570 438 OFFCURVE",
"508 376 OFFCURVE",
"509 350 CURVE SMOOTH",
"510 333 OFFCURVE",
"518 320 OFFCURVE",
"537 304 CURVE"
);
}
);
};
layerId = "FFD59A56-7792-46E3-B4CA-D8F8E74ABF55";
name = "Bold Italic Jul 10 15, 21:03";
paths = (
{
closed = 1;
nodes = (
"482 263 OFFCURVE",
"412 229 OFFCURVE",
"337 202 CURVE",
"310 239 LINE",
"426 301 OFFCURVE",
"557 424 OFFCURVE",
"557 485 CURVE SMOOTH",
"557 545 OFFCURVE",
"449 619 OFFCURVE",
"375 619 CURVE SMOOTH",
"277 619 OFFCURVE",
"139 576 OFFCURVE",
"139 510 CURVE SMOOTH",
"139 465 OFFCURVE",
"165 431 OFFCURVE",
"212 398 CURVE",
"268 436 OFFCURVE",
"322 458 OFFCURVE",
"392 480 CURVE",
"336 400 OFFCURVE",
"264 354 OFFCURVE",
"159 309 CURVE",
"199 298 LINE",
"170 362 OFFCURVE",
"142 414 OFFCURVE",
"109 415 CURVE SMOOTH",
"66 416 OFFCURVE",
"4 365 OFFCURVE",
"4 333 CURVE SMOOTH",
"3 297 OFFCURVE",
"68 214 OFFCURVE",
"107 213 CURVE SMOOTH",
"133 212 OFFCURVE",
"154 226 OFFCURVE",
"175 239 CURVE",
"138 239 LINE",
"171 166 OFFCURVE",
"251 61 OFFCURVE",
"349 61 CURVE SMOOTH",
"443 61 OFFCURVE",
"563 168 OFFCURVE",
"610 238 CURVE",
"625 220 OFFCURVE",
"648 205 OFFCURVE",
"663 206 CURVE SMOOTH",
"681 207 OFFCURVE",
"712 230 OFFCURVE",
"741 261 CURVE",
"759 247 LINE",
"721 196 OFFCURVE",
"681 141 OFFCURVE",
"681 118 CURVE SMOOTH",
"681 79 OFFCURVE",
"793 -1 OFFCURVE",
"837 -1 CURVE SMOOTH",
"919 -1 OFFCURVE",
"1109 132 OFFCURVE",
"1109 191 CURVE SMOOTH",
"1109 247 OFFCURVE",
"1043 298 OFFCURVE",
"988 312 CURVE",
"950 267 OFFCURVE",
"913 222 OFFCURVE",
"871 197 CURVE",
"913 322 OFFCURVE",
"992 457 OFFCURVE",
"992 515 CURVE SMOOTH",
"992 542 OFFCURVE",
"866 583 OFFCURVE",
"812 583 CURVE SMOOTH",
"776 583 OFFCURVE",
"756 444 OFFCURVE",
"682 370 CURVE",
"655 403 OFFCURVE",
"629 438 OFFCURVE",
"599 438 CURVE SMOOTH",
"570 438 OFFCURVE",
"508 376 OFFCURVE",
"509 350 CURVE SMOOTH",
"510 333 OFFCURVE",
"518 320 OFFCURVE",
"537 304 CURVE"
);
}
);
width = 1139;
},
{
associatedMasterId = "AF1B7CCB-9C31-456C-8386-1D362D80AEF6";
background = {
paths = (
{
closed = 1;
nodes = (
"704 196 OFFCURVE",
"664 141 OFFCURVE",
"664 118 CURVE SMOOTH",
"664 82 OFFCURVE",
"772 0 OFFCURVE",
"822 0 CURVE SMOOTH",
"883 0 OFFCURVE",
"1092 122 OFFCURVE",
"1092 193 CURVE SMOOTH",
"1092 237 OFFCURVE",
"1040 293 OFFCURVE",
"971 312 CURVE",
"928 257 OFFCURVE",
"890 208 OFFCURVE",
"833 175 CURVE",
"881 315 OFFCURVE",
"955 471 OFFCURVE",
"955 522 CURVE SMOOTH",
"955 551 OFFCURVE",
"838 583 OFFCURVE",
"795 583 CURVE SMOOTH",
"759 583 OFFCURVE",
"739 444 OFFCURVE",
"665 370 CURVE",
"638 403 OFFCURVE",
"612 438 OFFCURVE",
"582 438 CURVE SMOOTH",
"553 438 OFFCURVE",
"491 376 OFFCURVE",
"492 350 CURVE SMOOTH",
"493 333 OFFCURVE",
"501 320 OFFCURVE",
"520 304 CURVE",
"465 261 OFFCURVE",
"386 226 OFFCURVE",
"311 202 CURVE",
"284 239 LINE",
"400 301 OFFCURVE",
"527 432 OFFCURVE",
"527 494 CURVE SMOOTH",
"527 552 OFFCURVE",
"427 619 OFFCURVE",
"358 619 CURVE SMOOTH",
"260 619 OFFCURVE",
"122 576 OFFCURVE",
"122 510 CURVE SMOOTH",
"122 465 OFFCURVE",
"148 431 OFFCURVE",
"195 398 CURVE",
"251 436 OFFCURVE",
"305 458 OFFCURVE",
"375 480 CURVE",
"319 400 OFFCURVE",
"247 354 OFFCURVE",
"142 309 CURVE",
"182 298 LINE",
"153 362 OFFCURVE",
"125 414 OFFCURVE",
"92 415 CURVE SMOOTH",
"49 416 OFFCURVE",
"-13 365 OFFCURVE",
"-13 333 CURVE SMOOTH",
"-14 297 OFFCURVE",
"51 214 OFFCURVE",
"90 213 CURVE SMOOTH",
"116 212 OFFCURVE",
"137 226 OFFCURVE",
"158 239 CURVE",
"121 239 LINE",
"154 166 OFFCURVE",
"234 61 OFFCURVE",
"332 61 CURVE SMOOTH",
"426 61 OFFCURVE",
"546 168 OFFCURVE",
"593 238 CURVE",
"608 220 OFFCURVE",
"631 205 OFFCURVE",
"646 206 CURVE SMOOTH",
"664 207 OFFCURVE",
"695 230 OFFCURVE",
"724 261 CURVE",
"742 247 LINE"
);
}
);
};
layerId = "10203E0E-88BB-4541-B8F0-BE2A89A6DDB3";
name = equal;
paths = (
{
closed = 1;
nodes = (
"638 403 OFFCURVE",
"612 438 OFFCURVE",
"582 438 CURVE SMOOTH",
"553 438 OFFCURVE",
"491 376 OFFCURVE",
"492 350 CURVE SMOOTH",
"493 333 OFFCURVE",
"501 320 OFFCURVE",
"520 304 CURVE",
"465 261 OFFCURVE",
"386 226 OFFCURVE",
"311 202 CURVE",
"284 239 LINE",
"400 301 OFFCURVE",
"527 432 OFFCURVE",
"527 494 CURVE SMOOTH",
"527 552 OFFCURVE",
"427 619 OFFCURVE",
"358 619 CURVE SMOOTH",
"260 619 OFFCURVE",
"122 576 OFFCURVE",
"122 510 CURVE SMOOTH",
"122 465 OFFCURVE",
"148 431 OFFCURVE",
"195 398 CURVE",
"251 436 OFFCURVE",
"305 458 OFFCURVE",
"375 480 CURVE",
"319 400 OFFCURVE",
"247 354 OFFCURVE",
"142 309 CURVE",
"182 298 LINE",
"153 362 OFFCURVE",
"125 414 OFFCURVE",
"92 415 CURVE SMOOTH",
"49 416 OFFCURVE",
"-13 365 OFFCURVE",
"-13 333 CURVE SMOOTH",
"-14 297 OFFCURVE",
"51 214 OFFCURVE",
"90 213 CURVE SMOOTH",
"116 212 OFFCURVE",
"137 226 OFFCURVE",
"158 239 CURVE",
"121 239 LINE",
"154 166 OFFCURVE",
"234 61 OFFCURVE",
"332 61 CURVE SMOOTH",
"426 61 OFFCURVE",
"546 168 OFFCURVE",
"593 238 CURVE",
"608 220 OFFCURVE",
"631 205 OFFCURVE",
"646 206 CURVE SMOOTH",
"664 207 OFFCURVE",
"695 230 OFFCURVE",
"724 261 CURVE",
"742 247 LINE",
"704 196 OFFCURVE",
"664 141 OFFCURVE",
"664 118 CURVE SMOOTH",
"664 82 OFFCURVE",
"772 0 OFFCURVE",
"822 0 CURVE SMOOTH",
"883 0 OFFCURVE",
"1092 122 OFFCURVE",
"1092 193 CURVE SMOOTH",
"1092 237 OFFCURVE",
"1040 293 OFFCURVE",
"971 312 CURVE",
"928 257 OFFCURVE",
"889 208 OFFCURVE",
"832 175 CURVE",
"880 315 OFFCURVE",
"960 480 OFFCURVE",
"960 541 CURVE SMOOTH",
"960 570 OFFCURVE",
"843 602 OFFCURVE",
"804 602 CURVE SMOOTH",
"769 602 OFFCURVE",
"745 461 OFFCURVE",
"665 370 CURVE"
);
}
);
width = 1149;
}
);
rightMetricsKey = gjmAA;
unicode = 0A85;
},
{
glyphname = gjI;
lastChange = "2015-07-17 13:14:28 +0000";
layers = (
{
background = {
paths = (
{
closed = 1;
nodes = (
"332 645 OFFCURVE",
"431 555 OFFCURVE",
"431 456 CURVE SMOOTH",
"431 316 OFFCURVE",
"334 187 OFFCURVE",
"129 137 CURVE",
"195 219 OFFCURVE",
"308 293 OFFCURVE",
"308 336 CURVE SMOOTH",
"308 369 OFFCURVE",
"240 378 OFFCURVE",
"174 419 CURVE",
"230 456 OFFCURVE",
"273 474 OFFCURVE",
"329 490 CURVE",
"348 539 OFFCURVE",
"340 606 OFFCURVE",
"254 619 CURVE",
"145 608 OFFCURVE",
"2 514 OFFCURVE",
"2 463 CURVE SMOOTH",
"2 416 OFFCURVE",
"61 368 OFFCURVE",
"119 336 CURVE",
"47 293 OFFCURVE",
"-44 218 OFFCURVE",
"-44 165 CURVE SMOOTH",
"-44 107 OFFCURVE",
"64 -1 OFFCURVE",
"143 -1 CURVE SMOOTH",
"372 -1 OFFCURVE",
"565 204 OFFCURVE",
"565 377 CURVE SMOOTH",
"565 464 OFFCURVE",
"512 561 OFFCURVE",
"477 616 CURVE",
"516 650 OFFCURVE",
"559 666 OFFCURVE",
"594 681 CURVE",
"602 753 OFFCURVE",
"564 827 OFFCURVE",
"488 835 CURVE",
"427 812 OFFCURVE",
"332 761 OFFCURVE",
"332 712 CURVE SMOOTH"
);
}
);
};
layerId = "AF1B7CCB-9C31-456C-8386-1D362D80AEF6";
name = "Bold Italic";
paths = (
{
closed = 1;
nodes = (
"309 652 OFFCURVE",
"421 583 OFFCURVE",
"421 471 CURVE SMOOTH",
"421 331 OFFCURVE",
"350 207 OFFCURVE",
"154 144 CURVE",
"209 233 OFFCURVE",
"299 303 OFFCURVE",
"299 336 CURVE SMOOTH",
"299 379 OFFCURVE",
"240 378 OFFCURVE",
"174 419 CURVE",
"230 456 OFFCURVE",
"273 474 OFFCURVE",
"329 490 CURVE",
"348 539 OFFCURVE",
"323 605 OFFCURVE",
"254 619 CURVE",
"145 608 OFFCURVE",
"2 514 OFFCURVE",
"2 463 CURVE SMOOTH",
"2 416 OFFCURVE",
"61 368 OFFCURVE",
"119 336 CURVE",
"72 289 OFFCURVE",
"-4 218 OFFCURVE",
"-4 165 CURVE SMOOTH",
"-4 107 OFFCURVE",
"129 -3 OFFCURVE",
"208 -3 CURVE SMOOTH",
"397 -3 OFFCURVE",
"561 234 OFFCURVE",
"561 377 CURVE SMOOTH",
"561 496 OFFCURVE",
"495 581 OFFCURVE",
"456 633 CURVE",
"492 670 OFFCURVE",
"534 689 OFFCURVE",
"568 707 CURVE",
"570 779 OFFCURVE",
"527 850 OFFCURVE",
"451 853 CURVE",
"391 826 OFFCURVE",
"300 768 OFFCURVE",
"304 719 CURVE SMOOTH"
);
}
);
width = 575;
},
{
associatedMasterId = "AF1B7CCB-9C31-456C-8386-1D362D80AEF6";
background = {
paths = (
{
closed = 1;
nodes = (
"377 627 OFFCURVE",
"483 534 OFFCURVE",
"483 474 CURVE SMOOTH",
"483 291 OFFCURVE",
"378 176 OFFCURVE",
"161 137 CURVE",
"227 219 OFFCURVE",
"360 293 OFFCURVE",
"360 336 CURVE SMOOTH",
"360 369 OFFCURVE",
"292 378 OFFCURVE",
"226 419 CURVE",
"282 456 OFFCURVE",
"325 474 OFFCURVE",
"381 490 CURVE",
"400 539 OFFCURVE",
"392 606 OFFCURVE",
"306 619 CURVE",
"197 608 OFFCURVE",
"54 514 OFFCURVE",
"54 463 CURVE SMOOTH",
"54 416 OFFCURVE",
"113 368 OFFCURVE",
"171 336 CURVE",
"99 293 OFFCURVE",
"-12 218 OFFCURVE",
"-12 165 CURVE SMOOTH",
"-12 107 OFFCURVE",
"96 -1 OFFCURVE",
"175 -1 CURVE SMOOTH",
"339 -1 OFFCURVE",
"594 118 OFFCURVE",
"594 377 CURVE SMOOTH",
"594 464 OFFCURVE",
"541 561 OFFCURVE",
"496 616 CURVE",
"535 650 OFFCURVE",
"578 666 OFFCURVE",
"613 681 CURVE",
"621 753 OFFCURVE",
"594 818 OFFCURVE",
"518 826 CURVE",
"438 796 OFFCURVE",
"377 740 OFFCURVE",
"377 708 CURVE SMOOTH"
);
}
);
};
layerId = "45BDB546-EFD5-43A5-AE3D-C6EB3BD4BEF2";
name = "Bold Italic Jul 15 15, 20:28";
paths = (
{
closed = 1;
nodes = (
"384 645 OFFCURVE",
"483 555 OFFCURVE",
"483 456 CURVE SMOOTH",
"483 316 OFFCURVE",
"386 187 OFFCURVE",
"181 137 CURVE",
"247 219 OFFCURVE",
"360 293 OFFCURVE",
"360 336 CURVE SMOOTH",
"360 369 OFFCURVE",
"292 378 OFFCURVE",
"226 419 CURVE",
"282 456 OFFCURVE",
"325 474 OFFCURVE",
"381 490 CURVE",
"400 539 OFFCURVE",
"392 606 OFFCURVE",
"306 619 CURVE",
"197 608 OFFCURVE",
"54 514 OFFCURVE",
"54 463 CURVE SMOOTH",
"54 416 OFFCURVE",
"113 368 OFFCURVE",
"171 336 CURVE",
"99 293 OFFCURVE",
"8 218 OFFCURVE",
"8 165 CURVE SMOOTH",
"8 107 OFFCURVE",
"116 -1 OFFCURVE",
"195 -1 CURVE SMOOTH",
"424 -1 OFFCURVE",
"617 204 OFFCURVE",
"617 377 CURVE SMOOTH",
"617 464 OFFCURVE",
"564 561 OFFCURVE",
"529 616 CURVE",
"568 650 OFFCURVE",
"611 666 OFFCURVE",
"646 681 CURVE",
"654 753 OFFCURVE",
"616 827 OFFCURVE",
"540 835 CURVE",
"479 812 OFFCURVE",
"384 761 OFFCURVE",
"384 712 CURVE SMOOTH"
);
}
);
width = 641;
}
);
unicode = 0A87;
},
{
glyphname = gjII;
lastChange = "2015-07-21 17:32:32 +0000";
layers = (
{
background = {
paths = (
{
closed = 1;
nodes = (
"525 594 OFFCURVE",
"557 564 OFFCURVE",
"637 563 CURVE",
"662 596 OFFCURVE",
"671 633 OFFCURVE",
"671 671 CURVE SMOOTH",
"671 739 OFFCURVE",
"536 838 OFFCURVE",
"447 838 CURVE SMOOTH",
"372 838 OFFCURVE",
"331 782 OFFCURVE",
"331 719 CURVE SMOOTH",
"331 601 OFFCURVE",
"422 543 OFFCURVE",
"422 441 CURVE SMOOTH",
"422 312 OFFCURVE",
"338 203 OFFCURVE",
"154 144 CURVE",
"209 233 OFFCURVE",
"299 303 OFFCURVE",
"299 336 CURVE SMOOTH",
"299 379 OFFCURVE",
"240 378 OFFCURVE",
"174 419 CURVE",
"230 456 OFFCURVE",
"273 474 OFFCURVE",
"329 490 CURVE",
"348 539 OFFCURVE",
"323 605 OFFCURVE",
"254 619 CURVE",
"145 608 OFFCURVE",
"2 514 OFFCURVE",
"2 463 CURVE SMOOTH",
"2 416 OFFCURVE",
"61 368 OFFCURVE",
"119 336 CURVE",
"72 289 OFFCURVE",
"-4 218 OFFCURVE",
"-4 165 CURVE SMOOTH",
"-4 107 OFFCURVE",
"129 -3 OFFCURVE",
"208 -3 CURVE SMOOTH",
"391 -3 OFFCURVE",
"569 223 OFFCURVE",
"569 369 CURVE SMOOTH",
"569 497 OFFCURVE",
"467 583 OFFCURVE",
"467 650 CURVE SMOOTH",
"467 684 OFFCURVE",
"497 717 OFFCURVE",
"527 721 CURVE",
"537 700 OFFCURVE",
"527 655 OFFCURVE",
"509 632 CURVE"
);
}
);
};
layerId = "AF1B7CCB-9C31-456C-8386-1D362D80AEF6";
name = "Bold Italic";
paths = (
{
closed = 1;
nodes = (
"525 634 OFFCURVE",
"557 604 OFFCURVE",
"637 603 CURVE",
"662 636 OFFCURVE",
"671 673 OFFCURVE",
"671 711 CURVE SMOOTH",
"671 779 OFFCURVE",
"536 878 OFFCURVE",
"447 878 CURVE SMOOTH",
"372 878 OFFCURVE",
"331 822 OFFCURVE",
"331 740 CURVE SMOOTH",
"331 601 OFFCURVE",
"422 554 OFFCURVE",
"422 441 CURVE SMOOTH",
"422 312 OFFCURVE",
"338 203 OFFCURVE",
"154 144 CURVE",
"209 233 OFFCURVE",
"299 303 OFFCURVE",
"299 336 CURVE SMOOTH",
"299 379 OFFCURVE",
"240 378 OFFCURVE",
"174 419 CURVE",
"230 456 OFFCURVE",
"273 474 OFFCURVE",
"329 490 CURVE",
"348 539 OFFCURVE",
"323 605 OFFCURVE",
"254 619 CURVE",
"145 608 OFFCURVE",
"2 514 OFFCURVE",
"2 463 CURVE SMOOTH",
"2 416 OFFCURVE",
"61 368 OFFCURVE",
"119 336 CURVE",
"72 289 OFFCURVE",
"-4 218 OFFCURVE",
"-4 165 CURVE SMOOTH",
"-4 107 OFFCURVE",
"129 -3 OFFCURVE",
"208 -3 CURVE SMOOTH",
"391 -3 OFFCURVE",
"569 223 OFFCURVE",
"569 369 CURVE SMOOTH",
"569 497 OFFCURVE",
"467 583 OFFCURVE",
"467 690 CURVE SMOOTH",
"467 724 OFFCURVE",
"497 757 OFFCURVE",
"527 761 CURVE",
"537 740 OFFCURVE",
"527 695 OFFCURVE",
"509 672 CURVE"
);
}
);
width = 599;
},
{
associatedMasterId = "AF1B7CCB-9C31-456C-8386-1D362D80AEF6";
background = {
paths = (
{
closed = 1;
nodes = (
"384 645 OFFCURVE",
"483 555 OFFCURVE",
"483 456 CURVE SMOOTH",
"483 316 OFFCURVE",
"386 187 OFFCURVE",
"181 137 CURVE",
"247 219 OFFCURVE",
"360 293 OFFCURVE",
"360 336 CURVE SMOOTH",
"360 369 OFFCURVE",
"292 378 OFFCURVE",
"226 419 CURVE",
"282 456 OFFCURVE",
"325 474 OFFCURVE",
"381 490 CURVE",
"400 539 OFFCURVE",
"392 606 OFFCURVE",
"306 619 CURVE",
"197 608 OFFCURVE",
"54 514 OFFCURVE",
"54 463 CURVE SMOOTH",
"54 416 OFFCURVE",
"113 368 OFFCURVE",
"171 336 CURVE",
"99 293 OFFCURVE",
"8 218 OFFCURVE",
"8 165 CURVE SMOOTH",
"8 107 OFFCURVE",
"116 -1 OFFCURVE",
"195 -1 CURVE SMOOTH",
"424 -1 OFFCURVE",
"617 204 OFFCURVE",
"617 377 CURVE SMOOTH",
"617 464 OFFCURVE",
"564 561 OFFCURVE",
"529 616 CURVE",
"568 650 OFFCURVE",
"611 666 OFFCURVE",
"646 681 CURVE",
"654 753 OFFCURVE",
"616 827 OFFCURVE",
"540 835 CURVE",
"479 812 OFFCURVE",
"384 761 OFFCURVE",
"384 712 CURVE SMOOTH"
);
}
);
};
layerId = "130CFE0B-97C4-49FE-994E-2D446186113E";
name = "Bold Italic Jul 15 15, 20:31";
paths = (
{
closed = 1;
nodes = (
"611 546 OFFCURVE",
"671 508 OFFCURVE",
"717 511 CURVE",
"748 537 OFFCURVE",
"762 579 OFFCURVE",
"762 612 CURVE SMOOTH",
"762 700 OFFCURVE",
"599 822 OFFCURVE",
"491 822 CURVE SMOOTH",
"423 822 OFFCURVE",
"384 783 OFFCURVE",
"384 722 CURVE SMOOTH",
"384 634 OFFCURVE",
"483 560 OFFCURVE",
"483 456 CURVE SMOOTH",
"483 316 OFFCURVE",
"386 187 OFFCURVE",
"181 137 CURVE",
"247 219 OFFCURVE",
"360 293 OFFCURVE",
"360 336 CURVE SMOOTH",
"360 369 OFFCURVE",
"292 378 OFFCURVE",
"226 419 CURVE",
"282 456 OFFCURVE",
"325 474 OFFCURVE",
"381 490 CURVE",
"400 539 OFFCURVE",
"392 606 OFFCURVE",
"306 619 CURVE",
"197 608 OFFCURVE",
"54 514 OFFCURVE",
"54 463 CURVE SMOOTH",
"54 416 OFFCURVE",
"113 368 OFFCURVE",
"171 336 CURVE",
"99 293 OFFCURVE",
"8 218 OFFCURVE",
"8 165 CURVE SMOOTH",
"8 107 OFFCURVE",
"116 -1 OFFCURVE",
"195 -1 CURVE SMOOTH",
"405 -1 OFFCURVE",
"617 191 OFFCURVE",
"617 377 CURVE SMOOTH",
"617 503 OFFCURVE",
"527 583 OFFCURVE",
"527 649 CURVE SMOOTH",
"527 677 OFFCURVE",
"541 696 OFFCURVE",
"567 696 CURVE SMOOTH",
"592 696 OFFCURVE",
"620 676 OFFCURVE",
"620 648 CURVE SMOOTH",
"620 637 OFFCURVE",
"607 619 OFFCURVE",
"591 598 CURVE"
);
}
);
width = 730;
}
);
leftMetricsKey = gjI;
unicode = 0A88;
},
{
glyphname = gjU;
lastChange = "2015-07-21 17:32:04 +0000";
layers = (
{
background = {
paths = (
{
closed = 1;
nodes = (
"434 -1 OFFCURVE",
"569 99 OFFCURVE",
"569 157 CURVE SMOOTH",
"569 210 OFFCURVE",
"506 265 OFFCURVE",
"435 309 CURVE",
"542 350 OFFCURVE",
"642 416 OFFCURVE",
"645 480 CURVE SMOOTH",
"649 537 OFFCURVE",
"556 619 OFFCURVE",
"487 619 CURVE SMOOTH",
"360 619 OFFCURVE",
"263 592 OFFCURVE",
"258 527 CURVE SMOOTH",
"256 494 OFFCURVE",
"273 464 OFFCURVE",
"315 427 CURVE",
"383 463 OFFCURVE",
"432 481 OFFCURVE",
"506 494 CURVE",
"468 406 OFFCURVE",
"266 368 OFFCURVE",
"266 312 CURVE SMOOTH",
"266 280 OFFCURVE",
"317 234 OFFCURVE",
"367 191 CURVE",
"302 152 OFFCURVE",
"232 157 OFFCURVE",
"158 176 CURVE",
"146 455 OFFCURVE",
"183 619 OFFCURVE",
"373 784 CURVE",
"439 718 OFFCURVE",
"520 660 OFFCURVE",
"579 660 CURVE SMOOTH",
"620 660 OFFCURVE",
"658 666 OFFCURVE",
"714 695 CURVE",
"737 788 OFFCURVE",
"706 859 OFFCURVE",
"632 880 CURVE",
"587 840 OFFCURVE",
"547 815 OFFCURVE",
"504 791 CURVE",
"408 840 OFFCURVE",
"382 928 OFFCURVE",
"338 928 CURVE SMOOTH",
"171 928 OFFCURVE",
"-18 581 OFFCURVE",
"-18 309 CURVE SMOOTH",
"-22 202 OFFCURVE",
"111 -1 OFFCURVE",
"301 -1 CURVE SMOOTH"
);
},
{
closed = 1;
nodes = (
"243 894 OFFCURVE",
"-7 587 OFFCURVE",
"-7 261 CURVE SMOOTH",
"-7 177 OFFCURVE",
"130 -1 OFFCURVE",
"301 -1 CURVE SMOOTH",
"434 -1 OFFCURVE",
"569 99 OFFCURVE",
"569 157 CURVE SMOOTH",
"569 210 OFFCURVE",
"506 265 OFFCURVE",
"435 309 CURVE",
"542 350 OFFCURVE",
"642 416 OFFCURVE",
"645 480 CURVE SMOOTH",
"649 537 OFFCURVE",
"556 619 OFFCURVE",
"487 619 CURVE SMOOTH",
"378 619 OFFCURVE",
"305 585 OFFCURVE",
"305 540 CURVE SMOOTH",
"305 507 OFFCURVE",
"320 484 OFFCURVE",
"362 447 CURVE",
"407 469 OFFCURVE",
"453 485 OFFCURVE",
"506 494 CURVE",
"468 406 OFFCURVE",
"266 368 OFFCURVE",
"266 312 CURVE SMOOTH",
"266 280 OFFCURVE",
"317 234 OFFCURVE",
"367 191 CURVE",
"302 163 OFFCURVE",
"227 168 OFFCURVE",
"157 194 CURVE",
"158 498 OFFCURVE",
"263 700 OFFCURVE",
"655 763 CURVE",
"690 719 OFFCURVE",
"713 662 OFFCURVE",
"713 599 CURVE SMOOTH",
"713 442 OFFCURVE",
"606 216 OFFCURVE",
"606 123 CURVE SMOOTH",
"606 86 OFFCURVE",
"719 0 OFFCURVE",
"769 0 CURVE SMOOTH",
"830 0 OFFCURVE",
"1039 122 OFFCURVE",
"1039 193 CURVE SMOOTH",
"1039 237 OFFCURVE",
"987 293 OFFCURVE",
"918 312 CURVE",
"875 257 OFFCURVE",
"837 208 OFFCURVE",
"780 175 CURVE",
"839 352 OFFCURVE",
"877 475 OFFCURVE",
"877 598 CURVE SMOOTH",
"877 725 OFFCURVE",
"688 894 OFFCURVE",
"568 894 CURVE SMOOTH"
);
}
);
};
layerId = "AF1B7CCB-9C31-456C-8386-1D362D80AEF6";
name = "Bold Italic";
paths = (
{
closed = 1;
nodes = (
"434 -1 OFFCURVE",
"569 99 OFFCURVE",
"569 157 CURVE SMOOTH",
"569 210 OFFCURVE",
"506 265 OFFCURVE",
"435 309 CURVE",
"542 350 OFFCURVE",
"642 416 OFFCURVE",
"645 480 CURVE SMOOTH",
"649 537 OFFCURVE",
"556 619 OFFCURVE",
"487 619 CURVE SMOOTH",
"382 619 OFFCURVE",
"305 589 OFFCURVE",
"305 537 CURVE SMOOTH",
"305 506 OFFCURVE",
"328 472 OFFCURVE",
"362 447 CURVE",
"405 469 OFFCURVE",
"459 486 OFFCURVE",
"506 494 CURVE",
"468 406 OFFCURVE",
"266 368 OFFCURVE",
"266 312 CURVE SMOOTH",
"266 280 OFFCURVE",
"317 234 OFFCURVE",
"367 191 CURVE",
"301 163 OFFCURVE",
"231 166 OFFCURVE",
"157 194 CURVE",
"157 469 OFFCURVE",
"243 604 OFFCURVE",
"405 781 CURVE",
"454 729 OFFCURVE",
"557 630 OFFCURVE",
"609 630 CURVE SMOOTH",
"650 630 OFFCURVE",
"688 636 OFFCURVE",
"744 665 CURVE",
"767 758 OFFCURVE",
"736 829 OFFCURVE",
"662 850 CURVE",
"617 810 OFFCURVE",
"577 785 OFFCURVE",
"534 761 CURVE",
"468 802 OFFCURVE",
"442 898 OFFCURVE",
"398 898 CURVE SMOOTH",
"201 898 OFFCURVE",
"-10 519 OFFCURVE",
"-10 282 CURVE SMOOTH",
"-10 157 OFFCURVE",
"153 -1 OFFCURVE",
"301 -1 CURVE SMOOTH"
);
}
);
width = 657;
}
);
unicode = 0A89;
},
{
glyphname = gjUU;
lastChange = "2015-07-20 07:56:06 +0000";
layers = (
{
background = {
paths = (
{
closed = 1;
nodes = (
"243 894 OFFCURVE",
"-7 587 OFFCURVE",
"-7 261 CURVE SMOOTH",
"-7 177 OFFCURVE",
"130 -1 OFFCURVE",
"301 -1 CURVE SMOOTH",
"434 -1 OFFCURVE",
"569 99 OFFCURVE",
"569 157 CURVE SMOOTH",
"569 210 OFFCURVE",
"506 265 OFFCURVE",
"435 309 CURVE",
"542 350 OFFCURVE",
"642 416 OFFCURVE",
"645 480 CURVE SMOOTH",
"649 537 OFFCURVE",
"556 619 OFFCURVE",
"487 619 CURVE SMOOTH",
"378 619 OFFCURVE",
"305 585 OFFCURVE",
"305 540 CURVE SMOOTH",
"305 507 OFFCURVE",
"320 484 OFFCURVE",
"362 447 CURVE",
"407 469 OFFCURVE",
"453 485 OFFCURVE",
"506 494 CURVE",
"468 406 OFFCURVE",
"266 368 OFFCURVE",
"266 312 CURVE SMOOTH",
"266 280 OFFCURVE",
"317 234 OFFCURVE",
"367 191 CURVE",
"302 163 OFFCURVE",
"227 168 OFFCURVE",
"157 194 CURVE",
"158 498 OFFCURVE",
"263 700 OFFCURVE",
"655 763 CURVE",
"690 719 OFFCURVE",
"713 662 OFFCURVE",
"713 599 CURVE SMOOTH",
"713 442 OFFCURVE",
"606 216 OFFCURVE",
"606 123 CURVE SMOOTH",
"606 86 OFFCURVE",
"719 0 OFFCURVE",
"769 0 CURVE SMOOTH",
"830 0 OFFCURVE",
"1039 122 OFFCURVE",
"1039 193 CURVE SMOOTH",
"1039 237 OFFCURVE",
"987 293 OFFCURVE",
"918 312 CURVE",
"875 257 OFFCURVE",
"837 208 OFFCURVE",
"780 175 CURVE",
"839 352 OFFCURVE",
"877 475 OFFCURVE",
"877 598 CURVE SMOOTH",
"877 725 OFFCURVE",
"688 894 OFFCURVE",
"568 894 CURVE SMOOTH"
);
}
);
};
layerId = "AF1B7CCB-9C31-456C-8386-1D362D80AEF6";
name = "Bold Italic";
paths = (
{
closed = 1;
nodes = (
"224 894 OFFCURVE",
"-7 571 OFFCURVE",
"-7 261 CURVE SMOOTH",
"-7 177 OFFCURVE",
"130 -1 OFFCURVE",
"301 -1 CURVE SMOOTH",
"434 -1 OFFCURVE",
"569 99 OFFCURVE",
"569 157 CURVE SMOOTH",
"569 210 OFFCURVE",
"506 265 OFFCURVE",
"435 309 CURVE",
"542 350 OFFCURVE",
"642 416 OFFCURVE",
"645 480 CURVE SMOOTH",
"649 537 OFFCURVE",
"556 619 OFFCURVE",
"487 619 CURVE SMOOTH",
"378 619 OFFCURVE",
"305 585 OFFCURVE",
"305 540 CURVE SMOOTH",
"305 507 OFFCURVE",
"320 484 OFFCURVE",
"362 447 CURVE",
"407 469 OFFCURVE",
"453 485 OFFCURVE",
"506 494 CURVE",
"468 406 OFFCURVE",
"266 368 OFFCURVE",
"266 312 CURVE SMOOTH",
"266 280 OFFCURVE",
"317 234 OFFCURVE",
"367 191 CURVE",
"302 163 OFFCURVE",
"227 168 OFFCURVE",
"157 194 CURVE",
"154 520 OFFCURVE",
"291 734 OFFCURVE",
"618 763 CURVE",
"690 719 OFFCURVE",
"713 662 OFFCURVE",
"713 599 CURVE SMOOTH",
"713 442 OFFCURVE",
"606 216 OFFCURVE",
"606 123 CURVE SMOOTH",
"606 86 OFFCURVE",
"719 0 OFFCURVE",
"769 0 CURVE SMOOTH",
"830 0 OFFCURVE",
"1039 122 OFFCURVE",
"1039 193 CURVE SMOOTH",
"1039 237 OFFCURVE",
"987 293 OFFCURVE",
"918 312 CURVE",
"875 257 OFFCURVE",
"837 208 OFFCURVE",
"780 175 CURVE",
"839 352 OFFCURVE",
"877 475 OFFCURVE",
"877 598 CURVE SMOOTH",
"877 719 OFFCURVE",
"727 894 OFFCURVE",
"556 894 CURVE SMOOTH"
);
}
);
width = 1071;
}
);
rightMetricsKey = gjmAA;
unicode = 0A8A;
},
{
glyphname = gjKA;
lastChange = "2015-07-21 17:33:02 +0000";
layers = (
{
background = {
paths = (
{
closed = 1;
nodes = (
"234 351 LINE",
"143 376 OFFCURVE",
"87 429 OFFCURVE",
"87 463 CURVE SMOOTH",
"87 533 OFFCURVE",
"240 613 OFFCURVE",
"422 620 CURVE",
"484 600 OFFCURVE",
"512 537 OFFCURVE",
"476 481 CURVE",
"340 463 OFFCURVE",
"281 432 OFFCURVE",
"281 406 CURVE SMOOTH",
"281 391 OFFCURVE",
"288 380 OFFCURVE",
"303 370 CURVE"
);
},
{
closed = 1;
nodes = (
"393 284 OFFCURVE",
"298 263 OFFCURVE",
"85 210 CURVE",
"38 224 OFFCURVE",
"7 294 OFFCURVE",
"45 344 CURVE",
"197 362 OFFCURVE",
"384 405 OFFCURVE",
"516 458 CURVE",
"566 433 OFFCURVE",
"587 376 OFFCURVE",
"564 324 CURVE"
);
},
{
closed = 1;
nodes = (
"328 239 OFFCURVE",
"313 259 OFFCURVE",
"296 267 CURVE",
"377 289 LINE",
"458 272 OFFCURVE",
"521 228 OFFCURVE",
"521 193 CURVE SMOOTH",
"521 99 OFFCURVE",
"353 0 OFFCURVE",
"193 0 CURVE SMOOTH",
"98 0 OFFCURVE",
"-11 78 OFFCURVE",
"-11 123 CURVE SMOOTH",
"-11 139 OFFCURVE",
"-5 163 OFFCURVE",
"8 182 CURVE",
"85 204 OFFCURVE",
"159 193 OFFCURVE",
"200 153 CURVE",
"194 136 OFFCURVE",
"190 124 OFFCURVE",
"186 101 CURVE",
"254 115 OFFCURVE",
"328 175 OFFCURVE",
"328 215 CURVE SMOOTH"
);
}
);
};
layerId = "AF1B7CCB-9C31-456C-8386-1D362D80AEF6";
name = "Bold Italic";
paths = (
{
closed = 1;
nodes = (
"236 351 LINE",
"145 376 OFFCURVE",
"88 429 OFFCURVE",
"88 463 CURVE SMOOTH",
"88 533 OFFCURVE",
"240 613 OFFCURVE",
"422 620 CURVE",
"484 600 OFFCURVE",
"513 537 OFFCURVE",
"477 481 CURVE",
"341 463 OFFCURVE",
"283 432 OFFCURVE",
"283 406 CURVE SMOOTH",
"283 391 OFFCURVE",
"290 380 OFFCURVE",
"305 370 CURVE"
);
},
{
closed = 1;
nodes = (
"396 284 OFFCURVE",
"301 263 OFFCURVE",
"89 210 CURVE",
"41 224 OFFCURVE",
"10 294 OFFCURVE",
"47 344 CURVE",
"199 362 OFFCURVE",
"386 405 OFFCURVE",
"517 458 CURVE",
"568 433 OFFCURVE",
"589 376 OFFCURVE",
"567 324 CURVE"
);
},
{
closed = 1;
nodes = (
"332 239 OFFCURVE",
"316 259 OFFCURVE",
"299 267 CURVE",
"380 289 LINE",
"461 272 OFFCURVE",
"525 228 OFFCURVE",
"525 193 CURVE SMOOTH",
"525 99 OFFCURVE",
"358 0 OFFCURVE",
"198 0 CURVE SMOOTH",
"98 0 OFFCURVE",
"-6 78 OFFCURVE",
"-7 123 CURVE SMOOTH",
"-7 139 OFFCURVE",
"-1 163 OFFCURVE",
"12 182 CURVE",
"89 204 OFFCURVE",
"163 193 OFFCURVE",
"204 153 CURVE",
"198 136 OFFCURVE",
"194 124 OFFCURVE",
"191 101 CURVE",
"258 115 OFFCURVE",
"332 175 OFFCURVE",
"332 217 CURVE SMOOTH"
);
}
);
width = 600;
},
{
associatedMasterId = "AF1B7CCB-9C31-456C-8386-1D362D80AEF6";
background = {
paths = (
{
closed = 1;
nodes = (
"260 351 LINE",
"175 375 OFFCURVE",
"120 426 OFFCURVE",
"120 463 CURVE SMOOTH",
"120 537 OFFCURVE",
"272 610 OFFCURVE",
"427 620 CURVE",
"497 615 OFFCURVE",
"524 542 OFFCURVE",
"492 481 CURVE",
"383 462 OFFCURVE",
"296 439 OFFCURVE",
"296 406 CURVE SMOOTH",
"296 392 OFFCURVE",
"305 381 OFFCURVE",
"322 370 CURVE"
);
},
{
closed = 1;
nodes = (
"385 273 OFFCURVE",
"275 249 OFFCURVE",
"122 206 CURVE",
"71 215 OFFCURVE",
"35 288 OFFCURVE",
"72 337 CURVE",
"214 356 OFFCURVE",
"415 406 OFFCURVE",
"539 454 CURVE",
"582 435 OFFCURVE",
"604 369 OFFCURVE",
"583 323 CURVE"
);
},
{
closed = 1;
nodes = (
"399 289 LINE",
"475 273 OFFCURVE",
"535 228 OFFCURVE",
"536 193 CURVE SMOOTH",
"539 93 OFFCURVE",
"366 0 OFFCURVE",
"217 0 CURVE SMOOTH",
"127 0 OFFCURVE",
"22 71 OFFCURVE",
"22 123 CURVE SMOOTH",
"22 148 OFFCURVE",
"28 162 OFFCURVE",
"40 183 CURVE",
"109 202 OFFCURVE",
"179 195 OFFCURVE",
"220 154 CURVE",
"215 143 OFFCURVE",
"210 127 OFFCURVE",
"206 101 CURVE",
"284 116 OFFCURVE",
"360 176 OFFCURVE",
"361 215 CURVE SMOOTH",
"361 234 OFFCURVE",
"347 256 OFFCURVE",
"323 267 CURVE"
);
}
);
};
layerId = "4A206407-37E7-44B0-AA85-C4642A670776";
name = "Bold Italic Jul 16 15, 14:38";
paths = (
{
closed = 1;
nodes = (
"258 351 LINE",
"167 376 OFFCURVE",
"111 429 OFFCURVE",
"111 463 CURVE SMOOTH",
"111 533 OFFCURVE",
"264 613 OFFCURVE",
"446 620 CURVE",
"508 600 OFFCURVE",
"536 537 OFFCURVE",
"500 481 CURVE",
"364 463 OFFCURVE",
"305 432 OFFCURVE",
"305 406 CURVE SMOOTH",
"305 391 OFFCURVE",
"312 380 OFFCURVE",
"327 370 CURVE"
);
},
{
closed = 1;
nodes = (
"417 284 OFFCURVE",
"322 263 OFFCURVE",
"109 210 CURVE",
"62 224 OFFCURVE",
"31 294 OFFCURVE",
"69 344 CURVE",
"221 362 OFFCURVE",
"408 405 OFFCURVE",
"540 458 CURVE",
"590 433 OFFCURVE",
"611 376 OFFCURVE",
"588 324 CURVE"
);
},
{
closed = 1;
nodes = (
"352 239 OFFCURVE",
"337 259 OFFCURVE",
"320 267 CURVE",
"401 289 LINE",
"482 272 OFFCURVE",
"545 228 OFFCURVE",
"545 193 CURVE SMOOTH",
"545 99 OFFCURVE",
"377 0 OFFCURVE",
"217 0 CURVE SMOOTH",
"122 0 OFFCURVE",
"13 78 OFFCURVE",
"13 123 CURVE SMOOTH",
"13 139 OFFCURVE",
"19 163 OFFCURVE",
"32 182 CURVE",
"109 204 OFFCURVE",
"183 193 OFFCURVE",
"224 153 CURVE",
"218 136 OFFCURVE",
"214 124 OFFCURVE",
"210 101 CURVE",
"278 115 OFFCURVE",
"352 175 OFFCURVE",
"352 215 CURVE SMOOTH"
);
}
);
width = 656;
}
);
unicode = 0A95;
},
{
glyphname = gjKHA;
lastChange = "2015-07-17 12:58:00 +0000";
layers = (
{
associatedMasterId = "AF1B7CCB-9C31-456C-8386-1D362D80AEF6";
background = {
paths = (
{
closed = 0;
nodes = (
"630 358 LINE",
"593 416 OFFCURVE",
"557 459 OFFCURVE",
"515 459 CURVE SMOOTH",
"488 459 OFFCURVE",
"424 399 OFFCURVE",
"424 373 CURVE SMOOTH",
"424 356 OFFCURVE",
"444 334 OFFCURVE",
"462 322 CURVE",
"435 294 OFFCURVE",
"379 272 OFFCURVE",
"344 261 CURVE",
"335 270 LINE",
"380 328 OFFCURVE",
"455 477 OFFCURVE",
"454 504 CURVE SMOOTH",
"453 534 OFFCURVE",
"339 616 OFFCURVE",
"263 616 CURVE SMOOTH",
"187 616 OFFCURVE",
"-12 533 OFFCURVE",
"-12 471 CURVE SMOOTH",
"-12 426 OFFCURVE",
"59 345 OFFCURVE",
"129 329 CURVE",
"182 367 OFFCURVE",
"227 403 OFFCURVE",
"269 432 CURVE",
"280 416 LINE",
"178 341 LINE",
"167 305 OFFCURVE",
"155 242 OFFCURVE",
"155 218 CURVE SMOOTH",
"155 181 OFFCURVE",
"281 97 OFFCURVE",
"328 97 CURVE SMOOTH",
"379 97 OFFCURVE",
"487 201 OFFCURVE",
"530 251 CURVE",
"552 226 OFFCURVE",
"581 208 OFFCURVE",
"593 208 CURVE SMOOTH",
"611 208 OFFCURVE",
"644 228 OFFCURVE",
"680 261 CURVE",
"693 252 LINE",
"655 201 OFFCURVE",
"615 146 OFFCURVE",
"615 123 CURVE SMOOTH",
"615 84 OFFCURVE",
"732 -1 OFFCURVE",
"776 -1 CURVE SMOOTH",
"858 -1 OFFCURVE",
"1048 132 OFFCURVE",
"1048 191 CURVE SMOOTH",
"1048 247 OFFCURVE",
"987 296 OFFCURVE",
"911 316 CURVE",
"881 276 OFFCURVE",
"840 235 OFFCURVE",
"798 210 CURVE",
"836 308 OFFCURVE",
"931 451 OFFCURVE",
"931 515 CURVE SMOOTH",
"931 537 OFFCURVE",
"814 583 OFFCURVE",
"747 583 CURVE SMOOTH",
"708 583 OFFCURVE",
"697 399 OFFCURVE",
"535 291 CURVE",
"526 300 LINE"
);
}
);
};
layerId = "1E2C12CA-5535-49E2-9D35-078858B3216A";
name = "bolder faster meaner";
paths = (
{
closed = 1;
nodes = (
"575 416 OFFCURVE",
"546 462 OFFCURVE",
"508 457 CURVE SMOOTH",
"481 452 OFFCURVE",
"421 391 OFFCURVE",
"423 365 CURVE SMOOTH",
"424 348 OFFCURVE",
"439 335 OFFCURVE",
"458 324 CURVE",
"424 294 OFFCURVE",
"379 272 OFFCURVE",
"344 261 CURVE",
"335 270 LINE",
"380 328 OFFCURVE",
"455 477 OFFCURVE",
"454 504 CURVE SMOOTH",
"453 534 OFFCURVE",
"339 616 OFFCURVE",
"263 616 CURVE SMOOTH",
"187 616 OFFCURVE",
"-12 533 OFFCURVE",
"-12 471 CURVE SMOOTH",
"-12 426 OFFCURVE",
"59 345 OFFCURVE",
"129 329 CURVE",
"182 367 OFFCURVE",
"227 403 OFFCURVE",
"269 432 CURVE",
"280 416 LINE",
"178 341 LINE",
"167 305 OFFCURVE",
"155 242 OFFCURVE",
"155 218 CURVE SMOOTH",
"155 181 OFFCURVE",
"281 97 OFFCURVE",
"328 97 CURVE SMOOTH",
"379 97 OFFCURVE",
"490 206 OFFCURVE",
"529 256 CURVE",
"553 232 OFFCURVE",
"583 216 OFFCURVE",
"595 217 CURVE SMOOTH",
"613 218 OFFCURVE",
"644 228 OFFCURVE",
"680 261 CURVE",
"693 252 LINE",
"655 201 OFFCURVE",
"615 146 OFFCURVE",
"615 123 CURVE SMOOTH",
"615 84 OFFCURVE",
"732 -1 OFFCURVE",
"776 -1 CURVE SMOOTH",
"858 -1 OFFCURVE",
"1048 132 OFFCURVE",
"1048 191 CURVE SMOOTH",
"1048 247 OFFCURVE",
"987 296 OFFCURVE",
"911 316 CURVE",
"881 276 OFFCURVE",
"840 235 OFFCURVE",
"798 210 CURVE",
"836 308 OFFCURVE",
"931 451 OFFCURVE",
"931 515 CURVE SMOOTH",
"931 537 OFFCURVE",
"814 583 OFFCURVE",
"747 583 CURVE SMOOTH",
"715 583 OFFCURVE",
"688 432 OFFCURVE",
"616 370 CURVE"
);
}
);
width = 1028;
},
{
background = {
paths = (
{
closed = 1;
nodes = (
"529 82 OFFCURVE",
"637 0 OFFCURVE",
"687 0 CURVE SMOOTH",
"748 0 OFFCURVE",
"957 122 OFFCURVE",
"957 193 CURVE SMOOTH",
"957 237 OFFCURVE",
"905 293 OFFCURVE",
"836 312 CURVE",
"793 257 OFFCURVE",
"755 208 OFFCURVE",
"698 175 CURVE",
"746 315 OFFCURVE",
"820 471 OFFCURVE",
"820 522 CURVE SMOOTH",
"820 551 OFFCURVE",
"703 583 OFFCURVE",
"658 583 CURVE SMOOTH",
"625 583 OFFCURVE",
"626 474 OFFCURVE",
"530 369 CURVE",
"494 414 OFFCURVE",
"449 473 OFFCURVE",
"410 473 CURVE SMOOTH",
"383 473 OFFCURVE",
"323 408 OFFCURVE",
"323 382 CURVE SMOOTH",
"323 365 OFFCURVE",
"334 347 OFFCURVE",
"358 324 CURVE",
"330 304 OFFCURVE",
"286 271 OFFCURVE",
"250 257 CURVE",
"219 277 LINE",
"263 346 OFFCURVE",
"326 464 OFFCURVE",
"326 510 CURVE SMOOTH",
"326 540 OFFCURVE",
"215 616 OFFCURVE",
"139 616 CURVE SMOOTH",
"69 616 OFFCURVE",
"-89 559 OFFCURVE",
"-89 491 CURVE SMOOTH",
"-89 450 OFFCURVE",
"-54 402 OFFCURVE",
"17 374 CURVE",
"53 404 OFFCURVE",
"98 441 OFFCURVE",
"129 462 CURVE",
"152 438 LINE",
"54 341 LINE",
"43 305 OFFCURVE",
"37 261 OFFCURVE",
"37 228 CURVE SMOOTH",
"37 187 OFFCURVE",
"173 97 OFFCURVE",
"252 97 CURVE SMOOTH",
"315 97 OFFCURVE",
"409 206 OFFCURVE",
"446 247 CURVE",
"461 236 OFFCURVE",
"488 217 OFFCURVE",
"501 217 CURVE SMOOTH",
"519 217 OFFCURVE",
"550 228 OFFCURVE",
"589 261 CURVE",
"607 247 LINE",
"569 196 OFFCURVE",
"529 141 OFFCURVE",
"529 118 CURVE SMOOTH"
);
},
{
closed = 0;
nodes = (
"238 273 LINE",
"216 290 LINE",
"260 347 OFFCURVE",
"315 472 OFFCURVE",
"315 521 CURVE SMOOTH",
"315 558 OFFCURVE",
"200 619 OFFCURVE",
"150 619 CURVE SMOOTH",
"80 619 OFFCURVE",
"-55 566 OFFCURVE",
"-55 498 CURVE SMOOTH",
"-55 457 OFFCURVE",
"-20 412 OFFCURVE",
"51 384 CURVE",
"87 414 OFFCURVE",
"121 441 OFFCURVE",
"152 462 CURVE",
"175 438 LINE",
"77 341 LINE",
"66 305 OFFCURVE",
"57 266 OFFCURVE",
"57 240 CURVE SMOOTH",
"57 208 OFFCURVE",
"177 127 OFFCURVE",
"217 127 CURVE SMOOTH"
);
}
);
};
layerId = "AF1B7CCB-9C31-456C-8386-1D362D80AEF6";
name = "Bold Italic";
paths = (
{
closed = 1;
nodes = (
"529 82 OFFCURVE",
"637 0 OFFCURVE",
"687 0 CURVE SMOOTH",
"748 0 OFFCURVE",
"957 122 OFFCURVE",
"957 193 CURVE SMOOTH",
"957 237 OFFCURVE",
"905 293 OFFCURVE",
"836 312 CURVE",
"793 257 OFFCURVE",
"755 208 OFFCURVE",
"698 175 CURVE",
"746 315 OFFCURVE",
"820 471 OFFCURVE",
"820 522 CURVE SMOOTH",
"820 551 OFFCURVE",
"703 583 OFFCURVE",
"658 583 CURVE SMOOTH",
"625 583 OFFCURVE",
"626 474 OFFCURVE",
"530 369 CURVE",
"494 414 OFFCURVE",
"449 473 OFFCURVE",
"410 473 CURVE SMOOTH",
"383 473 OFFCURVE",
"323 408 OFFCURVE",
"323 382 CURVE SMOOTH",
"323 365 OFFCURVE",
"334 347 OFFCURVE",
"358 324 CURVE",
"330 304 OFFCURVE",
"286 271 OFFCURVE",
"250 257 CURVE",
"216 284 LINE",
"261 353 OFFCURVE",
"315 473 OFFCURVE",
"315 520 CURVE SMOOTH",
"315 551 OFFCURVE",
"200 619 OFFCURVE",
"149 619 CURVE SMOOTH",
"81 619 OFFCURVE",
"-55 566 OFFCURVE",
"-55 499 CURVE SMOOTH",
"-55 455 OFFCURVE",
"-18 411 OFFCURVE",
"51 384 CURVE",
"87 414 OFFCURVE",
"121 441 OFFCURVE",
"152 462 CURVE",
"175 438 LINE",
"77 341 LINE",
"66 308 OFFCURVE",
"55 261 OFFCURVE",
"55 217 CURVE SMOOTH",
"55 163 OFFCURVE",
"194 97 OFFCURVE",
"252 97 CURVE SMOOTH",
"315 97 OFFCURVE",
"409 206 OFFCURVE",
"446 247 CURVE",
"461 236 OFFCURVE",
"488 217 OFFCURVE",
"501 217 CURVE SMOOTH",
"519 217 OFFCURVE",
"550 228 OFFCURVE",
"589 261 CURVE",
"607 247 LINE",
"569 196 OFFCURVE",
"529 141 OFFCURVE",
"529 118 CURVE SMOOTH"
);
}
);
width = 989;
},
{
associatedMasterId = "AF1B7CCB-9C31-456C-8386-1D362D80AEF6";
background = {
paths = (
{
closed = 1;
nodes = (
"562 414 OFFCURVE",
"516 478 OFFCURVE",
"478 473 CURVE SMOOTH",
"451 468 OFFCURVE",
"391 408 OFFCURVE",
"391 382 CURVE SMOOTH",
"391 365 OFFCURVE",
"402 347 OFFCURVE",
"421 330 CURVE",
"399 308 OFFCURVE",
"349 276 OFFCURVE",
"313 257 CURVE",
"282 277 LINE",
"327 347 OFFCURVE",
"389 458 OFFCURVE",
"389 510 CURVE SMOOTH",
"389 540 OFFCURVE",
"278 616 OFFCURVE",
"202 616 CURVE SMOOTH",
"126 616 OFFCURVE",
"-56 544 OFFCURVE",
"-56 482 CURVE SMOOTH",
"-56 437 OFFCURVE",
"6 368 OFFCURVE",
"65 350 CURVE",
"114 388 OFFCURVE",
"142 413 OFFCURVE",
"188 442 CURVE",
"204 426 LINE",
"117 341 LINE",
"106 305 OFFCURVE",
"100 261 OFFCURVE",
"100 228 CURVE SMOOTH",
"100 187 OFFCURVE",
"236 97 OFFCURVE",
"322 97 CURVE SMOOTH",
"373 97 OFFCURVE",
"464 206 OFFCURVE",
"503 256 CURVE",
"527 232 OFFCURVE",
"555 217 OFFCURVE",
"569 217 CURVE SMOOTH",
"587 217 OFFCURVE",
"618 228 OFFCURVE",
"657 261 CURVE",
"675 247 LINE",
"637 196 OFFCURVE",
"597 141 OFFCURVE",
"597 118 CURVE SMOOTH",
"597 79 OFFCURVE",
"709 -1 OFFCURVE",
"753 -1 CURVE SMOOTH",
"835 -1 OFFCURVE",
"1025 132 OFFCURVE",
"1025 191 CURVE SMOOTH",
"1025 247 OFFCURVE",
"959 298 OFFCURVE",
"904 312 CURVE",
"866 267 OFFCURVE",
"829 222 OFFCURVE",
"787 197 CURVE",
"829 322 OFFCURVE",
"908 457 OFFCURVE",
"908 515 CURVE SMOOTH",
"908 542 OFFCURVE",
"782 583 OFFCURVE",
"728 583 CURVE SMOOTH",
"694 583 OFFCURVE",
"680 470 OFFCURVE",
"598 369 CURVE"
);
}
);
};
layerId = "DE4BF2F3-45F9-48E1-8424-192218BC9FAF";
name = "Bold Italic Jul 9 15, 14:52";
paths = (
{
closed = 1;
nodes = (
"557 414 OFFCURVE",
"512 473 OFFCURVE",
"473 473 CURVE SMOOTH",
"446 473 OFFCURVE",
"386 408 OFFCURVE",
"386 382 CURVE SMOOTH",
"386 365 OFFCURVE",
"397 347 OFFCURVE",
"421 324 CURVE",
"393 304 OFFCURVE",
"349 271 OFFCURVE",
"313 257 CURVE",
"282 277 LINE",
"327 347 OFFCURVE",
"389 458 OFFCURVE",
"389 510 CURVE SMOOTH",
"389 540 OFFCURVE",
"278 616 OFFCURVE",
"202 616 CURVE SMOOTH",
"126 616 OFFCURVE",
"-56 544 OFFCURVE",
"-56 482 CURVE SMOOTH",
"-56 437 OFFCURVE",
"6 368 OFFCURVE",
"65 350 CURVE",
"114 388 OFFCURVE",
"142 413 OFFCURVE",
"188 442 CURVE",
"204 426 LINE",
"117 341 LINE",
"106 305 OFFCURVE",
"100 261 OFFCURVE",
"100 228 CURVE SMOOTH",
"100 187 OFFCURVE",
"236 97 OFFCURVE",
"315 97 CURVE SMOOTH",
"378 97 OFFCURVE",
"472 206 OFFCURVE",
"509 247 CURVE",
"524 236 OFFCURVE",
"551 217 OFFCURVE",
"564 217 CURVE SMOOTH",
"582 217 OFFCURVE",
"613 228 OFFCURVE",
"652 261 CURVE",
"670 247 LINE",
"632 196 OFFCURVE",
"592 141 OFFCURVE",
"592 118 CURVE SMOOTH",
"592 79 OFFCURVE",
"704 -1 OFFCURVE",
"748 -1 CURVE SMOOTH",
"830 -1 OFFCURVE",
"1020 132 OFFCURVE",
"1020 191 CURVE SMOOTH",
"1020 247 OFFCURVE",
"954 298 OFFCURVE",
"899 312 CURVE",
"861 267 OFFCURVE",
"824 222 OFFCURVE",
"782 197 CURVE",
"824 322 OFFCURVE",
"903 457 OFFCURVE",
"903 515 CURVE SMOOTH",
"903 542 OFFCURVE",
"777 583 OFFCURVE",
"723 583 CURVE SMOOTH",
"689 583 OFFCURVE",
"675 470 OFFCURVE",
"593 369 CURVE"
);
}
);
width = 1050;
},
{
associatedMasterId = "AF1B7CCB-9C31-456C-8386-1D362D80AEF6";
background = {
paths = (
{
closed = 1;
nodes = (
"536 414 OFFCURVE",
"491 473 OFFCURVE",
"452 473 CURVE SMOOTH",
"425 473 OFFCURVE",
"365 408 OFFCURVE",
"365 382 CURVE SMOOTH",
"365 365 OFFCURVE",
"376 347 OFFCURVE",
"400 324 CURVE",
"372 304 OFFCURVE",
"328 271 OFFCURVE",
"292 257 CURVE",
"261 277 LINE",
"306 347 OFFCURVE",
"368 458 OFFCURVE",
"368 510 CURVE SMOOTH",
"368 540 OFFCURVE",
"257 616 OFFCURVE",
"181 616 CURVE SMOOTH",
"105 616 OFFCURVE",
"-77 544 OFFCURVE",
"-77 482 CURVE SMOOTH",
"-77 437 OFFCURVE",
"-15 368 OFFCURVE",
"44 350 CURVE",
"93 388 OFFCURVE",
"121 413 OFFCURVE",
"167 442 CURVE",
"183 426 LINE",
"96 341 LINE",
"85 305 OFFCURVE",
"79 261 OFFCURVE",
"79 228 CURVE SMOOTH",
"79 187 OFFCURVE",
"215 97 OFFCURVE",
"294 97 CURVE SMOOTH",
"357 97 OFFCURVE",
"451 206 OFFCURVE",
"488 247 CURVE",
"503 236 OFFCURVE",
"530 217 OFFCURVE",
"543 217 CURVE SMOOTH",
"561 217 OFFCURVE",
"592 228 OFFCURVE",
"631 261 CURVE",
"649 247 LINE",
"611 196 OFFCURVE",
"571 141 OFFCURVE",
"571 118 CURVE SMOOTH",
"571 79 OFFCURVE",
"683 -1 OFFCURVE",
"727 -1 CURVE SMOOTH",
"809 -1 OFFCURVE",
"999 132 OFFCURVE",
"999 191 CURVE SMOOTH",
"999 247 OFFCURVE",
"933 298 OFFCURVE",
"878 312 CURVE",
"840 267 OFFCURVE",
"803 222 OFFCURVE",
"761 197 CURVE",
"803 322 OFFCURVE",
"882 457 OFFCURVE",
"882 515 CURVE SMOOTH",
"882 542 OFFCURVE",
"756 583 OFFCURVE",
"702 583 CURVE SMOOTH",
"668 583 OFFCURVE",
"654 470 OFFCURVE",
"572 369 CURVE"
);
}
);
};
layerId = "833E410C-F1DF-4475-8B95-0F5662C596D2";
name = "Bold Italic Jul 10 15, 20:40";
paths = (
{
closed = 1;
nodes = (
"305 346 OFFCURVE",
"368 464 OFFCURVE",
"368 510 CURVE SMOOTH",
"368 540 OFFCURVE",
"257 616 OFFCURVE",
"181 616 CURVE SMOOTH",
"111 616 OFFCURVE",
"-47 559 OFFCURVE",
"-47 491 CURVE SMOOTH",
"-47 450 OFFCURVE",
"-12 402 OFFCURVE",
"59 374 CURVE",
"95 404 OFFCURVE",
"140 441 OFFCURVE",
"171 462 CURVE",
"194 438 LINE",
"96 341 LINE",
"85 305 OFFCURVE",
"79 261 OFFCURVE",
"79 228 CURVE SMOOTH",
"79 187 OFFCURVE",
"215 97 OFFCURVE",
"294 97 CURVE SMOOTH",
"357 97 OFFCURVE",
"451 206 OFFCURVE",
"488 247 CURVE",
"503 236 OFFCURVE",
"530 217 OFFCURVE",
"543 217 CURVE SMOOTH",
"561 217 OFFCURVE",
"592 228 OFFCURVE",
"631 261 CURVE",
"649 247 LINE",
"611 196 OFFCURVE",
"571 141 OFFCURVE",
"571 118 CURVE SMOOTH",
"571 79 OFFCURVE",
"683 -1 OFFCURVE",
"727 -1 CURVE SMOOTH",
"809 -1 OFFCURVE",
"999 132 OFFCURVE",
"999 191 CURVE SMOOTH",
"999 247 OFFCURVE",
"933 298 OFFCURVE",
"878 312 CURVE",
"840 267 OFFCURVE",
"803 222 OFFCURVE",
"761 197 CURVE",
"803 322 OFFCURVE",
"882 457 OFFCURVE",
"882 515 CURVE SMOOTH",
"882 542 OFFCURVE",
"756 583 OFFCURVE",
"702 583 CURVE SMOOTH",
"668 583 OFFCURVE",
"654 470 OFFCURVE",
"572 369 CURVE",
"536 414 OFFCURVE",
"491 473 OFFCURVE",
"452 473 CURVE SMOOTH",
"425 473 OFFCURVE",
"365 408 OFFCURVE",
"365 382 CURVE SMOOTH",
"365 365 OFFCURVE",
"376 347 OFFCURVE",
"400 324 CURVE",
"372 304 OFFCURVE",
"328 271 OFFCURVE",
"292 257 CURVE",
"261 277 LINE"
);
}
);
width = 1029;
},
{
associatedMasterId = "AF1B7CCB-9C31-456C-8386-1D362D80AEF6";
background = {
paths = (
{
closed = 1;
nodes = (
"549 82 OFFCURVE",
"657 0 OFFCURVE",
"707 0 CURVE SMOOTH",
"768 0 OFFCURVE",
"977 122 OFFCURVE",
"977 193 CURVE SMOOTH",
"977 237 OFFCURVE",
"925 293 OFFCURVE",
"856 312 CURVE",
"813 257 OFFCURVE",
"775 208 OFFCURVE",
"718 175 CURVE",
"766 315 OFFCURVE",
"840 471 OFFCURVE",
"840 522 CURVE SMOOTH",
"840 551 OFFCURVE",
"723 583 OFFCURVE",
"678 583 CURVE SMOOTH",
"645 583 OFFCURVE",
"646 474 OFFCURVE",
"550 369 CURVE",
"514 414 OFFCURVE",
"469 473 OFFCURVE",
"430 473 CURVE SMOOTH",
"403 473 OFFCURVE",
"343 408 OFFCURVE",
"343 382 CURVE SMOOTH",
"343 365 OFFCURVE",
"354 347 OFFCURVE",
"378 324 CURVE",
"350 304 OFFCURVE",
"306 271 OFFCURVE",
"270 257 CURVE",
"236 284 LINE",
"281 353 OFFCURVE",
"335 473 OFFCURVE",
"335 520 CURVE SMOOTH",
"335 551 OFFCURVE",
"220 619 OFFCURVE",
"169 619 CURVE SMOOTH",
"101 619 OFFCURVE",
"-35 566 OFFCURVE",
"-35 499 CURVE SMOOTH",
"-35 455 OFFCURVE",
"2 411 OFFCURVE",
"71 384 CURVE",
"107 414 OFFCURVE",
"141 441 OFFCURVE",
"172 462 CURVE",
"195 438 LINE",
"97 341 LINE",
"86 308 OFFCURVE",
"75 261 OFFCURVE",
"75 217 CURVE SMOOTH",
"75 163 OFFCURVE",
"214 97 OFFCURVE",
"272 97 CURVE SMOOTH",
"335 97 OFFCURVE",
"429 206 OFFCURVE",
"466 247 CURVE",
"481 236 OFFCURVE",
"508 217 OFFCURVE",
"521 217 CURVE SMOOTH",
"539 217 OFFCURVE",
"570 228 OFFCURVE",
"609 261 CURVE",
"627 247 LINE",
"589 196 OFFCURVE",
"549 141 OFFCURVE",
"549 118 CURVE SMOOTH"
);
}
);
};
layerId = "723EFAF0-F58C-4208-B3F0-B38FBEC97CA2";
name = equal;
paths = (
{
closed = 1;
nodes = (
"514 414 OFFCURVE",
"469 473 OFFCURVE",
"430 473 CURVE SMOOTH",
"403 473 OFFCURVE",
"343 408 OFFCURVE",
"343 382 CURVE SMOOTH",
"343 365 OFFCURVE",
"354 347 OFFCURVE",
"378 324 CURVE",
"350 304 OFFCURVE",
"306 271 OFFCURVE",
"270 257 CURVE",
"236 284 LINE",
"281 353 OFFCURVE",
"335 473 OFFCURVE",
"335 520 CURVE SMOOTH",
"335 551 OFFCURVE",
"220 619 OFFCURVE",
"169 619 CURVE SMOOTH",
"101 619 OFFCURVE",
"-35 566 OFFCURVE",
"-35 499 CURVE SMOOTH",
"-35 455 OFFCURVE",
"2 411 OFFCURVE",
"71 384 CURVE",
"107 414 OFFCURVE",
"141 441 OFFCURVE",
"172 462 CURVE",
"195 438 LINE",
"97 341 LINE",
"86 308 OFFCURVE",
"75 261 OFFCURVE",
"75 217 CURVE SMOOTH",
"75 163 OFFCURVE",
"214 97 OFFCURVE",
"272 97 CURVE SMOOTH",
"335 97 OFFCURVE",
"429 206 OFFCURVE",
"466 247 CURVE",
"481 236 OFFCURVE",
"508 217 OFFCURVE",
"521 217 CURVE SMOOTH",
"539 217 OFFCURVE",
"570 228 OFFCURVE",
"609 261 CURVE",
"627 247 LINE",
"589 196 OFFCURVE",
"549 141 OFFCURVE",
"549 118 CURVE SMOOTH",
"549 82 OFFCURVE",
"657 0 OFFCURVE",
"707 0 CURVE SMOOTH",
"768 0 OFFCURVE",
"977 122 OFFCURVE",
"977 193 CURVE SMOOTH",
"977 237 OFFCURVE",
"925 293 OFFCURVE",
"856 312 CURVE",
"813 257 OFFCURVE",
"774 208 OFFCURVE",
"717 175 CURVE",
"765 315 OFFCURVE",
"845 480 OFFCURVE",
"845 541 CURVE SMOOTH",
"845 570 OFFCURVE",
"728 602 OFFCURVE",
"689 602 CURVE SMOOTH",
"652 602 OFFCURVE",
"638 456 OFFCURVE",
"550 369 CURVE"
);
}
);
width = 1034;
}
);
leftMetricsKey = gjPA;
rightMetricsKey = gjmAA;
unicode = 0A96;
},
{
glyphname = gjGA;
lastChange = "2015-07-20 18:28:59 +0000";
layers = (
{
background = {
paths = (
{
closed = 1;
nodes = (
"169 285 OFFCURVE",
"258 385 OFFCURVE",
"265 478 CURVE",
"208 463 OFFCURVE",
"168 444 OFFCURVE",
"115 407 CURVE",
"69 436 OFFCURVE",
"42 470 OFFCURVE",
"42 519 CURVE SMOOTH",
"42 581 OFFCURVE",
"159 619 OFFCURVE",
"239 619 CURVE SMOOTH",
"327 619 OFFCURVE",
"425 535 OFFCURVE",
"425 462 CURVE SMOOTH",
"425 303 OFFCURVE",
"309 157 OFFCURVE",
"144 157 CURVE SMOOTH",
"70 157 OFFCURVE",
"-6 215 OFFCURVE",
"-37 288 CURVE",
"2 324 LINE",
"30 303 OFFCURVE",
"64 285 OFFCURVE",
"99 285 CURVE SMOOTH"
);
},
{
closed = 1;
nodes = (
"512 583 OFFCURVE",
"418 163 OFFCURVE",
"418 123 CURVE SMOOTH",
"418 86 OFFCURVE",
"531 0 OFFCURVE",
"581 0 CURVE SMOOTH",
"642 0 OFFCURVE",
"851 122 OFFCURVE",
"851 193 CURVE SMOOTH",
"851 237 OFFCURVE",
"799 293 OFFCURVE",
"730 312 CURVE",
"687 257 OFFCURVE",
"649 208 OFFCURVE",
"592 175 CURVE",
"640 315 OFFCURVE",
"714 471 OFFCURVE",
"714 522 CURVE SMOOTH",
"714 551 OFFCURVE",
"598 583 OFFCURVE",
"548 583 CURVE SMOOTH"
);
}
);
};
layerId = "AF1B7CCB-9C31-456C-8386-1D362D80AEF6";
name = "Bold Italic";
paths = (
{
closed = 1;
nodes = (
"502 583 OFFCURVE",
"408 163 OFFCURVE",
"408 123 CURVE SMOOTH",
"408 86 OFFCURVE",
"521 0 OFFCURVE",
"571 0 CURVE SMOOTH",
"632 0 OFFCURVE",
"841 122 OFFCURVE",
"841 193 CURVE SMOOTH",
"841 237 OFFCURVE",
"789 293 OFFCURVE",
"720 312 CURVE",
"677 257 OFFCURVE",
"639 208 OFFCURVE",
"582 175 CURVE",
"630 315 OFFCURVE",
"704 471 OFFCURVE",
"704 522 CURVE SMOOTH",
"704 551 OFFCURVE",
"588 583 OFFCURVE",
"538 583 CURVE SMOOTH"
);
},
{
closed = 1;
nodes = (
"60 157 OFFCURVE",
"-29 238 OFFCURVE",
"-29 290 CURVE SMOOTH",
"-29 310 OFFCURVE",
"-23 327 OFFCURVE",
"-11 344 CURVE",
"60 362 OFFCURVE",
"112 351 OFFCURVE",
"149 311 CURVE",
"143 297 OFFCURVE",
"139 286 OFFCURVE",
"135 266 CURVE",
"226 314 OFFCURVE",
"272 395 OFFCURVE",
"265 478 CURVE",
"208 463 OFFCURVE",
"168 444 OFFCURVE",
"115 407 CURVE",
"69 436 OFFCURVE",
"42 470 OFFCURVE",
"42 519 CURVE SMOOTH",
"42 581 OFFCURVE",
"159 619 OFFCURVE",
"239 619 CURVE SMOOTH",
"327 619 OFFCURVE",
"425 535 OFFCURVE",
"425 462 CURVE SMOOTH",
"425 314 OFFCURVE",
"316 157 OFFCURVE",
"144 157 CURVE SMOOTH"
);
}
);
width = 873;
},
{
associatedMasterId = "AF1B7CCB-9C31-456C-8386-1D362D80AEF6";
background = {
paths = (
{
closed = 1;
nodes = (
"573 583 OFFCURVE",
"480 152 OFFCURVE",
"480 123 CURVE SMOOTH",
"480 84 OFFCURVE",
"597 -1 OFFCURVE",
"641 -1 CURVE SMOOTH",
"723 -1 OFFCURVE",
"913 132 OFFCURVE",
"913 191 CURVE SMOOTH",
"913 247 OFFCURVE",
"847 298 OFFCURVE",
"792 312 CURVE",
"754 267 OFFCURVE",
"717 222 OFFCURVE",
"675 197 CURVE",
"717 322 OFFCURVE",
"796 457 OFFCURVE",
"796 515 CURVE SMOOTH",
"796 542 OFFCURVE",
"670 583 OFFCURVE",
"609 583 CURVE SMOOTH"
);
},
{
closed = 1;
nodes = (
"211 281 OFFCURVE",
"309 363 OFFCURVE",
"318 452 CURVE",
"265 444 OFFCURVE",
"209 416 OFFCURVE",
"163 386 CURVE",
"106 411 OFFCURVE",
"66 460 OFFCURVE",
"66 510 CURVE SMOOTH",
"66 576 OFFCURVE",
"204 619 OFFCURVE",
"302 619 CURVE SMOOTH",
"376 619 OFFCURVE",
"484 545 OFFCURVE",
"484 457 CURVE SMOOTH",
"484 296 OFFCURVE",
"369 126 OFFCURVE",
"197 126 CURVE SMOOTH",
"118 126 OFFCURVE",
"30 190 OFFCURVE",
"-15 265 CURVE",
"36 321 LINE",
"82 292 OFFCURVE",
"124 281 OFFCURVE",
"153 281 CURVE SMOOTH"
);
}
);
};
layerId = "B3A3B0B3-AA34-42F5-B7E4-6F411EFB700E";
name = "top heavy";
paths = (
{
closed = 1;
nodes = (
"573 583 OFFCURVE",
"480 152 OFFCURVE",
"480 123 CURVE SMOOTH",
"480 84 OFFCURVE",
"597 -1 OFFCURVE",
"641 -1 CURVE SMOOTH",
"723 -1 OFFCURVE",
"913 132 OFFCURVE",
"913 191 CURVE SMOOTH",
"913 247 OFFCURVE",
"847 298 OFFCURVE",
"792 312 CURVE",
"754 267 OFFCURVE",
"717 222 OFFCURVE",
"675 197 CURVE",
"717 322 OFFCURVE",
"796 457 OFFCURVE",
"796 515 CURVE SMOOTH",
"796 542 OFFCURVE",
"670 583 OFFCURVE",
"609 583 CURVE SMOOTH"
);
},
{
closed = 1;
nodes = (
"240 294 OFFCURVE",
"314 386 OFFCURVE",
"318 452 CURVE",
"265 444 OFFCURVE",
"209 416 OFFCURVE",
"163 386 CURVE",
"106 411 OFFCURVE",
"66 460 OFFCURVE",
"66 510 CURVE SMOOTH",
"66 576 OFFCURVE",
"204 619 OFFCURVE",
"302 619 CURVE SMOOTH",
"376 619 OFFCURVE",
"484 545 OFFCURVE",
"484 457 CURVE SMOOTH",
"484 300 OFFCURVE",
"367 139 OFFCURVE",
"202 139 CURVE SMOOTH",
"125 139 OFFCURVE",
"44 213 OFFCURVE",
"10 282 CURVE",
"61 338 LINE",
"89 315 OFFCURVE",
"137 294 OFFCURVE",
"175 294 CURVE SMOOTH"
);
}
);
width = 943;
},
{
associatedMasterId = "AF1B7CCB-9C31-456C-8386-1D362D80AEF6";
background = {
paths = (
{
closed = 1;
nodes = (
"573 583 OFFCURVE",
"480 152 OFFCURVE",
"480 123 CURVE SMOOTH",
"480 84 OFFCURVE",
"597 -1 OFFCURVE",
"641 -1 CURVE SMOOTH",
"723 -1 OFFCURVE",
"913 132 OFFCURVE",
"913 191 CURVE SMOOTH",
"913 247 OFFCURVE",
"847 298 OFFCURVE",
"792 312 CURVE",
"754 267 OFFCURVE",
"717 222 OFFCURVE",
"675 197 CURVE",
"717 322 OFFCURVE",
"796 457 OFFCURVE",
"796 515 CURVE SMOOTH",
"796 542 OFFCURVE",
"670 583 OFFCURVE",
"609 583 CURVE SMOOTH"
);
},
{
closed = 1;
nodes = (
"240 294 OFFCURVE",
"314 386 OFFCURVE",
"318 452 CURVE",
"265 444 OFFCURVE",
"209 416 OFFCURVE",
"163 386 CURVE",
"106 411 OFFCURVE",
"66 460 OFFCURVE",
"66 510 CURVE SMOOTH",
"66 576 OFFCURVE",
"204 619 OFFCURVE",
"302 619 CURVE SMOOTH",
"376 619 OFFCURVE",
"484 545 OFFCURVE",
"484 457 CURVE SMOOTH",
"484 300 OFFCURVE",
"367 139 OFFCURVE",
"202 139 CURVE SMOOTH",
"125 139 OFFCURVE",
"44 213 OFFCURVE",
"10 282 CURVE",
"61 338 LINE",
"89 315 OFFCURVE",
"137 294 OFFCURVE",
"175 294 CURVE SMOOTH"
);
},
{
closed = 0;
nodes = (
"237 239 LINE",
"353 301 OFFCURVE",
"484 424 OFFCURVE",
"484 485 CURVE SMOOTH",
"484 545 OFFCURVE",
"376 619 OFFCURVE",
"302 619 CURVE SMOOTH",
"204 619 OFFCURVE",
"66 576 OFFCURVE",
"66 510 CURVE SMOOTH",
"66 465 OFFCURVE",
"92 431 OFFCURVE",
"139 398 CURVE",
"195 436 OFFCURVE",
"249 458 OFFCURVE",
"319 480 CURVE",
"263 400 OFFCURVE",
"191 354 OFFCURVE",
"86 309 CURVE"
);
}
);
};
layerId = "AC423EF5-1CBF-401E-B0B6-EEDF623E5623";
name = "Bold Italic Jul 9 15, 16:36";
paths = (
{
closed = 1;
nodes = (
"573 583 OFFCURVE",
"480 152 OFFCURVE",
"480 123 CURVE SMOOTH",
"480 84 OFFCURVE",
"597 -1 OFFCURVE",
"641 -1 CURVE SMOOTH",
"723 -1 OFFCURVE",
"913 132 OFFCURVE",
"913 191 CURVE SMOOTH",
"913 247 OFFCURVE",
"847 298 OFFCURVE",
"792 312 CURVE",
"754 267 OFFCURVE",
"717 222 OFFCURVE",
"675 197 CURVE",
"717 322 OFFCURVE",
"796 457 OFFCURVE",
"796 515 CURVE SMOOTH",
"796 542 OFFCURVE",
"670 583 OFFCURVE",
"609 583 CURVE SMOOTH"
);
},
{
closed = 1;
nodes = (
"247 292 OFFCURVE",
"323 385 OFFCURVE",
"330 478 CURVE",
"248 460 OFFCURVE",
"193 433 OFFCURVE",
"139 398 CURVE",
"98 426 OFFCURVE",
"66 462 OFFCURVE",
"66 510 CURVE SMOOTH",
"66 576 OFFCURVE",
"204 619 OFFCURVE",
"302 619 CURVE SMOOTH",
"376 619 OFFCURVE",
"484 545 OFFCURVE",
"484 457 CURVE SMOOTH",
"484 300 OFFCURVE",
"366 143 OFFCURVE",
"201 143 CURVE SMOOTH",
"124 143 OFFCURVE",
"43 217 OFFCURVE",
"9 286 CURVE",
"60 336 LINE",
"88 313 OFFCURVE",
"136 292 OFFCURVE",
"174 292 CURVE SMOOTH"
);
}
);
width = 943;
},
{
associatedMasterId = "AF1B7CCB-9C31-456C-8386-1D362D80AEF6";
background = {
paths = (
{
closed = 1;
nodes = (
"547 583 OFFCURVE",
"454 152 OFFCURVE",
"454 123 CURVE SMOOTH",
"454 84 OFFCURVE",
"571 -1 OFFCURVE",
"615 -1 CURVE SMOOTH",
"697 -1 OFFCURVE",
"887 132 OFFCURVE",
"887 191 CURVE SMOOTH",
"887 247 OFFCURVE",
"821 298 OFFCURVE",
"766 312 CURVE",
"728 267 OFFCURVE",
"691 222 OFFCURVE",
"649 197 CURVE",
"691 322 OFFCURVE",
"770 457 OFFCURVE",
"770 515 CURVE SMOOTH",
"770 542 OFFCURVE",
"644 583 OFFCURVE",
"583 583 CURVE SMOOTH"
);
},
{
closed = 1;
nodes = (
"208 285 OFFCURVE",
"298 385 OFFCURVE",
"305 478 CURVE",
"238 463 OFFCURVE",
"201 442 OFFCURVE",
"150 407 CURVE",
"112 433 OFFCURVE",
"82 470 OFFCURVE",
"82 519 CURVE SMOOTH",
"82 582 OFFCURVE",
"197 619 OFFCURVE",
"276 619 CURVE SMOOTH",
"359 619 OFFCURVE",
"459 541 OFFCURVE",
"459 457 CURVE SMOOTH",
"459 302 OFFCURVE",
"345 157 OFFCURVE",
"181 157 CURVE SMOOTH",
"101 157 OFFCURVE",
"30 224 OFFCURVE",
"2 288 CURVE",
"37 324 LINE",
"69 302 OFFCURVE",
"100 285 OFFCURVE",
"132 285 CURVE SMOOTH"
);
}
);
};
layerId = "9743EB2D-9752-4A0F-A192-CE73AC8DEFFD";
name = "Bold Italic Jul 10 15, 19:25";
paths = (
{
closed = 1;
nodes = (
"547 583 OFFCURVE",
"454 152 OFFCURVE",
"454 123 CURVE SMOOTH",
"454 84 OFFCURVE",
"571 -1 OFFCURVE",
"615 -1 CURVE SMOOTH",
"697 -1 OFFCURVE",
"887 132 OFFCURVE",
"887 191 CURVE SMOOTH",
"887 247 OFFCURVE",
"821 298 OFFCURVE",
"766 312 CURVE",
"728 267 OFFCURVE",
"691 222 OFFCURVE",
"649 197 CURVE",
"691 322 OFFCURVE",
"770 457 OFFCURVE",
"770 515 CURVE SMOOTH",
"770 542 OFFCURVE",
"644 583 OFFCURVE",
"583 583 CURVE SMOOTH"
);
},
{
closed = 1;
nodes = (
"206 285 OFFCURVE",
"295 385 OFFCURVE",
"302 478 CURVE",
"245 463 OFFCURVE",
"205 444 OFFCURVE",
"152 407 CURVE",
"106 436 OFFCURVE",
"79 470 OFFCURVE",
"79 519 CURVE SMOOTH",
"79 581 OFFCURVE",
"196 619 OFFCURVE",
"276 619 CURVE SMOOTH",
"364 619 OFFCURVE",
"462 535 OFFCURVE",
"462 462 CURVE SMOOTH",
"462 303 OFFCURVE",
"346 157 OFFCURVE",
"181 157 CURVE SMOOTH",
"107 157 OFFCURVE",
"31 215 OFFCURVE",
"0 288 CURVE",
"39 324 LINE",
"67 303 OFFCURVE",
"101 285 OFFCURVE",
"136 285 CURVE SMOOTH"
);
}
);
width = 917;
},
{
associatedMasterId = "AF1B7CCB-9C31-456C-8386-1D362D80AEF6";
background = {
paths = (
{
closed = 1;
nodes = (
"511 583 OFFCURVE",
"418 152 OFFCURVE",
"418 123 CURVE SMOOTH",
"418 84 OFFCURVE",
"535 -1 OFFCURVE",
"579 -1 CURVE SMOOTH",
"661 -1 OFFCURVE",
"851 132 OFFCURVE",
"851 191 CURVE SMOOTH",
"851 247 OFFCURVE",
"785 298 OFFCURVE",
"730 312 CURVE",
"692 267 OFFCURVE",
"655 222 OFFCURVE",
"613 197 CURVE",
"655 322 OFFCURVE",
"734 457 OFFCURVE",
"734 515 CURVE SMOOTH",
"734 542 OFFCURVE",
"608 583 OFFCURVE",
"547 583 CURVE SMOOTH"
);
},
{
closed = 1;
nodes = (
"170 285 OFFCURVE",
"259 385 OFFCURVE",
"266 478 CURVE",
"209 463 OFFCURVE",
"169 444 OFFCURVE",
"116 407 CURVE",
"70 436 OFFCURVE",
"43 470 OFFCURVE",
"43 519 CURVE SMOOTH",
"43 581 OFFCURVE",
"160 619 OFFCURVE",
"240 619 CURVE SMOOTH",
"328 619 OFFCURVE",
"426 535 OFFCURVE",
"426 462 CURVE SMOOTH",
"426 303 OFFCURVE",
"310 157 OFFCURVE",
"145 157 CURVE SMOOTH",
"71 157 OFFCURVE",
"-5 215 OFFCURVE",
"-36 288 CURVE",
"3 324 LINE",
"31 303 OFFCURVE",
"65 285 OFFCURVE",
"100 285 CURVE SMOOTH"
);
}
);
};
layerId = "A8CFCED8-3AAC-4BBD-A14A-E149AA2249BB";
name = "Bold Italic Jul 20 15, 13:44";
paths = (
{
closed = 1;
nodes = (
"170 285 OFFCURVE",
"259 385 OFFCURVE",
"266 478 CURVE",
"209 463 OFFCURVE",
"169 444 OFFCURVE",
"116 407 CURVE",
"70 436 OFFCURVE",
"43 470 OFFCURVE",
"43 519 CURVE SMOOTH",
"43 581 OFFCURVE",
"160 619 OFFCURVE",
"240 619 CURVE SMOOTH",
"328 619 OFFCURVE",
"426 535 OFFCURVE",
"426 462 CURVE SMOOTH",
"426 303 OFFCURVE",
"310 157 OFFCURVE",
"145 157 CURVE SMOOTH",
"71 157 OFFCURVE",
"-5 215 OFFCURVE",
"-36 288 CURVE",
"3 324 LINE",
"31 303 OFFCURVE",
"65 285 OFFCURVE",
"100 285 CURVE SMOOTH"
);
},
{
closed = 1;
nodes = (
"513 583 OFFCURVE",
"419 163 OFFCURVE",
"419 123 CURVE SMOOTH",
"419 86 OFFCURVE",
"532 0 OFFCURVE",
"582 0 CURVE SMOOTH",
"643 0 OFFCURVE",
"852 122 OFFCURVE",
"852 193 CURVE SMOOTH",
"852 237 OFFCURVE",
"800 293 OFFCURVE",
"731 312 CURVE",
"688 257 OFFCURVE",
"650 208 OFFCURVE",
"593 175 CURVE",
"641 315 OFFCURVE",
"715 471 OFFCURVE",
"715 522 CURVE SMOOTH",
"715 551 OFFCURVE",
"599 583 OFFCURVE",
"549 583 CURVE SMOOTH"
);
}
);
width = 884;
}
);
rightMetricsKey = gjmAA;
unicode = 0A97;
},
{
glyphname = gjGHA;
lastChange = "2015-07-17 13:12:17 +0000";
layers = (
{
background = {
paths = (
{
closed = 1;
nodes = (
"180 276 LINE",
"239 314 OFFCURVE",
"275 345 OFFCURVE",
"275 369 CURVE SMOOTH",
"275 393 OFFCURVE",
"222 410 OFFCURVE",
"203 442 CURVE",
"222 462 OFFCURVE",
"273 495 OFFCURVE",
"295 495 CURVE SMOOTH",
"319 495 OFFCURVE",
"338 484 OFFCURVE",
"356 473 CURVE",
"374 482 OFFCURVE",
"383 493 OFFCURVE",
"385 505 CURVE",
"355 549 OFFCURVE",
"285 619 OFFCURVE",
"210 619 CURVE SMOOTH",
"133 619 OFFCURVE",
"21 542 OFFCURVE",
"21 492 CURVE SMOOTH",
"21 448 OFFCURVE",
"66 405 OFFCURVE",
"100 379 CURVE",
"70 358 OFFCURVE",
"-18 310 OFFCURVE",
"-18 272 CURVE SMOOTH",
"-18 216 OFFCURVE",
"84 95 OFFCURVE",
"173 95 CURVE SMOOTH",
"231 95 OFFCURVE",
"352 183 OFFCURVE",
"411 262 CURVE",
"430 247 LINE",
"392 196 OFFCURVE",
"352 141 OFFCURVE",
"352 118 CURVE SMOOTH",
"352 82 OFFCURVE",
"460 0 OFFCURVE",
"510 0 CURVE SMOOTH",
"571 0 OFFCURVE",
"780 122 OFFCURVE",
"780 193 CURVE SMOOTH",
"780 237 OFFCURVE",
"728 293 OFFCURVE",
"659 312 CURVE",
"616 257 OFFCURVE",
"578 208 OFFCURVE",
"521 175 CURVE",
"569 315 OFFCURVE",
"643 471 OFFCURVE",
"643 522 CURVE SMOOTH",
"643 551 OFFCURVE",
"526 583 OFFCURVE",
"483 583 CURVE SMOOTH",
"433 583 OFFCURVE",
"448 372 OFFCURVE",
"213 242 CURVE"
);
},
{
closed = 0;
nodes = (
"94 271 LINE",
"103 365 OFFCURVE",
"179 481 OFFCURVE",
"294 496 CURVE",
"305 549 OFFCURVE",
"290 601 OFFCURVE",
"214 619 CURVE",
"28 601 OFFCURVE",
"-66 392 OFFCURVE",
"-66 300 CURVE SMOOTH"
);
}
);
};
layerId = "AF1B7CCB-9C31-456C-8386-1D362D80AEF6";
name = "Bold Italic";
paths = (
{
closed = 1;
nodes = (
"180 276 LINE",
"239 314 OFFCURVE",
"275 345 OFFCURVE",
"275 369 CURVE SMOOTH",
"275 393 OFFCURVE",
"227 406 OFFCURVE",
"203 442 CURVE",
"239 473 OFFCURVE",
"294 490 OFFCURVE",
"333 493 CURVE",
"351 557 OFFCURVE",
"329 612 OFFCURVE",
"250 619 CURVE",
"130 606 OFFCURVE",
"27 522 OFFCURVE",
"27 476 CURVE SMOOTH",
"27 442 OFFCURVE",
"69 403 OFFCURVE",
"100 379 CURVE",
"70 358 OFFCURVE",
"-18 310 OFFCURVE",
"-18 272 CURVE SMOOTH",
"-18 216 OFFCURVE",
"84 95 OFFCURVE",
"173 95 CURVE SMOOTH",
"231 95 OFFCURVE",
"352 183 OFFCURVE",
"411 262 CURVE",
"430 247 LINE",
"392 196 OFFCURVE",
"352 141 OFFCURVE",
"352 118 CURVE SMOOTH",
"352 82 OFFCURVE",
"460 0 OFFCURVE",
"510 0 CURVE SMOOTH",
"571 0 OFFCURVE",
"780 122 OFFCURVE",
"780 193 CURVE SMOOTH",
"780 237 OFFCURVE",
"728 293 OFFCURVE",
"659 312 CURVE",
"616 257 OFFCURVE",
"578 208 OFFCURVE",
"521 175 CURVE",
"569 315 OFFCURVE",
"643 471 OFFCURVE",
"643 522 CURVE SMOOTH",
"643 551 OFFCURVE",
"526 583 OFFCURVE",
"483 583 CURVE SMOOTH",
"433 583 OFFCURVE",
"448 372 OFFCURVE",
"213 242 CURVE"
);
}
);
width = 812;
},
{
associatedMasterId = "AF1B7CCB-9C31-456C-8386-1D362D80AEF6";
background = {
paths = (
{
closed = 1;
nodes = (
"347 493 OFFCURVE",
"379 493 CURVE SMOOTH",
"405 493 OFFCURVE",
"433 481 OFFCURVE",
"466 454 CURVE",
"481 467 LINE",
"428 552 OFFCURVE",
"349 619 OFFCURVE",
"297 619 CURVE SMOOTH",
"206 619 OFFCURVE",
"68 527 OFFCURVE",
"71 473 CURVE SMOOTH",
"73 431 OFFCURVE",
"116 394 OFFCURVE",
"150 362 CURVE",
"130 339 OFFCURVE",
"46 313 OFFCURVE",
"46 268 CURVE SMOOTH",
"46 213 OFFCURVE",
"165 95 OFFCURVE",
"251 95 CURVE SMOOTH",
"321 95 OFFCURVE",
"456 193 OFFCURVE",
"511 261 CURVE",
"523 252 LINE",
"485 201 OFFCURVE",
"445 146 OFFCURVE",
"445 123 CURVE SMOOTH",
"445 84 OFFCURVE",
"562 -1 OFFCURVE",
"606 -1 CURVE SMOOTH",
"688 -1 OFFCURVE",
"878 132 OFFCURVE",
"878 191 CURVE SMOOTH",
"878 247 OFFCURVE",
"817 296 OFFCURVE",
"741 316 CURVE",
"711 276 OFFCURVE",
"670 235 OFFCURVE",
"628 210 CURVE",
"666 308 OFFCURVE",
"761 451 OFFCURVE",
"761 515 CURVE SMOOTH",
"761 537 OFFCURVE",
"644 583 OFFCURVE",
"577 583 CURVE SMOOTH",
"539 583 OFFCURVE",
"497 335 OFFCURVE",
"289 239 CURVE",
"275 253 LINE",
"333 288 OFFCURVE",
"384 328 OFFCURVE",
"384 362 CURVE SMOOTH",
"384 381 OFFCURVE",
"317 394 OFFCURVE",
"286 439 CURVE",
"318 474 OFFCURVE"
);
}
);
};
layerId = "74BBE2F5-6A70-406E-A8B1-7930B0F17833";
name = "too delicate";
paths = (
{
closed = 1;
nodes = (
"366 493 OFFCURVE",
"399 493 CURVE SMOOTH",
"425 493 OFFCURVE",
"453 481 OFFCURVE",
"486 454 CURVE",
"501 467 LINE",
"448 552 OFFCURVE",
"369 619 OFFCURVE",
"317 619 CURVE SMOOTH",
"226 619 OFFCURVE",
"91 537 OFFCURVE",
"91 479 CURVE SMOOTH",
"91 437 OFFCURVE",
"129 394 OFFCURVE",
"163 362 CURVE",
"130 339 OFFCURVE",
"66 307 OFFCURVE",
"66 276 CURVE SMOOTH",
"66 213 OFFCURVE",
"185 95 OFFCURVE",
"271 95 CURVE SMOOTH",
"341 95 OFFCURVE",
"456 193 OFFCURVE",
"511 261 CURVE",
"523 252 LINE",
"485 201 OFFCURVE",
"445 146 OFFCURVE",
"445 123 CURVE SMOOTH",
"445 84 OFFCURVE",
"562 -1 OFFCURVE",
"606 -1 CURVE SMOOTH",
"688 -1 OFFCURVE",
"878 132 OFFCURVE",
"878 191 CURVE SMOOTH",
"878 247 OFFCURVE",
"817 296 OFFCURVE",
"741 316 CURVE",
"711 276 OFFCURVE",
"670 235 OFFCURVE",
"628 210 CURVE",
"666 308 OFFCURVE",
"761 451 OFFCURVE",
"761 515 CURVE SMOOTH",
"761 537 OFFCURVE",
"644 583 OFFCURVE",
"577 583 CURVE SMOOTH",
"537 583 OFFCURVE",
"494 343 OFFCURVE",
"308 250 CURVE",
"294 264 LINE",
"352 299 OFFCURVE",
"390 334 OFFCURVE",
"390 368 CURVE SMOOTH",
"390 387 OFFCURVE",
"335 410 OFFCURVE",
"306 449 CURVE",
"335 479 OFFCURVE"
);
}
);
width = 858;
},
{
associatedMasterId = "AF1B7CCB-9C31-456C-8386-1D362D80AEF6";
background = {
paths = (
{
closed = 1;
nodes = (
"324 493 OFFCURVE",
"357 493 CURVE SMOOTH",
"383 493 OFFCURVE",
"411 481 OFFCURVE",
"444 454 CURVE",
"459 467 LINE",
"406 552 OFFCURVE",
"327 619 OFFCURVE",
"275 619 CURVE SMOOTH",
"184 619 OFFCURVE",
"49 537 OFFCURVE",
"49 479 CURVE SMOOTH",
"49 437 OFFCURVE",
"87 394 OFFCURVE",
"121 362 CURVE",
"88 339 OFFCURVE",
"24 307 OFFCURVE",
"24 276 CURVE SMOOTH",
"24 213 OFFCURVE",
"143 95 OFFCURVE",
"229 95 CURVE SMOOTH",
"299 95 OFFCURVE",
"414 193 OFFCURVE",
"469 261 CURVE",
"481 252 LINE",
"443 201 OFFCURVE",
"403 146 OFFCURVE",
"403 123 CURVE SMOOTH",
"403 84 OFFCURVE",
"520 -1 OFFCURVE",
"564 -1 CURVE SMOOTH",
"646 -1 OFFCURVE",
"836 132 OFFCURVE",
"836 191 CURVE SMOOTH",
"836 247 OFFCURVE",
"775 296 OFFCURVE",
"699 316 CURVE",
"669 276 OFFCURVE",
"628 235 OFFCURVE",
"586 210 CURVE",
"624 308 OFFCURVE",
"719 451 OFFCURVE",
"719 515 CURVE SMOOTH",
"719 537 OFFCURVE",
"602 583 OFFCURVE",
"535 583 CURVE SMOOTH",
"495 583 OFFCURVE",
"452 343 OFFCURVE",
"266 250 CURVE",
"252 264 LINE",
"310 299 OFFCURVE",
"348 334 OFFCURVE",
"348 368 CURVE SMOOTH",
"348 387 OFFCURVE",
"293 410 OFFCURVE",
"264 449 CURVE",
"293 479 OFFCURVE"
);
}
);
};
layerId = "717B212C-5CF0-4294-A82F-0CE5781F88AC";
name = "Regular Jun 2 15, 16:56";
paths = (
{
closed = 1;
nodes = (
"460 497 LINE",
"421 556 OFFCURVE",
"347 620 OFFCURVE",
"283 620 CURVE SMOOTH",
"187 620 OFFCURVE",
"49 537 OFFCURVE",
"49 479 CURVE SMOOTH",
"49 437 OFFCURVE",
"87 394 OFFCURVE",
"121 362 CURVE",
"88 339 OFFCURVE",
"24 307 OFFCURVE",
"24 276 CURVE SMOOTH",
"24 213 OFFCURVE",
"143 95 OFFCURVE",
"229 95 CURVE SMOOTH",
"299 95 OFFCURVE",
"414 193 OFFCURVE",
"469 261 CURVE",
"481 252 LINE",
"443 201 OFFCURVE",
"403 146 OFFCURVE",
"403 123 CURVE SMOOTH",
"403 84 OFFCURVE",
"520 -1 OFFCURVE",
"564 -1 CURVE SMOOTH",
"646 -1 OFFCURVE",
"836 132 OFFCURVE",
"836 191 CURVE SMOOTH",
"836 247 OFFCURVE",
"775 296 OFFCURVE",
"699 316 CURVE",
"669 276 OFFCURVE",
"628 235 OFFCURVE",
"586 210 CURVE",
"624 308 OFFCURVE",
"719 451 OFFCURVE",
"719 515 CURVE SMOOTH",
"719 537 OFFCURVE",
"602 583 OFFCURVE",
"535 583 CURVE SMOOTH",
"495 583 OFFCURVE",
"452 343 OFFCURVE",
"266 250 CURVE",
"252 264 LINE",
"310 299 OFFCURVE",
"348 334 OFFCURVE",
"348 368 CURVE SMOOTH",
"348 387 OFFCURVE",
"293 410 OFFCURVE",
"264 449 CURVE",
"295 479 OFFCURVE",
"328 496 OFFCURVE",
"363 496 CURVE SMOOTH",
"387 496 OFFCURVE",
"412 488 OFFCURVE",
"438 472 CURVE"
);
}
);
width = 866;
},
{
associatedMasterId = "AF1B7CCB-9C31-456C-8386-1D362D80AEF6";
background = {
paths = (
{
closed = 1;
nodes = (
"471 497 LINE",
"432 556 OFFCURVE",
"358 620 OFFCURVE",
"294 620 CURVE SMOOTH",
"198 620 OFFCURVE",
"60 537 OFFCURVE",
"60 479 CURVE SMOOTH",
"60 437 OFFCURVE",
"98 394 OFFCURVE",
"132 362 CURVE",
"99 339 OFFCURVE",
"35 307 OFFCURVE",
"35 276 CURVE SMOOTH",
"35 213 OFFCURVE",
"154 95 OFFCURVE",
"240 95 CURVE SMOOTH",
"310 95 OFFCURVE",
"425 193 OFFCURVE",
"480 261 CURVE",
"492 252 LINE",
"454 201 OFFCURVE",
"414 146 OFFCURVE",
"414 123 CURVE SMOOTH",
"414 84 OFFCURVE",
"531 -1 OFFCURVE",
"575 -1 CURVE SMOOTH",
"657 -1 OFFCURVE",
"847 132 OFFCURVE",
"847 191 CURVE SMOOTH",
"847 247 OFFCURVE",
"786 296 OFFCURVE",
"710 316 CURVE",
"680 276 OFFCURVE",
"639 235 OFFCURVE",
"597 210 CURVE",
"635 308 OFFCURVE",
"730 451 OFFCURVE",
"730 515 CURVE SMOOTH",
"730 537 OFFCURVE",
"613 583 OFFCURVE",
"546 583 CURVE SMOOTH",
"506 583 OFFCURVE",
"463 343 OFFCURVE",
"277 250 CURVE",
"263 264 LINE",
"321 299 OFFCURVE",
"359 334 OFFCURVE",
"359 368 CURVE SMOOTH",
"359 387 OFFCURVE",
"304 410 OFFCURVE",
"275 449 CURVE",
"306 479 OFFCURVE",
"339 496 OFFCURVE",
"374 496 CURVE SMOOTH",
"398 496 OFFCURVE",
"423 488 OFFCURVE",
"449 472 CURVE"
);
}
);
};
layerId = "F69AF9D5-7B3C-413B-8FFB-597EE4DF1449";
name = bolder;
paths = (
{
closed = 1;
nodes = (
"471 497 LINE",
"434 549 OFFCURVE",
"341 628 OFFCURVE",
"278 628 CURVE SMOOTH",
"211 628 OFFCURVE",
"60 537 OFFCURVE",
"60 479 CURVE SMOOTH",
"60 437 OFFCURVE",
"98 394 OFFCURVE",
"132 362 CURVE",
"99 339 OFFCURVE",
"35 307 OFFCURVE",
"35 276 CURVE SMOOTH",
"35 213 OFFCURVE",
"154 95 OFFCURVE",
"240 95 CURVE SMOOTH",
"310 95 OFFCURVE",
"425 193 OFFCURVE",
"480 261 CURVE",
"492 252 LINE",
"454 201 OFFCURVE",
"414 146 OFFCURVE",
"414 123 CURVE SMOOTH",
"414 84 OFFCURVE",
"531 -1 OFFCURVE",
"575 -1 CURVE SMOOTH",
"657 -1 OFFCURVE",
"847 132 OFFCURVE",
"847 191 CURVE SMOOTH",
"847 247 OFFCURVE",
"786 296 OFFCURVE",
"710 316 CURVE",
"680 276 OFFCURVE",
"639 235 OFFCURVE",
"597 210 CURVE",
"635 308 OFFCURVE",
"730 451 OFFCURVE",
"730 515 CURVE SMOOTH",
"730 537 OFFCURVE",
"613 583 OFFCURVE",
"546 583 CURVE SMOOTH",
"506 583 OFFCURVE",
"463 343 OFFCURVE",
"277 250 CURVE",
"263 264 LINE",
"321 299 OFFCURVE",
"359 334 OFFCURVE",
"359 368 CURVE SMOOTH",
"359 387 OFFCURVE",
"304 410 OFFCURVE",
"275 449 CURVE",
"298 472 OFFCURVE",
"340 504 OFFCURVE",
"365 504 CURVE SMOOTH",
"397 504 OFFCURVE",
"420 485 OFFCURVE",
"446 469 CURVE"
);
}
);
width = 827;
},
{
associatedMasterId = "AF1B7CCB-9C31-456C-8386-1D362D80AEF6";
background = {
paths = (
{
closed = 1;
nodes = (
"457 497 LINE",
"420 549 OFFCURVE",
"327 628 OFFCURVE",
"264 628 CURVE SMOOTH",
"197 628 OFFCURVE",
"46 537 OFFCURVE",
"46 479 CURVE SMOOTH",
"46 437 OFFCURVE",
"84 394 OFFCURVE",
"118 362 CURVE",
"85 339 OFFCURVE",
"21 307 OFFCURVE",
"21 276 CURVE SMOOTH",
"21 213 OFFCURVE",
"140 95 OFFCURVE",
"226 95 CURVE SMOOTH",
"296 95 OFFCURVE",
"411 193 OFFCURVE",
"466 261 CURVE",
"478 252 LINE",
"440 201 OFFCURVE",
"400 146 OFFCURVE",
"400 123 CURVE SMOOTH",
"400 84 OFFCURVE",
"517 -1 OFFCURVE",
"561 -1 CURVE SMOOTH",
"643 -1 OFFCURVE",
"833 132 OFFCURVE",
"833 191 CURVE SMOOTH",
"833 247 OFFCURVE",
"772 296 OFFCURVE",
"696 316 CURVE",
"666 276 OFFCURVE",
"625 235 OFFCURVE",
"583 210 CURVE",
"621 308 OFFCURVE",
"716 451 OFFCURVE",
"716 515 CURVE SMOOTH",
"716 537 OFFCURVE",
"599 583 OFFCURVE",
"532 583 CURVE SMOOTH",
"492 583 OFFCURVE",
"449 343 OFFCURVE",
"263 250 CURVE",
"249 264 LINE",
"307 299 OFFCURVE",
"345 334 OFFCURVE",
"345 368 CURVE SMOOTH",
"345 387 OFFCURVE",
"290 410 OFFCURVE",
"261 449 CURVE",
"284 472 OFFCURVE",
"326 504 OFFCURVE",
"351 504 CURVE SMOOTH",
"383 504 OFFCURVE",
"406 485 OFFCURVE",
"432 469 CURVE"
);
}
);
};
layerId = "7BCEFDBB-E6E8-4F93-B955-72B95F205FD8";
name = "Bold Italic Jul 9 15, 16:19";
paths = (
{
closed = 1;
nodes = (
"284 95 OFFCURVE",
"405 183 OFFCURVE",
"464 262 CURVE",
"483 247 LINE",
"445 196 OFFCURVE",
"405 141 OFFCURVE",
"405 118 CURVE SMOOTH",
"405 79 OFFCURVE",
"517 -1 OFFCURVE",
"561 -1 CURVE SMOOTH",
"643 -1 OFFCURVE",
"833 132 OFFCURVE",
"833 191 CURVE SMOOTH",
"833 247 OFFCURVE",
"767 298 OFFCURVE",
"712 312 CURVE",
"674 267 OFFCURVE",
"637 222 OFFCURVE",
"595 197 CURVE",
"637 322 OFFCURVE",
"716 457 OFFCURVE",
"716 515 CURVE SMOOTH",
"716 542 OFFCURVE",
"589 583 OFFCURVE",
"536 583 CURVE SMOOTH",
"486 583 OFFCURVE",
"483 370 OFFCURVE",
"260 248 CURVE",
"233 276 LINE",
"292 314 OFFCURVE",
"328 345 OFFCURVE",
"328 371 CURVE SMOOTH",
"328 393 OFFCURVE",
"282 411 OFFCURVE",
"252 449 CURVE",
"275 472 OFFCURVE",
"323 504 OFFCURVE",
"348 504 CURVE SMOOTH",
"380 504 OFFCURVE",
"406 485 OFFCURVE",
"432 469 CURVE",
"457 497 LINE",
"420 549 OFFCURVE",
"324 628 OFFCURVE",
"261 628 CURVE SMOOTH",
"194 628 OFFCURVE",
"49 540 OFFCURVE",
"49 482 CURVE SMOOTH",
"49 438 OFFCURVE",
"94 396 OFFCURVE",
"123 369 CURVE",
"93 348 OFFCURVE",
"21 307 OFFCURVE",
"21 276 CURVE SMOOTH",
"21 213 OFFCURVE",
"137 95 OFFCURVE",
"226 95 CURVE SMOOTH"
);
}
);
width = 863;
},
{
associatedMasterId = "AF1B7CCB-9C31-456C-8386-1D362D80AEF6";
background = {
paths = (
{
closed = 1;
nodes = (
"276 95 OFFCURVE",
"397 183 OFFCURVE",
"456 262 CURVE",
"475 247 LINE",
"437 196 OFFCURVE",
"397 141 OFFCURVE",
"397 118 CURVE SMOOTH",
"397 79 OFFCURVE",
"509 -1 OFFCURVE",
"553 -1 CURVE SMOOTH",
"635 -1 OFFCURVE",
"825 132 OFFCURVE",
"825 191 CURVE SMOOTH",
"825 247 OFFCURVE",
"759 298 OFFCURVE",
"704 312 CURVE",
"666 267 OFFCURVE",
"629 222 OFFCURVE",
"587 197 CURVE",
"629 322 OFFCURVE",
"708 457 OFFCURVE",
"708 515 CURVE SMOOTH",
"708 542 OFFCURVE",
"581 583 OFFCURVE",
"528 583 CURVE SMOOTH",
"478 583 OFFCURVE",
"475 370 OFFCURVE",
"252 248 CURVE",
"225 276 LINE",
"284 314 OFFCURVE",
"320 345 OFFCURVE",
"320 371 CURVE SMOOTH",
"320 393 OFFCURVE",
"274 411 OFFCURVE",
"244 449 CURVE",
"267 472 OFFCURVE",
"315 504 OFFCURVE",
"340 504 CURVE SMOOTH",
"372 504 OFFCURVE",
"398 485 OFFCURVE",
"424 469 CURVE",
"449 497 LINE",
"412 549 OFFCURVE",
"316 628 OFFCURVE",
"253 628 CURVE SMOOTH",
"186 628 OFFCURVE",
"41 540 OFFCURVE",
"41 482 CURVE SMOOTH",
"41 438 OFFCURVE",
"86 396 OFFCURVE",
"115 369 CURVE",
"85 348 OFFCURVE",
"13 307 OFFCURVE",
"13 276 CURVE SMOOTH",
"13 213 OFFCURVE",
"129 95 OFFCURVE",
"218 95 CURVE SMOOTH"
);
}
);
};
layerId = "40DDFE6D-A03C-4D01-AEDD-93A04DFA9BA2";
name = "Bold Italic Jul 10 15, 17:08";
paths = (
{
closed = 1;
nodes = (
"276 95 OFFCURVE",
"397 183 OFFCURVE",
"456 262 CURVE",
"475 247 LINE",
"437 196 OFFCURVE",
"397 141 OFFCURVE",
"397 118 CURVE SMOOTH",
"397 79 OFFCURVE",
"509 -1 OFFCURVE",
"553 -1 CURVE SMOOTH",
"635 -1 OFFCURVE",
"825 132 OFFCURVE",
"825 191 CURVE SMOOTH",
"825 247 OFFCURVE",
"759 298 OFFCURVE",
"704 312 CURVE",
"666 267 OFFCURVE",
"629 222 OFFCURVE",
"587 197 CURVE",
"629 322 OFFCURVE",
"708 457 OFFCURVE",
"708 515 CURVE SMOOTH",
"708 542 OFFCURVE",
"581 583 OFFCURVE",
"528 583 CURVE SMOOTH",
"478 583 OFFCURVE",
"475 370 OFFCURVE",
"252 248 CURVE",
"225 276 LINE",
"284 314 OFFCURVE",
"320 345 OFFCURVE",
"320 369 CURVE SMOOTH",
"320 393 OFFCURVE",
"267 410 OFFCURVE",
"248 442 CURVE",
"267 462 OFFCURVE",
"317 495 OFFCURVE",
"340 495 CURVE SMOOTH",
"363 495 OFFCURVE",
"389 480 OFFCURVE",
"413 464 CURVE",
"442 496 LINE",
"410 544 OFFCURVE",
"330 619 OFFCURVE",
"255 619 CURVE SMOOTH",
"178 619 OFFCURVE",
"46 532 OFFCURVE",
"46 472 CURVE SMOOTH",
"46 432 OFFCURVE",
"81 400 OFFCURVE",
"115 369 CURVE",
"85 348 OFFCURVE",
"13 307 OFFCURVE",
"13 276 CURVE SMOOTH",
"13 213 OFFCURVE",
"129 95 OFFCURVE",
"218 95 CURVE SMOOTH"
);
}
);
width = 855;
},
{
associatedMasterId = "AF1B7CCB-9C31-456C-8386-1D362D80AEF6";
background = {
paths = (
{
closed = 1;
nodes = (
"276 95 OFFCURVE",
"397 183 OFFCURVE",
"456 262 CURVE",
"475 247 LINE",
"437 196 OFFCURVE",
"397 141 OFFCURVE",
"397 118 CURVE SMOOTH",
"397 79 OFFCURVE",
"509 -1 OFFCURVE",
"553 -1 CURVE SMOOTH",
"635 -1 OFFCURVE",
"825 132 OFFCURVE",
"825 191 CURVE SMOOTH",
"825 247 OFFCURVE",
"759 298 OFFCURVE",
"704 312 CURVE",
"666 267 OFFCURVE",
"629 222 OFFCURVE",
"587 197 CURVE",
"629 322 OFFCURVE",
"708 457 OFFCURVE",
"708 515 CURVE SMOOTH",
"708 542 OFFCURVE",
"581 583 OFFCURVE",
"528 583 CURVE SMOOTH",
"478 583 OFFCURVE",
"475 370 OFFCURVE",
"252 248 CURVE",
"225 276 LINE",
"284 314 OFFCURVE",
"320 345 OFFCURVE",
"320 369 CURVE SMOOTH",
"320 393 OFFCURVE",
"267 410 OFFCURVE",
"248 442 CURVE",
"267 462 OFFCURVE",
"317 495 OFFCURVE",
"340 495 CURVE SMOOTH",
"363 495 OFFCURVE",
"389 480 OFFCURVE",
"413 464 CURVE",
"442 496 LINE",
"410 544 OFFCURVE",
"330 619 OFFCURVE",
"255 619 CURVE SMOOTH",
"178 619 OFFCURVE",
"46 532 OFFCURVE",
"46 472 CURVE SMOOTH",
"46 432 OFFCURVE",
"81 400 OFFCURVE",
"115 369 CURVE",
"85 348 OFFCURVE",
"13 307 OFFCURVE",
"13 276 CURVE SMOOTH",
"13 213 OFFCURVE",
"129 95 OFFCURVE",
"218 95 CURVE SMOOTH"
);
},
{
closed = 0;
nodes = (
"358 486 LINE SMOOTH",
"375 486 OFFCURVE",
"391 479 OFFCURVE",
"409 469 CURVE",
"427 478 OFFCURVE",
"436 489 OFFCURVE",
"438 501 CURVE",
"408 545 OFFCURVE",
"329 611 OFFCURVE",
"256 611 CURVE SMOOTH"
);
}
);
};
layerId = "3A7C47EC-F76E-40B1-AA17-C100A6802359";
name = "Bold Italic Jul 10 15, 21:29";
paths = (
{
closed = 1;
nodes = (
"364 495 OFFCURVE",
"391 480 OFFCURVE",
"409 469 CURVE",
"427 478 OFFCURVE",
"436 489 OFFCURVE",
"438 501 CURVE",
"408 545 OFFCURVE",
"330 619 OFFCURVE",
"255 619 CURVE SMOOTH",
"178 619 OFFCURVE",
"46 532 OFFCURVE",
"46 472 CURVE SMOOTH",
"46 432 OFFCURVE",
"81 400 OFFCURVE",
"115 369 CURVE",
"85 348 OFFCURVE",
"13 307 OFFCURVE",
"13 276 CURVE SMOOTH",
"13 213 OFFCURVE",
"129 95 OFFCURVE",
"218 95 CURVE SMOOTH",
"276 95 OFFCURVE",
"397 183 OFFCURVE",
"456 262 CURVE",
"475 247 LINE",
"437 196 OFFCURVE",
"397 141 OFFCURVE",
"397 118 CURVE SMOOTH",
"397 79 OFFCURVE",
"509 -1 OFFCURVE",
"553 -1 CURVE SMOOTH",
"635 -1 OFFCURVE",
"825 132 OFFCURVE",
"825 191 CURVE SMOOTH",
"825 247 OFFCURVE",
"759 298 OFFCURVE",
"704 312 CURVE",
"666 267 OFFCURVE",
"629 222 OFFCURVE",
"587 197 CURVE",
"629 322 OFFCURVE",
"708 457 OFFCURVE",
"708 515 CURVE SMOOTH",
"708 542 OFFCURVE",
"581 583 OFFCURVE",
"528 583 CURVE SMOOTH",
"478 583 OFFCURVE",
"475 370 OFFCURVE",
"252 248 CURVE",
"225 276 LINE",
"284 314 OFFCURVE",
"320 345 OFFCURVE",
"320 369 CURVE SMOOTH",
"320 393 OFFCURVE",
"267 410 OFFCURVE",
"248 442 CURVE",
"267 462 OFFCURVE",
"318 495 OFFCURVE",
"340 495 CURVE SMOOTH"
);
}
);
width = 855;
},
{
associatedMasterId = "AF1B7CCB-9C31-456C-8386-1D362D80AEF6";
background = {
paths = (
{
closed = 0;
nodes = (
"227 248 LINE",
"200 276 LINE",
"259 314 OFFCURVE",
"295 345 OFFCURVE",
"295 369 CURVE SMOOTH",
"295 393 OFFCURVE",
"242 410 OFFCURVE",
"223 442 CURVE",
"242 462 OFFCURVE",
"293 495 OFFCURVE",
"315 495 CURVE SMOOTH",
"339 495 OFFCURVE",
"366 480 OFFCURVE",
"384 469 CURVE",
"402 478 OFFCURVE",
"411 489 OFFCURVE",
"413 501 CURVE",
"383 545 OFFCURVE",
"305 619 OFFCURVE",
"230 619 CURVE SMOOTH",
"153 619 OFFCURVE",
"21 532 OFFCURVE",
"21 472 CURVE SMOOTH",
"21 432 OFFCURVE",
"56 400 OFFCURVE",
"90 369 CURVE",
"60 348 OFFCURVE",
"-12 307 OFFCURVE",
"-12 276 CURVE SMOOTH",
"-12 213 OFFCURVE",
"104 95 OFFCURVE",
"193 95 CURVE SMOOTH",
"251 95 OFFCURVE",
"372 183 OFFCURVE",
"431 262 CURVE",
"450 247 LINE",
"412 196 OFFCURVE",
"372 141 OFFCURVE",
"372 118 CURVE SMOOTH",
"372 82 OFFCURVE",
"480 0 OFFCURVE",
"530 0 CURVE SMOOTH",
"591 0 OFFCURVE",
"800 122 OFFCURVE",
"800 193 CURVE SMOOTH",
"800 237 OFFCURVE",
"748 293 OFFCURVE",
"679 312 CURVE",
"636 257 OFFCURVE",
"598 208 OFFCURVE",
"541 175 CURVE",
"589 315 OFFCURVE",
"663 471 OFFCURVE",
"663 522 CURVE SMOOTH",
"663 551 OFFCURVE",
"546 583 OFFCURVE",
"503 583 CURVE SMOOTH",
"449 583 OFFCURVE",
"471 341 OFFCURVE",
"176 214 CURVE"
);
}
);
};
layerId = "E55573F4-5048-4817-9653-D4D6979DF420";
name = "Bold Italic Jul 13 15, 18:16";
paths = (
{
closed = 1;
nodes = (
"200 276 LINE",
"259 314 OFFCURVE",
"295 345 OFFCURVE",
"295 369 CURVE SMOOTH",
"295 393 OFFCURVE",
"242 410 OFFCURVE",
"223 442 CURVE",
"242 462 OFFCURVE",
"293 495 OFFCURVE",
"315 495 CURVE SMOOTH",
"339 495 OFFCURVE",
"358 484 OFFCURVE",
"376 473 CURVE",
"394 482 OFFCURVE",
"403 493 OFFCURVE",
"405 505 CURVE",
"375 549 OFFCURVE",
"305 619 OFFCURVE",
"230 619 CURVE SMOOTH",
"153 619 OFFCURVE",
"41 542 OFFCURVE",
"41 492 CURVE SMOOTH",
"41 448 OFFCURVE",
"86 405 OFFCURVE",
"120 379 CURVE",
"90 358 OFFCURVE",
"2 310 OFFCURVE",
"2 272 CURVE SMOOTH",
"2 216 OFFCURVE",
"104 95 OFFCURVE",
"193 95 CURVE SMOOTH",
"251 95 OFFCURVE",
"372 183 OFFCURVE",
"431 262 CURVE",
"450 247 LINE",
"412 196 OFFCURVE",
"372 141 OFFCURVE",
"372 118 CURVE SMOOTH",
"372 82 OFFCURVE",
"480 0 OFFCURVE",
"530 0 CURVE SMOOTH",
"591 0 OFFCURVE",
"800 122 OFFCURVE",
"800 193 CURVE SMOOTH",
"800 237 OFFCURVE",
"748 293 OFFCURVE",
"679 312 CURVE",
"636 257 OFFCURVE",
"598 208 OFFCURVE",
"541 175 CURVE",
"589 315 OFFCURVE",
"663 471 OFFCURVE",
"663 522 CURVE SMOOTH",
"663 551 OFFCURVE",
"546 583 OFFCURVE",
"503 583 CURVE SMOOTH",
"453 583 OFFCURVE",
"468 372 OFFCURVE",
"233 242 CURVE"
);
}
);
width = 857;
},
{
associatedMasterId = "AF1B7CCB-9C31-456C-8386-1D362D80AEF6";
background = {
paths = (
{
closed = 1;
nodes = (
"210 276 LINE",
"269 314 OFFCURVE",
"305 345 OFFCURVE",
"305 369 CURVE SMOOTH",
"305 393 OFFCURVE",
"257 406 OFFCURVE",
"233 442 CURVE",
"269 473 OFFCURVE",
"324 490 OFFCURVE",
"363 493 CURVE",
"381 557 OFFCURVE",
"359 612 OFFCURVE",
"280 619 CURVE",
"160 606 OFFCURVE",
"57 522 OFFCURVE",
"57 476 CURVE SMOOTH",
"57 442 OFFCURVE",
"99 403 OFFCURVE",
"130 379 CURVE",
"100 358 OFFCURVE",
"12 310 OFFCURVE",
"12 272 CURVE SMOOTH",
"12 216 OFFCURVE",
"114 95 OFFCURVE",
"203 95 CURVE SMOOTH",
"261 95 OFFCURVE",
"382 183 OFFCURVE",
"441 262 CURVE",
"460 247 LINE",
"422 196 OFFCURVE",
"382 141 OFFCURVE",
"382 118 CURVE SMOOTH",
"382 82 OFFCURVE",
"490 0 OFFCURVE",
"540 0 CURVE SMOOTH",
"601 0 OFFCURVE",
"810 122 OFFCURVE",
"810 193 CURVE SMOOTH",
"810 237 OFFCURVE",
"758 293 OFFCURVE",
"689 312 CURVE",
"646 257 OFFCURVE",
"608 208 OFFCURVE",
"551 175 CURVE",
"599 315 OFFCURVE",
"673 471 OFFCURVE",
"673 522 CURVE SMOOTH",
"673 551 OFFCURVE",
"556 583 OFFCURVE",
"513 583 CURVE SMOOTH",
"463 583 OFFCURVE",
"478 372 OFFCURVE",
"243 242 CURVE"
);
}
);
};
layerId = "A2FE3AD3-CFF2-4704-8EAD-FC75D50B070F";
name = equal;
paths = (
{
closed = 1;
nodes = (
"460 247 LINE",
"422 196 OFFCURVE",
"382 141 OFFCURVE",
"382 118 CURVE SMOOTH",
"382 82 OFFCURVE",
"490 0 OFFCURVE",
"540 0 CURVE SMOOTH",
"601 0 OFFCURVE",
"810 122 OFFCURVE",
"810 193 CURVE SMOOTH",
"810 237 OFFCURVE",
"758 293 OFFCURVE",
"689 312 CURVE",
"646 257 OFFCURVE",
"608 208 OFFCURVE",
"551 175 CURVE",
"599 315 OFFCURVE",
"679 480 OFFCURVE",
"679 541 CURVE SMOOTH",
"679 570 OFFCURVE",
"562 602 OFFCURVE",
"519 602 CURVE SMOOTH",
"465 602 OFFCURVE",
"491 382 OFFCURVE",
"243 242 CURVE",
"210 276 LINE",
"269 314 OFFCURVE",
"305 345 OFFCURVE",
"305 369 CURVE SMOOTH",
"305 393 OFFCURVE",
"257 406 OFFCURVE",
"233 442 CURVE",
"269 473 OFFCURVE",
"324 490 OFFCURVE",
"363 493 CURVE",
"381 557 OFFCURVE",
"359 612 OFFCURVE",
"280 619 CURVE",
"160 606 OFFCURVE",
"57 522 OFFCURVE",
"57 476 CURVE SMOOTH",
"57 442 OFFCURVE",
"99 403 OFFCURVE",
"130 379 CURVE",
"100 358 OFFCURVE",
"12 310 OFFCURVE",
"12 272 CURVE SMOOTH",
"12 216 OFFCURVE",
"114 95 OFFCURVE",
"203 95 CURVE SMOOTH",
"261 95 OFFCURVE",
"382 183 OFFCURVE",
"441 262 CURVE"
);
}
);
width = 867;
}
);
rightMetricsKey = gjmAA;
unicode = 0A98;
},
{
glyphname = gjNGA;
lastChange = "2015-07-20 08:02:04 +0000";
layers = (
{
background = {
components = (
{
{
name = gjDDA;
}}
);
paths = (
{
closed = 1;
nodes = (
"457 358 OFFCURVE",
"537 339 OFFCURVE",
"583 339 CURVE SMOOTH",
"619 339 OFFCURVE",
"643 412 OFFCURVE",
"643 444 CURVE SMOOTH",
"643 470 OFFCURVE",
"558 504 OFFCURVE",
"506 504 CURVE SMOOTH",
"472 504 OFFCURVE",
"457 422 OFFCURVE",
"457 391 CURVE SMOOTH"
);
}
);
};
components = (
{
name = gjDDA;
}
);
layerId = "AF1B7CCB-9C31-456C-8386-1D362D80AEF6";
name = "Bold Italic";
paths = (
{
closed = 1;
nodes = (
"457 358 OFFCURVE",
"537 339 OFFCURVE",
"583 339 CURVE SMOOTH",
"619 339 OFFCURVE",
"643 412 OFFCURVE",
"643 444 CURVE SMOOTH",
"643 470 OFFCURVE",
"558 504 OFFCURVE",
"506 504 CURVE SMOOTH",
"472 504 OFFCURVE",
"457 422 OFFCURVE",
"457 391 CURVE SMOOTH"
);
}
);
width = 629;
}
);
unicode = 0A99;
},
{
glyphname = gjCA;
lastChange = "2015-07-17 13:06:32 +0000";
layers = (
{
background = {
paths = (
{
closed = 1;
nodes = (
"537 583 OFFCURVE",
"559 341 OFFCURVE",
"264 214 CURVE",
"237 245 LINE",
"376 309 OFFCURVE",
"487 433 OFFCURVE",
"487 495 CURVE SMOOTH",
"487 550 OFFCURVE",
"392 619 OFFCURVE",
"318 619 CURVE SMOOTH",
"220 619 OFFCURVE",
"82 576 OFFCURVE",
"82 510 CURVE SMOOTH",
"82 465 OFFCURVE",
"108 431 OFFCURVE",
"155 398 CURVE",
"211 436 OFFCURVE",
"265 458 OFFCURVE",
"335 480 CURVE",
"262 354 OFFCURVE",
"64 325 OFFCURVE",
"64 258 CURVE SMOOTH",
"64 197 OFFCURVE",
"152 98 OFFCURVE",
"225 98 CURVE SMOOTH",
"322 98 OFFCURVE",
"451 177 OFFCURVE",
"519 262 CURVE",
"538 247 LINE",
"500 196 OFFCURVE",
"460 141 OFFCURVE",
"460 118 CURVE SMOOTH",
"460 82 OFFCURVE",
"568 0 OFFCURVE",
"618 0 CURVE SMOOTH",
"679 0 OFFCURVE",
"888 122 OFFCURVE",
"888 193 CURVE SMOOTH",
"888 237 OFFCURVE",
"836 293 OFFCURVE",
"767 312 CURVE",
"724 257 OFFCURVE",
"686 208 OFFCURVE",
"629 175 CURVE",
"677 315 OFFCURVE",
"751 471 OFFCURVE",
"751 522 CURVE SMOOTH",
"751 551 OFFCURVE",
"634 583 OFFCURVE",
"591 583 CURVE SMOOTH"
);
}
);
};
layerId = "AF1B7CCB-9C31-456C-8386-1D362D80AEF6";
name = "Bold Italic";
paths = (
{
closed = 1;
nodes = (
"500 196 OFFCURVE",
"460 141 OFFCURVE",
"460 118 CURVE SMOOTH",
"460 82 OFFCURVE",
"568 0 OFFCURVE",
"618 0 CURVE SMOOTH",
"679 0 OFFCURVE",
"888 122 OFFCURVE",
"888 193 CURVE SMOOTH",
"888 237 OFFCURVE",
"836 293 OFFCURVE",
"767 312 CURVE",
"724 257 OFFCURVE",
"686 208 OFFCURVE",
"629 175 CURVE",
"677 315 OFFCURVE",
"751 471 OFFCURVE",
"751 522 CURVE SMOOTH",
"751 551 OFFCURVE",
"634 583 OFFCURVE",
"591 583 CURVE SMOOTH",
"537 583 OFFCURVE",
"559 341 OFFCURVE",
"264 214 CURVE",
"237 245 LINE",
"365 302 OFFCURVE",
"487 430 OFFCURVE",
"487 494 CURVE SMOOTH",
"487 552 OFFCURVE",
"387 619 OFFCURVE",
"318 619 CURVE SMOOTH",
"208 619 OFFCURVE",
"81 581 OFFCURVE",
"81 510 CURVE SMOOTH",
"81 470 OFFCURVE",
"107 436 OFFCURVE",
"154 403 CURVE",
"210 441 OFFCURVE",
"253 458 OFFCURVE",
"335 480 CURVE",
"296 411 OFFCURVE",
"195 354 OFFCURVE",
"116 322 CURVE",
"135 312 LINE",
"113 362 OFFCURVE",
"85 414 OFFCURVE",
"52 415 CURVE SMOOTH",
"9 416 OFFCURVE",
"-53 365 OFFCURVE",
"-53 333 CURVE SMOOTH",
"-54 297 OFFCURVE",
"11 214 OFFCURVE",
"50 213 CURVE SMOOTH",
"76 212 OFFCURVE",
"97 226 OFFCURVE",
"118 239 CURVE",
"81 239 LINE",
"110 170 OFFCURVE",
"172 91 OFFCURVE",
"248 91 CURVE SMOOTH",
"343 91 OFFCURVE",
"475 198 OFFCURVE",
"519 262 CURVE",
"538 247 LINE"
);
}
);
width = 920;
},
{
associatedMasterId = "AF1B7CCB-9C31-456C-8386-1D362D80AEF6";
background = {
paths = (
{
closed = 1;
nodes = (
"336 239 LINE",
"462 306 OFFCURVE",
"556 421 OFFCURVE",
"556 494 CURVE SMOOTH",
"556 558 OFFCURVE",
"432 617 OFFCURVE",
"356 617 CURVE SMOOTH",
"260 617 OFFCURVE",
"153 557 OFFCURVE",
"153 498 CURVE SMOOTH",
"153 447 OFFCURVE",
"209 398 OFFCURVE",
"265 378 CURVE",
"305 410 OFFCURVE",
"349 439 OFFCURVE",
"387 451 CURVE",
"353 394 OFFCURVE",
"262 350 OFFCURVE",
"197 325 CURVE",
"172 367 OFFCURVE",
"146 399 OFFCURVE",
"114 395 CURVE SMOOTH",
"81 393 OFFCURVE",
"52 378 OFFCURVE",
"16 347 CURVE",
"41 298 OFFCURVE",
"77 203 OFFCURVE",
"122 203 CURVE SMOOTH",
"144 204 OFFCURVE",
"151 209 OFFCURVE",
"166 218 CURVE",
"216 148 OFFCURVE",
"253 90 OFFCURVE",
"333 90 CURVE SMOOTH",
"418 90 OFFCURVE",
"537 191 OFFCURVE",
"593 261 CURVE",
"605 252 LINE",
"567 201 OFFCURVE",
"527 146 OFFCURVE",
"527 123 CURVE SMOOTH",
"527 84 OFFCURVE",
"644 -1 OFFCURVE",
"688 -1 CURVE SMOOTH",
"770 -1 OFFCURVE",
"960 132 OFFCURVE",
"960 191 CURVE SMOOTH",
"960 247 OFFCURVE",
"899 296 OFFCURVE",
"823 316 CURVE",
"793 276 OFFCURVE",
"752 235 OFFCURVE",
"710 210 CURVE",
"748 308 OFFCURVE",
"843 451 OFFCURVE",
"843 515 CURVE SMOOTH",
"843 537 OFFCURVE",
"726 583 OFFCURVE",
"659 583 CURVE SMOOTH",
"619 583 OFFCURVE",
"586 332 OFFCURVE",
"346 225 CURVE"
);
}
);
};
layerId = "21E9D99C-85F8-4798-8106-EAF9BA037F3E";
name = bolder;
paths = (
{
closed = 1;
nodes = (
"362 401 OFFCURVE",
"267 350 OFFCURVE",
"201 329 CURVE",
"176 374 OFFCURVE",
"155 414 OFFCURVE",
"124 414 CURVE SMOOTH",
"81 414 OFFCURVE",
"20 362 OFFCURVE",
"20 330 CURVE SMOOTH",
"20 297 OFFCURVE",
"86 212 OFFCURVE",
"126 212 CURVE SMOOTH",
"141 212 OFFCURVE",
"153 215 OFFCURVE",
"165 220 CURVE",
"199 168 OFFCURVE",
"249 90 OFFCURVE",
"333 90 CURVE SMOOTH",
"418 90 OFFCURVE",
"537 191 OFFCURVE",
"593 261 CURVE",
"605 252 LINE",
"567 201 OFFCURVE",
"527 146 OFFCURVE",
"527 123 CURVE SMOOTH",
"527 84 OFFCURVE",
"644 -1 OFFCURVE",
"688 -1 CURVE SMOOTH",
"770 -1 OFFCURVE",
"960 132 OFFCURVE",
"960 191 CURVE SMOOTH",
"960 247 OFFCURVE",
"899 296 OFFCURVE",
"823 316 CURVE",
"793 276 OFFCURVE",
"752 235 OFFCURVE",
"710 210 CURVE",
"748 308 OFFCURVE",
"843 451 OFFCURVE",
"843 515 CURVE SMOOTH",
"843 537 OFFCURVE",
"726 583 OFFCURVE",
"659 583 CURVE SMOOTH",
"619 583 OFFCURVE",
"586 332 OFFCURVE",
"346 225 CURVE",
"336 239 LINE",
"462 306 OFFCURVE",
"556 421 OFFCURVE",
"556 494 CURVE SMOOTH",
"556 556 OFFCURVE",
"448 619 OFFCURVE",
"369 619 CURVE SMOOTH",
"278 619 OFFCURVE",
"148 573 OFFCURVE",
"148 510 CURVE SMOOTH",
"148 460 OFFCURVE",
"193 413 OFFCURVE",
"250 386 CURVE",
"301 420 OFFCURVE",
"350 443 OFFCURVE",
"388 456 CURVE"
);
}
);
width = 940;
},
{
associatedMasterId = "AF1B7CCB-9C31-456C-8386-1D362D80AEF6";
background = {
paths = (
{
closed = 1;
nodes = (
"192 312 LINE",
"170 362 OFFCURVE",
"142 414 OFFCURVE",
"109 415 CURVE SMOOTH",
"66 416 OFFCURVE",
"4 365 OFFCURVE",
"4 333 CURVE SMOOTH",
"3 297 OFFCURVE",
"68 214 OFFCURVE",
"107 213 CURVE SMOOTH",
"133 212 OFFCURVE",
"154 226 OFFCURVE",
"175 239 CURVE",
"138 239 LINE",
"167 170 OFFCURVE",
"229 91 OFFCURVE",
"305 91 CURVE SMOOTH",
"400 91 OFFCURVE",
"532 198 OFFCURVE",
"576 262 CURVE",
"595 247 LINE",
"557 196 OFFCURVE",
"517 141 OFFCURVE",
"517 118 CURVE SMOOTH",
"517 79 OFFCURVE",
"629 -1 OFFCURVE",
"673 -1 CURVE SMOOTH",
"755 -1 OFFCURVE",
"945 132 OFFCURVE",
"945 191 CURVE SMOOTH",
"945 247 OFFCURVE",
"879 298 OFFCURVE",
"824 312 CURVE",
"786 267 OFFCURVE",
"749 222 OFFCURVE",
"707 197 CURVE",
"749 322 OFFCURVE",
"828 457 OFFCURVE",
"828 515 CURVE SMOOTH",
"828 542 OFFCURVE",
"701 583 OFFCURVE",
"648 583 CURVE SMOOTH",
"594 583 OFFCURVE",
"604 344 OFFCURVE",
"317 225 CURVE",
"304 243 LINE",
"426 305 OFFCURVE",
"547 426 OFFCURVE",
"547 494 CURVE SMOOTH",
"547 556 OFFCURVE",
"449 619 OFFCURVE",
"375 619 CURVE SMOOTH",
"277 619 OFFCURVE",
"139 576 OFFCURVE",
"139 510 CURVE SMOOTH",
"139 460 OFFCURVE",
"179 411 OFFCURVE",
"236 386 CURVE",
"282 416 OFFCURVE",
"335 438 OFFCURVE",
"389 456 CURVE",
"346 399 OFFCURVE",
"244 350 OFFCURVE",
"173 322 CURVE"
);
}
);
};
layerId = "2B896F24-F618-49C5-B4A0-84B674008ACB";
name = "Bold Italic Jul 10 15, 20:48";
paths = (
{
closed = 1;
nodes = (
"192 312 LINE",
"170 362 OFFCURVE",
"142 414 OFFCURVE",
"109 415 CURVE SMOOTH",
"66 416 OFFCURVE",
"4 365 OFFCURVE",
"4 333 CURVE SMOOTH",
"3 297 OFFCURVE",
"68 214 OFFCURVE",
"107 213 CURVE SMOOTH",
"133 212 OFFCURVE",
"154 226 OFFCURVE",
"175 239 CURVE",
"138 239 LINE",
"167 170 OFFCURVE",
"229 91 OFFCURVE",
"305 91 CURVE SMOOTH",
"400 91 OFFCURVE",
"532 198 OFFCURVE",
"576 262 CURVE",
"595 247 LINE",
"557 196 OFFCURVE",
"517 141 OFFCURVE",
"517 118 CURVE SMOOTH",
"517 79 OFFCURVE",
"629 -1 OFFCURVE",
"673 -1 CURVE SMOOTH",
"755 -1 OFFCURVE",
"945 132 OFFCURVE",
"945 191 CURVE SMOOTH",
"945 247 OFFCURVE",
"879 298 OFFCURVE",
"824 312 CURVE",
"786 267 OFFCURVE",
"749 222 OFFCURVE",
"707 197 CURVE",
"749 322 OFFCURVE",
"828 457 OFFCURVE",
"828 515 CURVE SMOOTH",
"828 542 OFFCURVE",
"701 583 OFFCURVE",
"648 583 CURVE SMOOTH",
"594 583 OFFCURVE",
"604 344 OFFCURVE",
"317 225 CURVE",
"304 243 LINE",
"422 304 OFFCURVE",
"545 424 OFFCURVE",
"545 485 CURVE SMOOTH",
"545 545 OFFCURVE",
"437 619 OFFCURVE",
"363 619 CURVE SMOOTH",
"265 619 OFFCURVE",
"138 581 OFFCURVE",
"138 515 CURVE SMOOTH",
"138 470 OFFCURVE",
"164 436 OFFCURVE",
"211 403 CURVE",
"267 441 OFFCURVE",
"310 458 OFFCURVE",
"380 480 CURVE",
"324 400 OFFCURVE",
"252 354 OFFCURVE",
"173 322 CURVE"
);
}
);
width = 975;
},
{
associatedMasterId = "AF1B7CCB-9C31-456C-8386-1D362D80AEF6";
background = {
paths = (
{
closed = 1;
nodes = (
"540 196 OFFCURVE",
"500 141 OFFCURVE",
"500 118 CURVE SMOOTH",
"500 82 OFFCURVE",
"608 0 OFFCURVE",
"658 0 CURVE SMOOTH",
"719 0 OFFCURVE",
"928 122 OFFCURVE",
"928 193 CURVE SMOOTH",
"928 237 OFFCURVE",
"876 293 OFFCURVE",
"807 312 CURVE",
"764 257 OFFCURVE",
"726 208 OFFCURVE",
"669 175 CURVE",
"717 315 OFFCURVE",
"791 471 OFFCURVE",
"791 522 CURVE SMOOTH",
"791 551 OFFCURVE",
"674 583 OFFCURVE",
"631 583 CURVE SMOOTH",
"577 583 OFFCURVE",
"599 341 OFFCURVE",
"304 214 CURVE",
"277 245 LINE",
"405 302 OFFCURVE",
"527 430 OFFCURVE",
"527 494 CURVE SMOOTH",
"527 552 OFFCURVE",
"427 619 OFFCURVE",
"358 619 CURVE SMOOTH",
"248 619 OFFCURVE",
"121 581 OFFCURVE",
"121 510 CURVE SMOOTH",
"121 470 OFFCURVE",
"147 436 OFFCURVE",
"194 403 CURVE",
"250 441 OFFCURVE",
"293 458 OFFCURVE",
"375 480 CURVE",
"336 411 OFFCURVE",
"235 354 OFFCURVE",
"156 322 CURVE",
"175 312 LINE",
"153 362 OFFCURVE",
"125 414 OFFCURVE",
"92 415 CURVE SMOOTH",
"49 416 OFFCURVE",
"-13 365 OFFCURVE",
"-13 333 CURVE SMOOTH",
"-14 297 OFFCURVE",
"51 214 OFFCURVE",
"90 213 CURVE SMOOTH",
"116 212 OFFCURVE",
"137 226 OFFCURVE",
"158 239 CURVE",
"121 239 LINE",
"150 170 OFFCURVE",
"212 91 OFFCURVE",
"288 91 CURVE SMOOTH",
"383 91 OFFCURVE",
"515 198 OFFCURVE",
"559 262 CURVE",
"578 247 LINE"
);
}
);
};
layerId = "92287F64-0B2D-4FB7-AFF5-D2252B22DCF4";
name = equal;
paths = (
{
closed = 1;
nodes = (
"578 247 LINE",
"540 196 OFFCURVE",
"500 141 OFFCURVE",
"500 118 CURVE SMOOTH",
"500 82 OFFCURVE",
"608 0 OFFCURVE",
"658 0 CURVE SMOOTH",
"719 0 OFFCURVE",
"928 122 OFFCURVE",
"928 193 CURVE SMOOTH",
"928 237 OFFCURVE",
"876 293 OFFCURVE",
"807 312 CURVE",
"764 257 OFFCURVE",
"726 208 OFFCURVE",
"669 175 CURVE",
"717 315 OFFCURVE",
"797 480 OFFCURVE",
"797 541 CURVE SMOOTH",
"797 570 OFFCURVE",
"680 602 OFFCURVE",
"637 602 CURVE SMOOTH",
"579 602 OFFCURVE",
"612 349 OFFCURVE",
"304 214 CURVE",
"277 245 LINE",
"405 302 OFFCURVE",
"527 430 OFFCURVE",
"527 494 CURVE SMOOTH",
"527 552 OFFCURVE",
"427 619 OFFCURVE",
"358 619 CURVE SMOOTH",
"248 619 OFFCURVE",
"121 581 OFFCURVE",
"121 510 CURVE SMOOTH",
"121 470 OFFCURVE",
"147 436 OFFCURVE",
"194 403 CURVE",
"250 441 OFFCURVE",
"293 458 OFFCURVE",
"375 480 CURVE",
"336 411 OFFCURVE",
"235 354 OFFCURVE",
"156 322 CURVE",
"175 312 LINE",
"153 362 OFFCURVE",
"125 414 OFFCURVE",
"92 415 CURVE SMOOTH",
"49 416 OFFCURVE",
"-13 365 OFFCURVE",
"-13 333 CURVE SMOOTH",
"-14 297 OFFCURVE",
"51 214 OFFCURVE",
"90 213 CURVE SMOOTH",
"116 212 OFFCURVE",
"137 226 OFFCURVE",
"158 239 CURVE",
"121 239 LINE",
"150 170 OFFCURVE",
"212 91 OFFCURVE",
"288 91 CURVE SMOOTH",
"383 91 OFFCURVE",
"515 198 OFFCURVE",
"559 262 CURVE"
);
}
);
width = 985;
}
);
leftMetricsKey = gjA;
rightMetricsKey = gjmAA;
unicode = 0A9A;
},
{
glyphname = gjCHA;
lastChange = "2015-07-17 13:13:11 +0000";
layers = (
{
background = {
paths = (
{
closed = 1;
nodes = (
"563 -200 OFFCURVE",
"772 29 OFFCURVE",
"772 133 CURVE SMOOTH",
"772 186 OFFCURVE",
"662 186 OFFCURVE",
"593 252 CURVE",
"651 320 OFFCURVE",
"693 388 OFFCURVE",
"693 431 CURVE SMOOTH",
"693 467 OFFCURVE",
"577 543 OFFCURVE",
"546 543 CURVE SMOOTH",
"516 543 OFFCURVE",
"399 406 OFFCURVE",
"399 362 CURVE SMOOTH",
"399 337 OFFCURVE",
"430 307 OFFCURVE",
"455 290 CURVE",
"390 225 OFFCURVE",
"338 194 OFFCURVE",
"208 141 CURVE",
"184 171 LINE",
"248 215 OFFCURVE",
"335 301 OFFCURVE",
"335 334 CURVE SMOOTH",
"335 359 OFFCURVE",
"266 376 OFFCURVE",
"214 417 CURVE",
"252 466 OFFCURVE",
"310 489 OFFCURVE",
"363 493 CURVE",
"378 543 OFFCURVE",
"371 608 OFFCURVE",
"280 619 CURVE",
"180 615 OFFCURVE",
"39 502 OFFCURVE",
"39 454 CURVE SMOOTH",
"39 416 OFFCURVE",
"98 365 OFFCURVE",
"151 336 CURVE",
"80 288 OFFCURVE",
"-22 222 OFFCURVE",
"-22 189 CURVE SMOOTH",
"-22 115 OFFCURVE",
"127 -1 OFFCURVE",
"221 -1 CURVE SMOOTH",
"329 -1 OFFCURVE",
"466 112 OFFCURVE",
"536 190 CURVE",
"560 174 OFFCURVE",
"584 159 OFFCURVE",
"608 148 CURVE",
"527 43 OFFCURVE",
"460 -2 OFFCURVE",
"310 -69 CURVE",
"310 -133 OFFCURVE",
"359 -202 OFFCURVE",
"440 -201 CURVE SMOOTH"
);
}
);
};
layerId = "AF1B7CCB-9C31-456C-8386-1D362D80AEF6";
name = "Bold Italic";
paths = (
{
closed = 1;
nodes = (
"583 -200 OFFCURVE",
"765 28 OFFCURVE",
"765 122 CURVE SMOOTH",
"765 175 OFFCURVE",
"654 195 OFFCURVE",
"590 266 CURVE",
"653 330 OFFCURVE",
"707 400 OFFCURVE",
"707 443 CURVE SMOOTH",
"707 479 OFFCURVE",
"604 553 OFFCURVE",
"573 555 CURVE SMOOTH",
"543 557 OFFCURVE",
"413 426 OFFCURVE",
"413 386 CURVE SMOOTH",
"413 361 OFFCURVE",
"444 319 OFFCURVE",
"469 302 CURVE",
"404 237 OFFCURVE",
"358 194 OFFCURVE",
"228 141 CURVE",
"204 171 LINE",
"279 219 OFFCURVE",
"356 293 OFFCURVE",
"356 324 CURVE SMOOTH",
"356 355 OFFCURVE",
"282 361 OFFCURVE",
"232 404 CURVE",
"269 449 OFFCURVE",
"335 481 OFFCURVE",
"394 490 CURVE",
"411 539 OFFCURVE",
"400 606 OFFCURVE",
"322 619 CURVE",
"216 619 OFFCURVE",
"57 493 OFFCURVE",
"58 445 CURVE SMOOTH",
"59 406 OFFCURVE",
"117 360 OFFCURVE",
"175 326 CURVE",
"105 276 OFFCURVE",
"-2 222 OFFCURVE",
"-2 189 CURVE SMOOTH",
"-2 115 OFFCURVE",
"147 -1 OFFCURVE",
"241 -1 CURVE SMOOTH",
"349 -1 OFFCURVE",
"459 124 OFFCURVE",
"535 197 CURVE",
"557 179 OFFCURVE",
"580 162 OFFCURVE",
"603 149 CURVE",
"541 51 OFFCURVE",
"480 -2 OFFCURVE",
"330 -69 CURVE",
"330 -133 OFFCURVE",
"379 -202 OFFCURVE",
"460 -201 CURVE SMOOTH"
);
}
);
width = 810;
},
{
associatedMasterId = "AF1B7CCB-9C31-456C-8386-1D362D80AEF6";
background = {
paths = (
{
closed = 1;
nodes = (
"697 318 OFFCURVE",
"769 406 OFFCURVE",
"769 456 CURVE SMOOTH",
"769 490 OFFCURVE",
"650 565 OFFCURVE",
"613 565 CURVE SMOOTH",
"573 565 OFFCURVE",
"482 420 OFFCURVE",
"473 378 CURVE SMOOTH",
"468 355 OFFCURVE",
"496 324 OFFCURVE",
"523 309 CURVE",
"456 242 OFFCURVE",
"374 187 OFFCURVE",
"261 146 CURVE",
"232 173 LINE",
"300 220 OFFCURVE",
"392 304 OFFCURVE",
"392 334 CURVE SMOOTH",
"392 357 OFFCURVE",
"326 380 OFFCURVE",
"281 415 CURVE",
"311 465 OFFCURVE",
"371 495 OFFCURVE",
"394 495 CURVE SMOOTH",
"417 495 OFFCURVE",
"443 480 OFFCURVE",
"467 464 CURVE",
"496 496 LINE",
"464 544 OFFCURVE",
"384 619 OFFCURVE",
"309 619 CURVE SMOOTH",
"232 619 OFFCURVE",
"70 516 OFFCURVE",
"70 456 CURVE SMOOTH",
"70 416 OFFCURVE",
"136 369 OFFCURVE",
"194 334 CURVE",
"149 297 OFFCURVE",
"17 234 OFFCURVE",
"17 181 CURVE SMOOTH",
"17 118 OFFCURVE",
"179 0 OFFCURVE",
"268 0 CURVE SMOOTH",
"382 0 OFFCURVE",
"523 118 OFFCURVE",
"603 208 CURVE",
"619 194 OFFCURVE",
"652 176 OFFCURVE",
"675 162 CURVE",
"613 71 OFFCURVE",
"523 -8 OFFCURVE",
"352 -67 CURVE",
"341 -137 OFFCURVE",
"384 -202 OFFCURVE",
"486 -199 CURVE SMOOTH",
"588 -195 OFFCURVE",
"813 48 OFFCURVE",
"810 139 CURVE SMOOTH",
"808 194 OFFCURVE",
"723 205 OFFCURVE",
"657 264 CURVE"
);
}
);
};
layerId = "FD4D7FC7-9FF4-4578-96B4-CA148FC0730A";
name = "Bold Italic Jul 10 15, 15:23";
paths = (
{
closed = 1;
nodes = (
"703 313 OFFCURVE",
"770 407 OFFCURVE",
"770 457 CURVE SMOOTH",
"770 491 OFFCURVE",
"649 563 OFFCURVE",
"613 565 CURVE SMOOTH",
"573 569 OFFCURVE",
"486 419 OFFCURVE",
"473 378 CURVE SMOOTH",
"466 356 OFFCURVE",
"496 326 OFFCURVE",
"523 311 CURVE",
"455 245 OFFCURVE",
"371 189 OFFCURVE",
"259 145 CURVE",
"237 171 LINE",
"305 218 OFFCURVE",
"392 304 OFFCURVE",
"392 334 CURVE SMOOTH",
"392 357 OFFCURVE",
"326 374 OFFCURVE",
"281 409 CURVE",
"306 441 OFFCURVE",
"369 495 OFFCURVE",
"394 495 CURVE SMOOTH",
"413 495 OFFCURVE",
"432 487 OFFCURVE",
"452 473 CURVE",
"481 505 LINE",
"449 553 OFFCURVE",
"384 619 OFFCURVE",
"309 619 CURVE SMOOTH",
"232 619 OFFCURVE",
"71 518 OFFCURVE",
"71 458 CURVE SMOOTH",
"71 418 OFFCURVE",
"137 371 OFFCURVE",
"195 336 CURVE",
"139 299 OFFCURVE",
"17 231 OFFCURVE",
"17 189 CURVE SMOOTH",
"17 118 OFFCURVE",
"180 -3 OFFCURVE",
"269 -1 CURVE SMOOTH",
"383 2 OFFCURVE",
"529 123 OFFCURVE",
"599 203 CURVE",
"612 189 OFFCURVE",
"643 168 OFFCURVE",
"664 152 CURVE",
"594 67 OFFCURVE",
"524 -3 OFFCURVE",
"354 -66 CURVE",
"345 -136 OFFCURVE",
"394 -200 OFFCURVE",
"486 -200 CURVE SMOOTH",
"618 -200 OFFCURVE",
"805 14 OFFCURVE",
"817 116 CURVE SMOOTH",
"823 168 OFFCURVE",
"725 196 OFFCURVE",
"657 264 CURVE"
);
}
);
width = 862;
},
{
associatedMasterId = "AF1B7CCB-9C31-456C-8386-1D362D80AEF6";
background = {
paths = (
{
closed = 1;
nodes = (
"699 321 OFFCURVE",
"772 403 OFFCURVE",
"774 453 CURVE SMOOTH",
"775 487 OFFCURVE",
"657 563 OFFCURVE",
"621 567 CURVE SMOOTH",
"581 572 OFFCURVE",
"463 429 OFFCURVE",
"462 388 CURVE SMOOTH",
"461 365 OFFCURVE",
"492 335 OFFCURVE",
"520 315 CURVE",
"448 245 OFFCURVE",
"372 189 OFFCURVE",
"260 145 CURVE",
"238 171 LINE",
"306 218 OFFCURVE",
"393 304 OFFCURVE",
"393 334 CURVE SMOOTH",
"393 357 OFFCURVE",
"327 374 OFFCURVE",
"282 409 CURVE",
"307 441 OFFCURVE",
"370 495 OFFCURVE",
"395 495 CURVE SMOOTH",
"414 495 OFFCURVE",
"433 487 OFFCURVE",
"453 473 CURVE",
"482 505 LINE",
"450 553 OFFCURVE",
"385 619 OFFCURVE",
"310 619 CURVE SMOOTH",
"233 619 OFFCURVE",
"72 518 OFFCURVE",
"72 458 CURVE SMOOTH",
"72 418 OFFCURVE",
"138 371 OFFCURVE",
"196 336 CURVE",
"140 299 OFFCURVE",
"18 231 OFFCURVE",
"18 189 CURVE SMOOTH",
"18 118 OFFCURVE",
"181 -3 OFFCURVE",
"270 -1 CURVE SMOOTH",
"381 2 OFFCURVE",
"530 128 OFFCURVE",
"602 205 CURVE",
"616 192 OFFCURVE",
"648 173 OFFCURVE",
"670 158 CURVE",
"605 69 OFFCURVE",
"525 -3 OFFCURVE",
"355 -66 CURVE",
"346 -136 OFFCURVE",
"395 -200 OFFCURVE",
"487 -200 CURVE SMOOTH",
"619 -200 OFFCURVE",
"819 29 OFFCURVE",
"825 131 CURVE SMOOTH",
"828 184 OFFCURVE",
"728 206 OFFCURVE",
"656 269 CURVE"
);
}
);
};
layerId = "68820972-C60A-4BFF-8688-F74EF2850042";
name = "Bold Italic Jul 10 15, 16:56";
paths = (
{
closed = 1;
nodes = (
"714 326 OFFCURVE",
"772 403 OFFCURVE",
"774 453 CURVE SMOOTH",
"775 487 OFFCURVE",
"657 563 OFFCURVE",
"621 567 CURVE SMOOTH",
"581 572 OFFCURVE",
"463 429 OFFCURVE",
"462 388 CURVE SMOOTH",
"461 365 OFFCURVE",
"492 335 OFFCURVE",
"520 315 CURVE",
"448 245 OFFCURVE",
"372 189 OFFCURVE",
"260 145 CURVE",
"238 171 LINE",
"306 218 OFFCURVE",
"393 304 OFFCURVE",
"393 334 CURVE SMOOTH",
"393 357 OFFCURVE",
"327 374 OFFCURVE",
"282 409 CURVE",
"307 441 OFFCURVE",
"370 495 OFFCURVE",
"395 495 CURVE SMOOTH",
"414 495 OFFCURVE",
"433 487 OFFCURVE",
"453 473 CURVE",
"482 505 LINE",
"450 553 OFFCURVE",
"385 619 OFFCURVE",
"310 619 CURVE SMOOTH",
"233 619 OFFCURVE",
"72 518 OFFCURVE",
"72 458 CURVE SMOOTH",
"72 418 OFFCURVE",
"138 371 OFFCURVE",
"196 336 CURVE",
"140 299 OFFCURVE",
"18 231 OFFCURVE",
"18 189 CURVE SMOOTH",
"18 118 OFFCURVE",
"181 -3 OFFCURVE",
"270 -1 CURVE SMOOTH",
"384 2 OFFCURVE",
"544 140 OFFCURVE",
"612 214 CURVE",
"626 200 OFFCURVE",
"649 187 OFFCURVE",
"670 171 CURVE",
"585 64 OFFCURVE",
"502 -3 OFFCURVE",
"355 -66 CURVE",
"349 -119 OFFCURVE",
"397 -200 OFFCURVE",
"487 -200 CURVE SMOOTH",
"619 -200 OFFCURVE",
"822 29 OFFCURVE",
"832 130 CURVE SMOOTH",
"837 183 OFFCURVE",
"738 209 OFFCURVE",
"669 275 CURVE"
);
}
);
width = 879;
},
{
associatedMasterId = "AF1B7CCB-9C31-456C-8386-1D362D80AEF6";
background = {
paths = (
{
closed = 1;
nodes = (
"714 326 OFFCURVE",
"772 403 OFFCURVE",
"774 453 CURVE SMOOTH",
"775 487 OFFCURVE",
"657 563 OFFCURVE",
"621 567 CURVE SMOOTH",
"581 572 OFFCURVE",
"463 429 OFFCURVE",
"462 388 CURVE SMOOTH",
"461 365 OFFCURVE",
"492 335 OFFCURVE",
"520 315 CURVE",
"448 245 OFFCURVE",
"372 189 OFFCURVE",
"260 145 CURVE",
"238 171 LINE",
"306 218 OFFCURVE",
"393 304 OFFCURVE",
"393 334 CURVE SMOOTH",
"393 357 OFFCURVE",
"327 374 OFFCURVE",
"282 409 CURVE",
"307 441 OFFCURVE",
"370 495 OFFCURVE",
"395 495 CURVE SMOOTH",
"414 495 OFFCURVE",
"433 487 OFFCURVE",
"453 473 CURVE",
"482 505 LINE",
"450 553 OFFCURVE",
"385 619 OFFCURVE",
"310 619 CURVE SMOOTH",
"233 619 OFFCURVE",
"72 518 OFFCURVE",
"72 458 CURVE SMOOTH",
"72 418 OFFCURVE",
"138 371 OFFCURVE",
"196 336 CURVE",
"140 299 OFFCURVE",
"18 231 OFFCURVE",
"18 189 CURVE SMOOTH",
"18 118 OFFCURVE",
"181 -3 OFFCURVE",
"270 -1 CURVE SMOOTH",
"384 2 OFFCURVE",
"544 140 OFFCURVE",
"612 214 CURVE",
"626 200 OFFCURVE",
"649 187 OFFCURVE",
"670 171 CURVE",
"585 64 OFFCURVE",
"502 -3 OFFCURVE",
"355 -66 CURVE",
"349 -119 OFFCURVE",
"397 -200 OFFCURVE",
"487 -200 CURVE SMOOTH",
"619 -200 OFFCURVE",
"822 29 OFFCURVE",
"832 130 CURVE SMOOTH",
"837 183 OFFCURVE",
"738 209 OFFCURVE",
"669 275 CURVE"
);
}
);
};
layerId = "B3C84571-1F4B-43D7-A2D0-A0F80B4F1C6A";
name = "Bold Italic Jul 10 15, 21:42";
paths = (
{
closed = 1;
nodes = (
"696 302 OFFCURVE",
"754 379 OFFCURVE",
"756 429 CURVE SMOOTH",
"757 463 OFFCURVE",
"639 539 OFFCURVE",
"603 543 CURVE SMOOTH",
"563 548 OFFCURVE",
"445 405 OFFCURVE",
"444 364 CURVE SMOOTH",
"443 341 OFFCURVE",
"474 311 OFFCURVE",
"502 291 CURVE",
"430 221 OFFCURVE",
"372 189 OFFCURVE",
"260 145 CURVE",
"238 171 LINE",
"306 218 OFFCURVE",
"393 304 OFFCURVE",
"393 334 CURVE SMOOTH",
"393 357 OFFCURVE",
"328 371 OFFCURVE",
"285 409 CURVE",
"319 447 OFFCURVE",
"381 494 OFFCURVE",
"403 494 CURVE SMOOTH",
"420 494 OFFCURVE",
"436 487 OFFCURVE",
"454 477 CURVE",
"472 486 OFFCURVE",
"481 497 OFFCURVE",
"483 509 CURVE",
"453 553 OFFCURVE",
"374 619 OFFCURVE",
"301 619 CURVE SMOOTH",
"220 619 OFFCURVE",
"79 505 OFFCURVE",
"79 459 CURVE SMOOTH",
"79 419 OFFCURVE",
"138 367 OFFCURVE",
"196 336 CURVE",
"140 299 OFFCURVE",
"18 231 OFFCURVE",
"18 189 CURVE SMOOTH",
"18 118 OFFCURVE",
"181 -3 OFFCURVE",
"270 -1 CURVE SMOOTH",
"384 2 OFFCURVE",
"526 116 OFFCURVE",
"594 190 CURVE",
"608 176 OFFCURVE",
"631 163 OFFCURVE",
"652 147 CURVE",
"567 40 OFFCURVE",
"502 -3 OFFCURVE",
"355 -66 CURVE",
"349 -119 OFFCURVE",
"397 -200 OFFCURVE",
"487 -200 CURVE SMOOTH",
"619 -200 OFFCURVE",
"822 29 OFFCURVE",
"832 130 CURVE SMOOTH",
"837 183 OFFCURVE",
"720 185 OFFCURVE",
"651 251 CURVE"
);
}
);
width = 874;
},
{
associatedMasterId = "AF1B7CCB-9C31-456C-8386-1D362D80AEF6";
background = {
paths = (
{
closed = 1;
nodes = (
"603 -200 OFFCURVE",
"804 26 OFFCURVE",
"814 130 CURVE SMOOTH",
"819 183 OFFCURVE",
"705 185 OFFCURVE",
"636 251 CURVE",
"695 319 OFFCURVE",
"736 386 OFFCURVE",
"738 429 CURVE SMOOTH",
"739 466 OFFCURVE",
"624 543 OFFCURVE",
"593 543 CURVE SMOOTH",
"563 543 OFFCURVE",
"445 407 OFFCURVE",
"444 364 CURVE SMOOTH",
"443 338 OFFCURVE",
"474 308 OFFCURVE",
"498 291 CURVE",
"433 227 OFFCURVE",
"378 194 OFFCURVE",
"248 141 CURVE",
"224 171 LINE",
"288 215 OFFCURVE",
"375 301 OFFCURVE",
"375 334 CURVE SMOOTH",
"375 359 OFFCURVE",
"312 372 OFFCURVE",
"270 409 CURVE",
"308 453 OFFCURVE",
"369 494 OFFCURVE",
"394 494 CURVE SMOOTH",
"413 494 OFFCURVE",
"428 486 OFFCURVE",
"445 477 CURVE",
"461 485 OFFCURVE",
"472 496 OFFCURVE",
"474 509 CURVE",
"432 570 OFFCURVE",
"351 619 OFFCURVE",
"292 619 CURVE SMOOTH",
"221 619 OFFCURVE",
"79 511 OFFCURVE",
"79 459 CURVE SMOOTH",
"79 416 OFFCURVE",
"138 365 OFFCURVE",
"191 336 CURVE",
"120 288 OFFCURVE",
"18 222 OFFCURVE",
"18 189 CURVE SMOOTH",
"18 115 OFFCURVE",
"177 -3 OFFCURVE",
"261 -1 CURVE SMOOTH",
"369 2 OFFCURVE",
"508 113 OFFCURVE",
"578 190 CURVE",
"602 174 OFFCURVE",
"626 159 OFFCURVE",
"650 147 CURVE",
"567 43 OFFCURVE",
"501 -1 OFFCURVE",
"350 -66 CURVE",
"349 -130 OFFCURVE",
"407 -200 OFFCURVE",
"478 -200 CURVE SMOOTH"
);
}
);
};
layerId = "84FFA83A-3CCC-4F70-BA47-C43162358CCF";
name = "Bold Italic Jul 13 15, 18:23";
paths = (
{
closed = 1;
nodes = (
"603 -200 OFFCURVE",
"812 29 OFFCURVE",
"812 133 CURVE SMOOTH",
"812 186 OFFCURVE",
"702 186 OFFCURVE",
"633 252 CURVE",
"691 320 OFFCURVE",
"733 388 OFFCURVE",
"733 431 CURVE SMOOTH",
"733 467 OFFCURVE",
"617 543 OFFCURVE",
"586 543 CURVE SMOOTH",
"556 543 OFFCURVE",
"439 406 OFFCURVE",
"439 362 CURVE SMOOTH",
"439 337 OFFCURVE",
"470 307 OFFCURVE",
"495 290 CURVE",
"430 225 OFFCURVE",
"378 194 OFFCURVE",
"248 141 CURVE",
"224 171 LINE",
"288 215 OFFCURVE",
"375 301 OFFCURVE",
"375 334 CURVE SMOOTH",
"375 359 OFFCURVE",
"312 372 OFFCURVE",
"270 409 CURVE",
"308 453 OFFCURVE",
"369 494 OFFCURVE",
"394 494 CURVE SMOOTH",
"413 494 OFFCURVE",
"428 486 OFFCURVE",
"445 477 CURVE",
"461 485 OFFCURVE",
"472 496 OFFCURVE",
"474 509 CURVE",
"432 570 OFFCURVE",
"351 619 OFFCURVE",
"292 619 CURVE SMOOTH",
"221 619 OFFCURVE",
"79 511 OFFCURVE",
"79 459 CURVE SMOOTH",
"79 416 OFFCURVE",
"138 365 OFFCURVE",
"191 336 CURVE",
"120 288 OFFCURVE",
"18 222 OFFCURVE",
"18 189 CURVE SMOOTH",
"18 115 OFFCURVE",
"167 -1 OFFCURVE",
"261 -1 CURVE SMOOTH",
"369 -1 OFFCURVE",
"506 112 OFFCURVE",
"576 190 CURVE",
"600 174 OFFCURVE",
"624 159 OFFCURVE",
"648 148 CURVE",
"567 43 OFFCURVE",
"500 -2 OFFCURVE",
"350 -69 CURVE",
"350 -133 OFFCURVE",
"399 -202 OFFCURVE",
"480 -201 CURVE SMOOTH"
);
}
);
width = 875;
}
);
unicode = 0A9B;
},
{
glyphname = gjJA;
lastChange = "2015-07-22 16:53:55 +0000";
layers = (
{
associatedMasterId = "AF1B7CCB-9C31-456C-8386-1D362D80AEF6";
background = {
paths = (
{
closed = 1;
nodes = (
"382 0 OFFCURVE",
"559 94 OFFCURVE",
"559 184 CURVE SMOOTH",
"559 235 OFFCURVE",
"465 323 OFFCURVE",
"388 364 CURVE",
"329 329 LINE",
"370 287 OFFCURVE",
"391 256 OFFCURVE",
"412 207 CURVE",
"366 164 OFFCURVE",
"331 138 OFFCURVE",
"268 122 CURVE",
"330 238 OFFCURVE",
"471 390 OFFCURVE",
"631 486 CURVE",
"632 563 OFFCURVE",
"575 619 OFFCURVE",
"486 598 CURVE",
"270 415 OFFCURVE",
"96 178 OFFCURVE",
"94 114 CURVE SMOOTH",
"94 72 OFFCURVE",
"179 0 OFFCURVE",
"242 0 CURVE SMOOTH"
);
},
{
closed = 1;
nodes = (
"399 411 LINE",
"328 539 OFFCURVE",
"235 620 OFFCURVE",
"127 620 CURVE SMOOTH",
"13 620 OFFCURVE",
"-66 528 OFFCURVE",
"-66 411 CURVE SMOOTH",
"-66 349 OFFCURVE",
"-23 273 OFFCURVE",
"39 273 CURVE SMOOTH",
"157 273 OFFCURVE",
"243 400 OFFCURVE",
"268 477 CURVE",
"205 508 LINE",
"170 458 OFFCURVE",
"138 412 OFFCURVE",
"88 383 CURVE",
"67 411 OFFCURVE",
"62 455 OFFCURVE",
"62 481 CURVE",
"94 496 OFFCURVE",
"117 503 OFFCURVE",
"139 503 CURVE SMOOTH",
"208 503 OFFCURVE",
"277 441 OFFCURVE",
"340 374 CURVE"
);
}
);
};
layerId = "F980463A-224F-474D-BA9B-16EE768D299F";
name = "Bold Italic Jul 22 15, 20:23";
paths = (
{
closed = 1;
nodes = (
"345 0 OFFCURVE",
"552 79 OFFCURVE",
"552 184 CURVE SMOOTH",
"552 241 OFFCURVE",
"469 321 OFFCURVE",
"405 362 CURVE",
"344 327 LINE",
"385 282 OFFCURVE",
"406 244 OFFCURVE",
"420 200 CURVE",
"376 168 OFFCURVE",
"319 146 OFFCURVE",
"255 124 CURVE",
"327 269 OFFCURVE",
"438 395 OFFCURVE",
"606 497 CURVE",
"608 562 OFFCURVE",
"572 609 OFFCURVE",
"478 609 CURVE",
"278 460 OFFCURVE",
"85 156 OFFCURVE",
"85 119 CURVE SMOOTH",
"85 72 OFFCURVE",
"174 0 OFFCURVE",
"221 0 CURVE SMOOTH"
);
},
{
closed = 1;
nodes = (
"389 417 LINE",
"324 546 OFFCURVE",
"240 619 OFFCURVE",
"106 619 CURVE SMOOTH",
"24 619 OFFCURVE",
"-69 518 OFFCURVE",
"-69 411 CURVE SMOOTH",
"-69 343 OFFCURVE",
"-7 273 OFFCURVE",
"62 273 CURVE SMOOTH",
"150 273 OFFCURVE",
"241 406 OFFCURVE",
"257 512 CURVE",
"190 530 LINE",
"179 484 OFFCURVE",
"148 429 OFFCURVE",
"94 385 CURVE",
"70 409 OFFCURVE",
"55 446 OFFCURVE",
"54 472 CURVE",
"80 490 OFFCURVE",
"109 503 OFFCURVE",
"140 503 CURVE SMOOTH",
"208 503 OFFCURVE",
"281 443 OFFCURVE",
"341 377 CURVE"
);
}
);
width = 618;
},
{
background = {
paths = (
{
closed = 1;
nodes = (
"325 0 OFFCURVE",
"517 91 OFFCURVE",
"517 168 CURVE SMOOTH",
"517 221 OFFCURVE",
"433 300 OFFCURVE",
"323 346 CURVE",
"281 309 LINE",
"326 269 OFFCURVE",
"352 234 OFFCURVE",
"373 190 CURVE",
"346 154 OFFCURVE",
"286 116 OFFCURVE",
"213 108 CURVE",
"326 256 OFFCURVE",
"387 347 OFFCURVE",
"582 460 CURVE",
"590 543 OFFCURVE",
"553 582 OFFCURVE",
"468 597 CURVE",
"305 460 OFFCURVE",
"70 205 OFFCURVE",
"70 137 CURVE SMOOTH",
"70 100 OFFCURVE",
"152 0 OFFCURVE",
"198 0 CURVE SMOOTH"
);
},
{
closed = 1;
nodes = (
"209 504 OFFCURVE",
"297 449 OFFCURVE",
"355 370 CURVE",
"407 409 LINE",
"341 534 OFFCURVE",
"252 619 OFFCURVE",
"151 619 CURVE SMOOTH",
"40 619 OFFCURVE",
"-63 528 OFFCURVE",
"-66 418 CURVE SMOOTH",
"-67 370 OFFCURVE",
"-12 291 OFFCURVE",
"47 291 CURVE SMOOTH",
"152 291 OFFCURVE",
"237 421 OFFCURVE",
"262 507 CURVE",
"190 532 LINE",
"178 489 OFFCURVE",
"136 434 OFFCURVE",
"98 409 CURVE",
"83 421 OFFCURVE",
"69 455 OFFCURVE",
"70 479 CURVE",
"92 497 OFFCURVE",
"104 504 OFFCURVE",
"138 504 CURVE SMOOTH"
);
}
);
};
layerId = "AF1B7CCB-9C31-456C-8386-1D362D80AEF6";
name = "Bold Italic";
paths = (
{
closed = 1;
nodes = (
"328 0 OFFCURVE",
"536 110 OFFCURVE",
"536 187 CURVE SMOOTH",
"536 240 OFFCURVE",
"448 319 OFFCURVE",
"333 365 CURVE",
"289 328 LINE",
"336 288 OFFCURVE",
"363 253 OFFCURVE",
"385 209 CURVE",
"357 173 OFFCURVE",
"287 116 OFFCURVE",
"211 108 CURVE",
"329 256 OFFCURVE",
"392 357 OFFCURVE",
"596 470 CURVE",
"604 553 OFFCURVE",
"565 592 OFFCURVE",
"476 607 CURVE",
"306 470 OFFCURVE",
"61 205 OFFCURVE",
"61 137 CURVE SMOOTH",
"61 100 OFFCURVE",
"147 0 OFFCURVE",
"195 0 CURVE SMOOTH"
);
},
{
closed = 1;
nodes = (
"211 504 OFFCURVE",
"303 449 OFFCURVE",
"363 370 CURVE",
"418 409 LINE",
"349 534 OFFCURVE",
"256 619 OFFCURVE",
"150 619 CURVE SMOOTH",
"34 619 OFFCURVE",
"-77 528 OFFCURVE",
"-77 418 CURVE SMOOTH",
"-77 370 OFFCURVE",
"-20 291 OFFCURVE",
"41 291 CURVE SMOOTH",
"151 291 OFFCURVE",
"240 421 OFFCURVE",
"266 507 CURVE",
"191 532 LINE",
"178 489 OFFCURVE",
"134 434 OFFCURVE",
"95 409 CURVE",
"79 421 OFFCURVE",
"64 455 OFFCURVE",
"64 482 CURVE",
"84 496 OFFCURVE",
"104 504 OFFCURVE",
"136 504 CURVE SMOOTH"
);
}
);
width = 591;
}
);
unicode = 0A9C;
},
{
glyphname = gjJHA;
lastChange = "2015-07-21 17:31:10 +0000";
layers = (
{
background = {
paths = (
{
closed = 1;
nodes = (
"688 604 OFFCURVE",
"625 638 OFFCURVE",
"539 614 CURVE",
"503 523 OFFCURVE",
"463 470 OFFCURVE",
"390 421 CURVE",
"423 547 OFFCURVE",
"305 619 OFFCURVE",
"226 619 CURVE SMOOTH",
"146 619 OFFCURVE",
"29 581 OFFCURVE",
"29 519 CURVE SMOOTH",
"29 470 OFFCURVE",
"56 436 OFFCURVE",
"102 407 CURVE",
"155 444 OFFCURVE",
"195 463 OFFCURVE",
"252 478 CURVE",
"262 391 OFFCURVE",
"208 320 OFFCURVE",
"124 275 CURVE",
"129 295 OFFCURVE",
"133 308 OFFCURVE",
"140 323 CURVE",
"103 363 OFFCURVE",
"33 374 OFFCURVE",
"-22 356 CURVE",
"-33 338 OFFCURVE",
"-37 321 OFFCURVE",
"-37 298 CURVE SMOOTH",
"-37 252 OFFCURVE",
"65 185 OFFCURVE",
"129 185 CURVE SMOOTH",
"220 185 OFFCURVE",
"292 220 OFFCURVE",
"337 278 CURVE",
"373 292 OFFCURVE",
"414 302 OFFCURVE",
"448 295 CURVE",
"463 212 OFFCURVE",
"398 136 OFFCURVE",
"312 89 CURVE",
"290 111 OFFCURVE",
"273 133 OFFCURVE",
"259 161 CURVE",
"194 153 OFFCURVE",
"157 121 OFFCURVE",
"157 87 CURVE SMOOTH",
"157 42 OFFCURVE",
"230 0 OFFCURVE",
"314 0 CURVE SMOOTH",
"472 0 OFFCURVE",
"603 133 OFFCURVE",
"603 255 CURVE SMOOTH",
"603 300 OFFCURVE",
"563 347 OFFCURVE",
"503 368 CURVE",
"615 419 OFFCURVE",
"688 498 OFFCURVE",
"688 550 CURVE SMOOTH"
);
}
);
};
layerId = "AF1B7CCB-9C31-456C-8386-1D362D80AEF6";
name = "Bold Italic";
paths = (
{
closed = 1;
nodes = (
"423 547 OFFCURVE",
"305 619 OFFCURVE",
"226 619 CURVE SMOOTH",
"146 619 OFFCURVE",
"29 581 OFFCURVE",
"29 519 CURVE SMOOTH",
"29 470 OFFCURVE",
"56 436 OFFCURVE",
"102 407 CURVE",
"155 444 OFFCURVE",
"195 463 OFFCURVE",
"252 478 CURVE",
"262 391 OFFCURVE",
"208 320 OFFCURVE",
"124 275 CURVE",
"129 295 OFFCURVE",
"133 308 OFFCURVE",
"140 323 CURVE",
"103 363 OFFCURVE",
"33 374 OFFCURVE",
"-22 356 CURVE",
"-33 338 OFFCURVE",
"-37 321 OFFCURVE",
"-37 298 CURVE SMOOTH",
"-37 252 OFFCURVE",
"65 185 OFFCURVE",
"129 185 CURVE SMOOTH",
"220 185 OFFCURVE",
"292 220 OFFCURVE",
"337 278 CURVE",
"366 291 OFFCURVE",
"405 299 OFFCURVE",
"428 295 CURVE",
"442 220 OFFCURVE",
"391 137 OFFCURVE",
"302 89 CURVE",
"326 89 LINE",
"308 107 OFFCURVE",
"292 130 OFFCURVE",
"277 161 CURVE",
"195 161 OFFCURVE",
"137 130 OFFCURVE",
"137 87 CURVE SMOOTH",
"137 42 OFFCURVE",
"222 0 OFFCURVE",
"314 0 CURVE SMOOTH",
"479 0 OFFCURVE",
"623 139 OFFCURVE",
"623 244 CURVE SMOOTH",
"623 299 OFFCURVE",
"577 344 OFFCURVE",
"493 351 CURVE",
"626 397 OFFCURVE",
"708 494 OFFCURVE",
"708 545 CURVE SMOOTH",
"708 609 OFFCURVE",
"637 643 OFFCURVE",
"520 614 CURVE",
"482 518 OFFCURVE",
"443 464 OFFCURVE",
"379 421 CURVE",
"390 421 LINE"
);
}
);
width = 671;
}
);
unicode = 0A9D;
},
{
glyphname = gjNYA;
lastChange = "2015-07-20 09:26:12 +0000";
layers = (
{
background = {
paths = (
{
closed = 1;
nodes = (
"309 157 OFFCURVE",
"425 303 OFFCURVE",
"425 462 CURVE SMOOTH",
"425 535 OFFCURVE",
"327 619 OFFCURVE",
"239 619 CURVE SMOOTH",
"159 619 OFFCURVE",
"42 581 OFFCURVE",
"42 519 CURVE SMOOTH",
"42 470 OFFCURVE",
"69 436 OFFCURVE",
"115 407 CURVE",
"168 444 OFFCURVE",
"208 463 OFFCURVE",
"265 478 CURVE",
"258 385 OFFCURVE",
"169 285 OFFCURVE",
"99 285 CURVE SMOOTH",
"64 285 OFFCURVE",
"30 303 OFFCURVE",
"2 324 CURVE",
"-37 288 LINE",
"-6 215 OFFCURVE",
"70 157 OFFCURVE",
"144 157 CURVE SMOOTH"
);
},
{
closed = 1;
nodes = (
"318 278 LINE",
"372 281 OFFCURVE",
"438 293 OFFCURVE",
"486 312 CURVE",
"442 233 OFFCURVE",
"412 151 OFFCURVE",
"412 123 CURVE SMOOTH",
"412 86 OFFCURVE",
"525 0 OFFCURVE",
"575 0 CURVE SMOOTH",
"636 0 OFFCURVE",
"845 122 OFFCURVE",
"845 193 CURVE SMOOTH",
"845 237 OFFCURVE",
"793 293 OFFCURVE",
"724 312 CURVE",
"681 257 OFFCURVE",
"643 208 OFFCURVE",
"586 175 CURVE",
"634 315 OFFCURVE",
"708 471 OFFCURVE",
"708 522 CURVE SMOOTH",
"708 551 OFFCURVE",
"592 583 OFFCURVE",
"542 583 CURVE SMOOTH",
"526 583 OFFCURVE",
"500 503 OFFCURVE",
"480 413 CURVE",
"434 388 OFFCURVE",
"369 373 OFFCURVE",
"312 363 CURVE"
);
}
);
};
layerId = "AF1B7CCB-9C31-456C-8386-1D362D80AEF6";
name = "Bold Italic";
paths = (
{
closed = 1;
nodes = (
"636 0 OFFCURVE",
"845 122 OFFCURVE",
"845 193 CURVE SMOOTH",
"845 237 OFFCURVE",
"793 293 OFFCURVE",
"724 312 CURVE",
"681 257 OFFCURVE",
"643 208 OFFCURVE",
"586 175 CURVE",
"634 315 OFFCURVE",
"708 471 OFFCURVE",
"708 522 CURVE SMOOTH",
"708 551 OFFCURVE",
"592 583 OFFCURVE",
"542 583 CURVE SMOOTH",
"526 583 OFFCURVE",
"500 503 OFFCURVE",
"480 413 CURVE",
"434 388 OFFCURVE",
"369 373 OFFCURVE",
"312 363 CURVE",
"318 278 LINE",
"372 281 OFFCURVE",
"438 293 OFFCURVE",
"486 312 CURVE",
"442 233 OFFCURVE",
"412 151 OFFCURVE",
"412 123 CURVE SMOOTH",
"412 86 OFFCURVE",
"525 0 OFFCURVE",
"575 0 CURVE SMOOTH"
);
},
{
closed = 1;
nodes = (
"316 157 OFFCURVE",
"425 314 OFFCURVE",
"425 462 CURVE SMOOTH",
"425 535 OFFCURVE",
"327 619 OFFCURVE",
"239 619 CURVE SMOOTH",
"159 619 OFFCURVE",
"42 581 OFFCURVE",
"42 519 CURVE SMOOTH",
"42 470 OFFCURVE",
"69 436 OFFCURVE",
"115 407 CURVE",
"168 444 OFFCURVE",
"208 463 OFFCURVE",
"265 478 CURVE",
"272 395 OFFCURVE",
"226 314 OFFCURVE",
"135 266 CURVE",
"139 286 OFFCURVE",
"143 297 OFFCURVE",
"149 311 CURVE",
"112 351 OFFCURVE",
"60 362 OFFCURVE",
"-11 344 CURVE",
"-23 327 OFFCURVE",
"-29 310 OFFCURVE",
"-29 290 CURVE SMOOTH",
"-29 238 OFFCURVE",
"60 157 OFFCURVE",
"144 157 CURVE SMOOTH"
);
}
);
width = 877;
},
{
associatedMasterId = "AF1B7CCB-9C31-456C-8386-1D362D80AEF6";
background = {
paths = (
{
closed = 1;
nodes = (
"547 583 OFFCURVE",
"454 152 OFFCURVE",
"454 123 CURVE SMOOTH",
"454 84 OFFCURVE",
"571 -1 OFFCURVE",
"615 -1 CURVE SMOOTH",
"697 -1 OFFCURVE",
"887 132 OFFCURVE",
"887 191 CURVE SMOOTH",
"887 247 OFFCURVE",
"821 298 OFFCURVE",
"766 312 CURVE",
"728 267 OFFCURVE",
"691 222 OFFCURVE",
"649 197 CURVE",
"691 322 OFFCURVE",
"770 457 OFFCURVE",
"770 515 CURVE SMOOTH",
"770 542 OFFCURVE",
"644 583 OFFCURVE",
"583 583 CURVE SMOOTH"
);
},
{
closed = 1;
nodes = (
"206 285 OFFCURVE",
"295 385 OFFCURVE",
"302 478 CURVE",
"245 463 OFFCURVE",
"205 444 OFFCURVE",
"152 407 CURVE",
"106 436 OFFCURVE",
"79 470 OFFCURVE",
"79 519 CURVE SMOOTH",
"79 581 OFFCURVE",
"196 619 OFFCURVE",
"276 619 CURVE SMOOTH",
"364 619 OFFCURVE",
"462 535 OFFCURVE",
"462 462 CURVE SMOOTH",
"462 303 OFFCURVE",
"346 157 OFFCURVE",
"181 157 CURVE SMOOTH",
"107 157 OFFCURVE",
"31 215 OFFCURVE",
"0 288 CURVE",
"39 324 LINE",
"67 303 OFFCURVE",
"101 285 OFFCURVE",
"136 285 CURVE SMOOTH"
);
}
);
};
layerId = "49D7B7C9-1EC3-49DC-92FA-BFE6E88FC841";
name = "Bold Italic Jul 10 15, 19:29";
paths = (
{
closed = 1;
nodes = (
"692 -1 OFFCURVE",
"882 132 OFFCURVE",
"882 191 CURVE SMOOTH",
"882 247 OFFCURVE",
"816 298 OFFCURVE",
"761 312 CURVE",
"723 267 OFFCURVE",
"686 222 OFFCURVE",
"644 197 CURVE",
"686 322 OFFCURVE",
"765 457 OFFCURVE",
"765 515 CURVE SMOOTH",
"765 542 OFFCURVE",
"639 583 OFFCURVE",
"580 583 CURVE SMOOTH",
"561 583 OFFCURVE",
"533 485 OFFCURVE",
"517 413 CURVE",
"465 382 OFFCURVE",
"374 366 OFFCURVE",
"306 356 CURVE",
"280 275 LINE",
"342 275 OFFCURVE",
"440 280 OFFCURVE",
"523 312 CURVE",
"472 220 OFFCURVE",
"449 146 OFFCURVE",
"449 123 CURVE SMOOTH",
"449 84 OFFCURVE",
"566 -1 OFFCURVE",
"610 -1 CURVE SMOOTH"
);
},
{
closed = 1;
nodes = (
"346 157 OFFCURVE",
"462 303 OFFCURVE",
"462 462 CURVE SMOOTH",
"462 535 OFFCURVE",
"364 619 OFFCURVE",
"276 619 CURVE SMOOTH",
"196 619 OFFCURVE",
"79 581 OFFCURVE",
"79 519 CURVE SMOOTH",
"79 470 OFFCURVE",
"106 436 OFFCURVE",
"152 407 CURVE",
"205 444 OFFCURVE",
"245 463 OFFCURVE",
"302 478 CURVE",
"295 385 OFFCURVE",
"206 285 OFFCURVE",
"136 285 CURVE SMOOTH",
"101 285 OFFCURVE",
"67 303 OFFCURVE",
"39 324 CURVE",
"0 288 LINE",
"31 215 OFFCURVE",
"107 157 OFFCURVE",
"181 157 CURVE SMOOTH"
);
}
);
width = 912;
},
{
associatedMasterId = "AF1B7CCB-9C31-456C-8386-1D362D80AEF6";
background = {
paths = (
{
closed = 1;
nodes = (
"350 157 OFFCURVE",
"466 303 OFFCURVE",
"466 462 CURVE SMOOTH",
"466 535 OFFCURVE",
"368 619 OFFCURVE",
"280 619 CURVE SMOOTH",
"200 619 OFFCURVE",
"83 581 OFFCURVE",
"83 519 CURVE SMOOTH",
"83 470 OFFCURVE",
"110 436 OFFCURVE",
"156 407 CURVE",
"209 444 OFFCURVE",
"249 463 OFFCURVE",
"306 478 CURVE",
"299 385 OFFCURVE",
"210 285 OFFCURVE",
"140 285 CURVE SMOOTH",
"105 285 OFFCURVE",
"71 303 OFFCURVE",
"43 324 CURVE",
"4 288 LINE",
"35 215 OFFCURVE",
"111 157 OFFCURVE",
"185 157 CURVE SMOOTH"
);
},
{
closed = 1;
nodes = (
"359 278 LINE",
"413 281 OFFCURVE",
"479 293 OFFCURVE",
"527 312 CURVE",
"483 233 OFFCURVE",
"453 151 OFFCURVE",
"453 123 CURVE SMOOTH",
"453 86 OFFCURVE",
"566 0 OFFCURVE",
"616 0 CURVE SMOOTH",
"677 0 OFFCURVE",
"886 122 OFFCURVE",
"886 193 CURVE SMOOTH",
"886 237 OFFCURVE",
"834 293 OFFCURVE",
"765 312 CURVE",
"722 257 OFFCURVE",
"684 208 OFFCURVE",
"627 175 CURVE",
"675 315 OFFCURVE",
"749 471 OFFCURVE",
"749 522 CURVE SMOOTH",
"749 551 OFFCURVE",
"633 583 OFFCURVE",
"583 583 CURVE SMOOTH",
"567 583 OFFCURVE",
"541 503 OFFCURVE",
"521 413 CURVE",
"475 388 OFFCURVE",
"410 373 OFFCURVE",
"353 363 CURVE"
);
}
);
};
layerId = "9F55AF65-125B-4A91-9CF3-CE1E4D3769D2";
name = equal;
paths = (
{
closed = 1;
nodes = (
"350 157 OFFCURVE",
"466 303 OFFCURVE",
"466 462 CURVE SMOOTH",
"466 535 OFFCURVE",
"368 619 OFFCURVE",
"280 619 CURVE SMOOTH",
"200 619 OFFCURVE",
"83 581 OFFCURVE",
"83 519 CURVE SMOOTH",
"83 470 OFFCURVE",
"110 436 OFFCURVE",
"156 407 CURVE",
"209 444 OFFCURVE",
"249 463 OFFCURVE",
"306 478 CURVE",
"299 385 OFFCURVE",
"210 285 OFFCURVE",
"140 285 CURVE SMOOTH",
"105 285 OFFCURVE",
"71 303 OFFCURVE",
"43 324 CURVE",
"4 288 LINE",
"35 215 OFFCURVE",
"111 157 OFFCURVE",
"185 157 CURVE SMOOTH"
);
},
{
closed = 1;
nodes = (
"359 278 LINE",
"419 282 OFFCURVE",
"479 293 OFFCURVE",
"527 312 CURVE",
"477 221 OFFCURVE",
"453 148 OFFCURVE",
"453 123 CURVE SMOOTH",
"453 85 OFFCURVE",
"566 0 OFFCURVE",
"616 0 CURVE SMOOTH",
"677 0 OFFCURVE",
"886 122 OFFCURVE",
"886 193 CURVE SMOOTH",
"886 237 OFFCURVE",
"834 293 OFFCURVE",
"765 312 CURVE",
"722 257 OFFCURVE",
"683 208 OFFCURVE",
"626 175 CURVE",
"674 315 OFFCURVE",
"754 480 OFFCURVE",
"754 541 CURVE SMOOTH",
"754 570 OFFCURVE",
"637 602 OFFCURVE",
"598 602 CURVE SMOOTH",
"569 602 OFFCURVE",
"537 486 OFFCURVE",
"521 413 CURVE",
"474 390 OFFCURVE",
"415 371 OFFCURVE",
"353 363 CURVE"
);
}
);
width = 943;
},
{
associatedMasterId = "AF1B7CCB-9C31-456C-8386-1D362D80AEF6";
background = {
paths = (
{
closed = 1;
nodes = (
"656 -1 OFFCURVE",
"846 132 OFFCURVE",
"846 191 CURVE SMOOTH",
"846 247 OFFCURVE",
"780 298 OFFCURVE",
"725 312 CURVE",
"687 267 OFFCURVE",
"650 222 OFFCURVE",
"608 197 CURVE",
"650 322 OFFCURVE",
"729 457 OFFCURVE",
"729 515 CURVE SMOOTH",
"729 542 OFFCURVE",
"603 583 OFFCURVE",
"544 583 CURVE SMOOTH",
"525 583 OFFCURVE",
"497 485 OFFCURVE",
"481 413 CURVE",
"429 382 OFFCURVE",
"338 366 OFFCURVE",
"270 356 CURVE",
"244 275 LINE",
"306 275 OFFCURVE",
"404 280 OFFCURVE",
"487 312 CURVE",
"436 220 OFFCURVE",
"413 146 OFFCURVE",
"413 123 CURVE SMOOTH",
"413 84 OFFCURVE",
"530 -1 OFFCURVE",
"574 -1 CURVE SMOOTH"
);
},
{
closed = 1;
nodes = (
"310 157 OFFCURVE",
"426 303 OFFCURVE",
"426 462 CURVE SMOOTH",
"426 535 OFFCURVE",
"328 619 OFFCURVE",
"240 619 CURVE SMOOTH",
"160 619 OFFCURVE",
"43 581 OFFCURVE",
"43 519 CURVE SMOOTH",
"43 470 OFFCURVE",
"70 436 OFFCURVE",
"116 407 CURVE",
"169 444 OFFCURVE",
"209 463 OFFCURVE",
"266 478 CURVE",
"259 385 OFFCURVE",
"170 285 OFFCURVE",
"100 285 CURVE SMOOTH",
"65 285 OFFCURVE",
"31 303 OFFCURVE",
"3 324 CURVE",
"-36 288 LINE",
"-5 215 OFFCURVE",
"71 157 OFFCURVE",
"145 157 CURVE SMOOTH"
);
},
{
closed = 1;
nodes = (
"507 583 OFFCURVE",
"413 163 OFFCURVE",
"413 123 CURVE SMOOTH",
"413 86 OFFCURVE",
"526 0 OFFCURVE",
"576 0 CURVE SMOOTH",
"637 0 OFFCURVE",
"846 122 OFFCURVE",
"846 193 CURVE SMOOTH",
"846 237 OFFCURVE",
"794 293 OFFCURVE",
"725 312 CURVE",
"682 257 OFFCURVE",
"644 208 OFFCURVE",
"587 175 CURVE",
"635 315 OFFCURVE",
"709 471 OFFCURVE",
"709 522 CURVE SMOOTH",
"709 551 OFFCURVE",
"593 583 OFFCURVE",
"543 583 CURVE SMOOTH"
);
}
);
};
layerId = "4B39428C-D090-4FCA-B623-13A0579500ED";
name = "Bold Italic Jul 20 15, 14:56";
paths = (
{
closed = 1;
nodes = (
"310 157 OFFCURVE",
"426 303 OFFCURVE",
"426 462 CURVE SMOOTH",
"426 535 OFFCURVE",
"328 619 OFFCURVE",
"240 619 CURVE SMOOTH",
"160 619 OFFCURVE",
"43 581 OFFCURVE",
"43 519 CURVE SMOOTH",
"43 470 OFFCURVE",
"70 436 OFFCURVE",
"116 407 CURVE",
"169 444 OFFCURVE",
"209 463 OFFCURVE",
"266 478 CURVE",
"259 385 OFFCURVE",
"170 285 OFFCURVE",
"100 285 CURVE SMOOTH",
"65 285 OFFCURVE",
"31 303 OFFCURVE",
"3 324 CURVE",
"-36 288 LINE",
"-5 215 OFFCURVE",
"71 157 OFFCURVE",
"145 157 CURVE SMOOTH"
);
},
{
closed = 1;
nodes = (
"319 278 LINE",
"373 281 OFFCURVE",
"439 293 OFFCURVE",
"487 312 CURVE",
"443 233 OFFCURVE",
"413 151 OFFCURVE",
"413 123 CURVE SMOOTH",
"413 86 OFFCURVE",
"526 0 OFFCURVE",
"576 0 CURVE SMOOTH",
"637 0 OFFCURVE",
"846 122 OFFCURVE",
"846 193 CURVE SMOOTH",
"846 237 OFFCURVE",
"794 293 OFFCURVE",
"725 312 CURVE",
"682 257 OFFCURVE",
"644 208 OFFCURVE",
"587 175 CURVE",
"635 315 OFFCURVE",
"709 471 OFFCURVE",
"709 522 CURVE SMOOTH",
"709 551 OFFCURVE",
"593 583 OFFCURVE",
"543 583 CURVE SMOOTH",
"527 583 OFFCURVE",
"501 503 OFFCURVE",
"481 413 CURVE",
"435 388 OFFCURVE",
"370 373 OFFCURVE",
"313 363 CURVE"
);
}
);
width = 878;
}
);
leftMetricsKey = gjGA;
rightMetricsKey = gjmAA;
unicode = 0A9E;
},
{
glyphname = gjTTA;
lastChange = "2015-07-17 13:00:53 +0000";
layers = (
{
background = {
paths = (
{
closed = 1;
nodes = (
"286 0 OFFCURVE",
"508 96 OFFCURVE",
"508 177 CURVE SMOOTH",
"508 231 OFFCURVE",
"476 272 OFFCURVE",
"408 286 CURVE",
"345 223 OFFCURVE",
"276 187 OFFCURVE",
"182 151 CURVE",
"160 183 LINE",
"308 266 OFFCURVE",
"478 379 OFFCURVE",
"478 485 CURVE SMOOTH",
"478 539 OFFCURVE",
"404 619 OFFCURVE",
"321 619 CURVE SMOOTH",
"208 619 OFFCURVE",
"70 575 OFFCURVE",
"70 507 CURVE SMOOTH",
"70 465 OFFCURVE",
"99 428 OFFCURVE",
"139 403 CURVE",
"209 444 OFFCURVE",
"261 471 OFFCURVE",
"337 480 CURVE",
"305 367 OFFCURVE",
"-19 280 OFFCURVE",
"-19 192 CURVE SMOOTH",
"-19 125 OFFCURVE",
"90 0 OFFCURVE",
"189 0 CURVE SMOOTH"
);
}
);
};
layerId = "AF1B7CCB-9C31-456C-8386-1D362D80AEF6";
name = "Bold Italic";
paths = (
{
closed = 1;
nodes = (
"319 0 OFFCURVE",
"519 82 OFFCURVE",
"519 158 CURVE SMOOTH",
"519 212 OFFCURVE",
"493 245 OFFCURVE",
"431 266 CURVE",
"340 203 OFFCURVE",
"271 176 OFFCURVE",
"163 150 CURVE",
"228 266 OFFCURVE",
"497 342 OFFCURVE",
"497 487 CURVE SMOOTH",
"497 538 OFFCURVE",
"417 619 OFFCURVE",
"340 619 CURVE SMOOTH",
"239 619 OFFCURVE",
"90 583 OFFCURVE",
"90 503 CURVE SMOOTH",
"90 464 OFFCURVE",
"117 428 OFFCURVE",
"155 403 CURVE",
"228 444 OFFCURVE",
"271 465 OFFCURVE",
"338 476 CURVE",
"286 375 OFFCURVE",
"-4 295 OFFCURVE",
"-4 172 CURVE SMOOTH",
"-4 113 OFFCURVE",
"99 0 OFFCURVE",
"182 0 CURVE SMOOTH"
);
}
);
width = 559;
}
);
unicode = 0A9F;
},
{
glyphname = gjTTHA;
lastChange = "2015-07-17 13:00:07 +0000";
layers = (
{
background = {
paths = (
{
closed = 1;
nodes = (
"553 301 OFFCURVE",
"442 369 OFFCURVE",
"313 425 CURVE",
"348 457 OFFCURVE",
"377 486 OFFCURVE",
"424 513 CURVE",
"424 579 OFFCURVE",
"391 619 OFFCURVE",
"303 619 CURVE",
"211 567 OFFCURVE",
"154 492 OFFCURVE",
"154 440 CURVE SMOOTH",
"154 384 OFFCURVE",
"287 298 OFFCURVE",
"395 251 CURVE",
"357 195 OFFCURVE",
"273 131 OFFCURVE",
"175 110 CURVE",
"121 195 OFFCURVE",
"217 273 OFFCURVE",
"336 320 CURVE",
"292 359 LINE",
"146 365 OFFCURVE",
"-4 253 OFFCURVE",
"-4 172 CURVE SMOOTH",
"-4 77 OFFCURVE",
"121 0 OFFCURVE",
"243 0 CURVE SMOOTH",
"353 0 OFFCURVE",
"553 114 OFFCURVE",
"553 224 CURVE SMOOTH"
);
},
{
closed = 1;
nodes = (
"395 0 OFFCURVE",
"553 103 OFFCURVE",
"553 191 CURVE SMOOTH",
"553 282 OFFCURVE",
"454 356 OFFCURVE",
"311 414 CURVE",
"358 452 OFFCURVE",
"394 474 OFFCURVE",
"446 491 CURVE",
"459 556 OFFCURVE",
"435 602 OFFCURVE",
"348 619 CURVE",
"248 587 OFFCURVE",
"148 518 OFFCURVE",
"137 472 CURVE SMOOTH",
"130 442 OFFCURVE",
"151 374 OFFCURVE",
"176 363 CURVE SMOOTH",
"244 333 OFFCURVE",
"353 276 OFFCURVE",
"393 237 CURVE",
"357 164 OFFCURVE",
"255 121 OFFCURVE",
"178 116 CURVE",
"185 150 OFFCURVE",
"198 187 OFFCURVE",
"212 215 CURVE",
"173 264 OFFCURVE",
"110 279 OFFCURVE",
"37 264 CURVE",
"17 230 OFFCURVE",
"4 186 OFFCURVE",
"4 153 CURVE SMOOTH",
"4 92 OFFCURVE",
"138 0 OFFCURVE",
"236 0 CURVE SMOOTH"
);
}
);
};
layerId = "AF1B7CCB-9C31-456C-8386-1D362D80AEF6";
name = "Bold Italic";
paths = (
{
closed = 1;
nodes = (
"323 315 LINE",
"233 273 OFFCURVE",
"165 208 OFFCURVE",
"148 134 CURVE",
"249 114 OFFCURVE",
"365 175 OFFCURVE",
"403 249 CURVE",
"363 288 OFFCURVE",
"244 333 OFFCURVE",
"176 363 CURVE SMOOTH",
"151 374 OFFCURVE",
"130 442 OFFCURVE",
"137 472 CURVE SMOOTH",
"148 518 OFFCURVE",
"248 587 OFFCURVE",
"348 619 CURVE",
"435 602 OFFCURVE",
"459 556 OFFCURVE",
"446 491 CURVE",
"394 474 OFFCURVE",
"358 452 OFFCURVE",
"311 414 CURVE",
"454 356 OFFCURVE",
"563 294 OFFCURVE",
"563 216 CURVE SMOOTH",
"563 115 OFFCURVE",
"385 0 OFFCURVE",
"194 0 CURVE SMOOTH",
"97 0 OFFCURVE",
"-2 117 OFFCURVE",
"-2 188 CURVE SMOOTH",
"-2 260 OFFCURVE",
"142 361 OFFCURVE",
"284 374 CURVE"
);
}
);
width = 597;
}
);
unicode = 0AA0;
},
{
glyphname = gjDDA;
lastChange = "2015-07-17 12:59:40 +0000";
layers = (
{
background = {
paths = (
{
closed = 1;
nodes = (
"385 0 OFFCURVE",
"543 103 OFFCURVE",
"543 191 CURVE SMOOTH",
"543 282 OFFCURVE",
"444 356 OFFCURVE",
"301 414 CURVE",
"348 452 OFFCURVE",
"384 474 OFFCURVE",
"436 491 CURVE",
"449 556 OFFCURVE",
"425 602 OFFCURVE",
"338 619 CURVE",
"238 587 OFFCURVE",
"144 526 OFFCURVE",
"132 475 CURVE SMOOTH",
"125 445 OFFCURVE",
"141 384 OFFCURVE",
"172 364 CURVE SMOOTH",
"218 335 OFFCURVE",
"330 271 OFFCURVE",
"383 230 CURVE",
"347 164 OFFCURVE",
"245 121 OFFCURVE",
"168 116 CURVE",
"175 150 OFFCURVE",
"188 187 OFFCURVE",
"202 215 CURVE",
"163 264 OFFCURVE",
"100 279 OFFCURVE",
"27 264 CURVE",
"7 230 OFFCURVE",
"-6 186 OFFCURVE",
"-6 153 CURVE SMOOTH",
"-6 92 OFFCURVE",
"128 0 OFFCURVE",
"226 0 CURVE SMOOTH"
);
}
);
};
layerId = "AF1B7CCB-9C31-456C-8386-1D362D80AEF6";
name = "Bold Italic";
paths = (
{
closed = 1;
nodes = (
"385 0 OFFCURVE",
"543 103 OFFCURVE",
"543 191 CURVE SMOOTH",
"543 282 OFFCURVE",
"444 356 OFFCURVE",
"301 414 CURVE",
"348 452 OFFCURVE",
"384 474 OFFCURVE",
"436 491 CURVE",
"449 556 OFFCURVE",
"425 602 OFFCURVE",
"338 619 CURVE",
"238 587 OFFCURVE",
"132 513 OFFCURVE",
"121 467 CURVE SMOOTH",
"114 437 OFFCURVE",
"139 370 OFFCURVE",
"164 359 CURVE SMOOTH",
"232 329 OFFCURVE",
"341 272 OFFCURVE",
"381 233 CURVE",
"345 160 OFFCURVE",
"245 121 OFFCURVE",
"168 116 CURVE",
"175 150 OFFCURVE",
"188 187 OFFCURVE",
"202 215 CURVE",
"163 264 OFFCURVE",
"100 279 OFFCURVE",
"27 264 CURVE",
"7 230 OFFCURVE",
"-6 186 OFFCURVE",
"-6 153 CURVE SMOOTH",
"-6 92 OFFCURVE",
"128 0 OFFCURVE",
"226 0 CURVE SMOOTH"
);
}
);
width = 581;
},
{
associatedMasterId = "AF1B7CCB-9C31-456C-8386-1D362D80AEF6";
background = {
paths = (
{
closed = 1;
nodes = (
"292 120 OFFCURVE",
"333 171 OFFCURVE",
"344 235 CURVE",
"288 255 OFFCURVE",
"198 291 OFFCURVE",
"147 307 CURVE",
"120 330 OFFCURVE",
"100 389 OFFCURVE",
"101 428 CURVE SMOOTH",
"103 490 OFFCURVE",
"267 619 OFFCURVE",
"338 619 CURVE SMOOTH",
"397 619 OFFCURVE",
"486 562 OFFCURVE",
"526 501 CURVE",
"523 488 OFFCURVE",
"512 477 OFFCURVE",
"496 469 CURVE",
"479 478 OFFCURVE",
"434 494 OFFCURVE",
"406 494 CURVE SMOOTH",
"381 494 OFFCURVE",
"314 445 OFFCURVE",
"274 402 CURVE",
"372 361 OFFCURVE",
"528 298 OFFCURVE",
"525 227 CURVE SMOOTH",
"522 129 OFFCURVE",
"416 22 OFFCURVE",
"256 0 CURVE",
"168 18 OFFCURVE",
"79 83 OFFCURVE",
"25 165 CURVE",
"28 178 OFFCURVE",
"39 189 OFFCURVE",
"55 197 CURVE",
"72 188 OFFCURVE",
"160 125 OFFCURVE",
"234 100 CURVE"
);
}
);
};
layerId = "928A8F59-80E2-4B92-936D-8D1891026811";
name = "Bold Italic Jul 13 15, 17:27";
paths = (
{
closed = 1;
nodes = (
"237 105 CURVE",
"280 129 OFFCURVE",
"316 181 OFFCURVE",
"334 239 CURVE",
"274 269 OFFCURVE",
"218 289 OFFCURVE",
"133 318 CURVE",
"105 348 OFFCURVE",
"89 401 OFFCURVE",
"95 444 CURVE SMOOTH",
"102 500 OFFCURVE",
"257.77 619 OFFCURVE",
"338 619 CURVE SMOOTH",
"401 619 OFFCURVE",
"498 560 OFFCURVE",
"538.667 501 CURVE",
"536.178 490.214 OFFCURVE",
"523.592 479.889 OFFCURVE",
"501.814 469 CURVE",
"472 480 OFFCURVE",
"408 498 OFFCURVE",
"396 498 CURVE SMOOTH",
"371 498 OFFCURVE",
"315 433 OFFCURVE",
"281 383 CURVE",
"378 342 OFFCURVE",
"527 310 OFFCURVE",
"528 242 CURVE SMOOTH",
"530 148 OFFCURVE",
"422 1 OFFCURVE",
"274 1 CURVE SMOOTH",
"189 1 OFFCURVE",
"71 78 OFFCURVE",
"14.143 165 CURVE",
"18 178 OFFCURVE",
"36 199 OFFCURVE",
"57 209 CURVE",
"121 165 OFFCURVE",
"207 113 OFFCURVE"
);
}
);
width = 600;
},
{
associatedMasterId = "AF1B7CCB-9C31-456C-8386-1D362D80AEF6";
background = {
paths = (
{
closed = 1;
nodes = (
"339 -1 OFFCURVE",
"486 136 OFFCURVE",
"486 203 CURVE SMOOTH",
"486 287 OFFCURVE",
"335 349 OFFCURVE",
"230 379 CURVE",
"264 438 OFFCURVE",
"314 488 OFFCURVE",
"361 509 CURVE",
"359 496 OFFCURVE",
"334 441 OFFCURVE",
"318 412 CURVE",
"338 388 OFFCURVE",
"418 345 OFFCURVE",
"469 364 CURVE",
"494 401 OFFCURVE",
"503 452 OFFCURVE",
"503 490 CURVE SMOOTH",
"503 525 OFFCURVE",
"395 619 OFFCURVE",
"321 619 CURVE SMOOTH",
"238 619 OFFCURVE",
"85 476 OFFCURVE",
"85 401 CURVE SMOOTH",
"85 345 OFFCURVE",
"194 272 OFFCURVE",
"283 235 CURVE",
"328 235 LINE",
"319 189 OFFCURVE",
"234 130 OFFCURVE",
"189 111 CURVE",
"193 142 OFFCURVE",
"209 171 OFFCURVE",
"219 193 CURVE",
"200 235 OFFCURVE",
"119 256 OFFCURVE",
"51 240 CURVE",
"32 207 OFFCURVE",
"23 178 OFFCURVE",
"23 142 CURVE SMOOTH",
"23 97 OFFCURVE",
"156 -1 OFFCURVE",
"219 -1 CURVE SMOOTH"
);
}
);
};
layerId = "E04F021B-8656-4007-AF5B-91D11FC2D882";
name = alternate;
paths = (
{
closed = 1;
nodes = (
"340 -1 OFFCURVE",
"487 117 OFFCURVE",
"487 205 CURVE SMOOTH",
"487 267 OFFCURVE",
"344 329 OFFCURVE",
"226 379 CURVE",
"248 434 OFFCURVE",
"303 488 OFFCURVE",
"348 513 CURVE",
"337 483 OFFCURVE",
"325 453 OFFCURVE",
"298 416 CURVE",
"319 376 OFFCURVE",
"392 347 OFFCURVE",
"451 368 CURVE",
"475 405 OFFCURVE",
"498 464 OFFCURVE",
"497 502 CURVE SMOOTH",
"497 549 OFFCURVE",
"365 620 OFFCURVE",
"288 620 CURVE SMOOTH",
"205 620 OFFCURVE",
"81 482 OFFCURVE",
"81 393 CURVE SMOOTH",
"81 345 OFFCURVE",
"197 270 OFFCURVE",
"287 233 CURVE",
"332 233 LINE",
"314 174 OFFCURVE",
"242 129 OFFCURVE",
"183 102 CURVE",
"193 141 OFFCURVE",
"206 179 OFFCURVE",
"215 201 CURVE",
"195 243 OFFCURVE",
"113 264 OFFCURVE",
"46 248 CURVE",
"29 215 OFFCURVE",
"14 156 OFFCURVE",
"15 120 CURVE SMOOTH",
"16 75 OFFCURVE",
"148 -1 OFFCURVE",
"225 -1 CURVE SMOOTH"
);
}
);
width = 565;
},
{
associatedMasterId = "AF1B7CCB-9C31-456C-8386-1D362D80AEF6";
background = {
paths = (
{
closed = 1;
nodes = (
"355 0 OFFCURVE",
"514 131 OFFCURVE",
"514 240 CURVE SMOOTH",
"514 292 OFFCURVE",
"354 368 OFFCURVE",
"272 402 CURVE",
"306 450 OFFCURVE",
"363 493 OFFCURVE",
"423 510 CURVE",
"434 568 OFFCURVE",
"401 619 OFFCURVE",
"329 619 CURVE",
"210 586 OFFCURVE",
"109 479 OFFCURVE",
"109 402 CURVE SMOOTH",
"109 350 OFFCURVE",
"251 281 OFFCURVE",
"346 238 CURVE",
"306 178 OFFCURVE",
"234 128 OFFCURVE",
"161 110 CURVE",
"172 147 OFFCURVE",
"187 181 OFFCURVE",
"197 203 CURVE",
"178 244 OFFCURVE",
"99 261 OFFCURVE",
"29 243 CURVE",
"11 209 OFFCURVE",
"3 171 OFFCURVE",
"2 139 CURVE SMOOTH",
"0 60 OFFCURVE",
"141 0 OFFCURVE",
"247 0 CURVE SMOOTH"
);
}
);
};
layerId = "8ECA3201-6597-43A2-B15D-09D39BE05ADD";
name = "Bold Italic Jul 14 15, 17:49";
paths = (
{
closed = 1;
nodes = (
"326.54 0 OFFCURVE",
"524 116.451 OFFCURVE",
"524 240 CURVE SMOOTH",
"524 310 OFFCURVE",
"399 366 OFFCURVE",
"286 415 CURVE",
"310 455 OFFCURVE",
"351 491 OFFCURVE",
"392 516 CURVE",
"401 580 OFFCURVE",
"357 623 OFFCURVE",
"286 619 CURVE",
"165 577 OFFCURVE",
"104 467 OFFCURVE",
"104 410 CURVE SMOOTH",
"104 346 OFFCURVE",
"214 306 OFFCURVE",
"349 254 CURVE",
"314 205 OFFCURVE",
"238 137 OFFCURVE",
"166.867 112 CURVE",
"175.168 147.277 OFFCURVE",
"187.236 182.475 OFFCURVE",
"195.704 206 CURVE",
"177 247 OFFCURVE",
"91 269 OFFCURVE",
"18.581 251 CURVE",
"0.464 216.778 OFFCURVE",
"-11.96 172.203 OFFCURVE",
"-12.998 139 CURVE SMOOTH",
"-14.952 77.432 OFFCURVE",
"112.402 0 OFFCURVE",
"207 0 CURVE SMOOTH"
);
}
);
width = 562;
}
);
unicode = 0AA1;
},
{
glyphname = gjDDHA;
lastChange = "2015-07-17 13:01:11 +0000";
layers = (
{
background = {
paths = (
{
closed = 1;
nodes = (
"289 375 OFFCURVE",
"-4 295 OFFCURVE",
"-4 172 CURVE SMOOTH",
"-4 113 OFFCURVE",
"97 0 OFFCURVE",
"185 0 CURVE SMOOTH",
"354 0 OFFCURVE",
"580 99 OFFCURVE",
"580 186 CURVE SMOOTH",
"580 227 OFFCURVE",
"544 283 OFFCURVE",
"495 303 CURVE SMOOTH",
"453 319 OFFCURVE",
"322 288 OFFCURVE",
"316 247 CURVE SMOOTH",
"312 221 OFFCURVE",
"330 181 OFFCURVE",
"372 143 CURVE",
"401 172 LINE",
"305 146 OFFCURVE",
"240 140 OFFCURVE",
"163 150 CURVE",
"244 276 OFFCURVE",
"498 357 OFFCURVE",
"498 485 CURVE SMOOTH",
"498 542 OFFCURVE",
"418 619 OFFCURVE",
"341 619 CURVE SMOOTH",
"228 619 OFFCURVE",
"90 575 OFFCURVE",
"90 507 CURVE SMOOTH",
"90 465 OFFCURVE",
"119 428 OFFCURVE",
"159 403 CURVE",
"229 444 OFFCURVE",
"281 471 OFFCURVE",
"357 480 CURVE"
);
}
);
};
layerId = "AF1B7CCB-9C31-456C-8386-1D362D80AEF6";
name = "Bold Italic";
paths = (
{
closed = 1;
nodes = (
"457 318 OFFCURVE",
"304 244 OFFCURVE",
"304 211 CURVE SMOOTH",
"304 188 OFFCURVE",
"315 162 OFFCURVE",
"334 140 CURVE",
"267 130 OFFCURVE",
"208 134 OFFCURVE",
"163 150 CURVE",
"221 260 OFFCURVE",
"498 345 OFFCURVE",
"498 485 CURVE SMOOTH",
"498 542 OFFCURVE",
"418 619 OFFCURVE",
"341 619 CURVE SMOOTH",
"228 619 OFFCURVE",
"90 575 OFFCURVE",
"90 507 CURVE SMOOTH",
"90 465 OFFCURVE",
"119 428 OFFCURVE",
"159 403 CURVE",
"229 444 OFFCURVE",
"281 471 OFFCURVE",
"357 480 CURVE",
"289 375 OFFCURVE",
"-4 295 OFFCURVE",
"-4 172 CURVE SMOOTH",
"-4 116 OFFCURVE",
"92 0 OFFCURVE",
"168 0 CURVE SMOOTH",
"325 0 OFFCURVE",
"594 74 OFFCURVE",
"594 156 CURVE SMOOTH",
"594 217 OFFCURVE",
"552 313 OFFCURVE",
"515 315 CURVE SMOOTH"
);
}
);
width = 637;
},
{
associatedMasterId = "AF1B7CCB-9C31-456C-8386-1D362D80AEF6";
background = {
paths = (
{
closed = 1;
nodes = (
"318 0 OFFCURVE",
"540 96 OFFCURVE",
"540 177 CURVE SMOOTH",
"540 231 OFFCURVE",
"508 272 OFFCURVE",
"440 286 CURVE",
"377 223 OFFCURVE",
"308 187 OFFCURVE",
"214 151 CURVE",
"192 183 LINE",
"340 266 OFFCURVE",
"510 379 OFFCURVE",
"510 485 CURVE SMOOTH",
"510 539 OFFCURVE",
"436 619 OFFCURVE",
"353 619 CURVE SMOOTH",
"240 619 OFFCURVE",
"102 575 OFFCURVE",
"102 507 CURVE SMOOTH",
"102 465 OFFCURVE",
"131 428 OFFCURVE",
"171 403 CURVE",
"241 444 OFFCURVE",
"293 471 OFFCURVE",
"369 480 CURVE",
"337 367 OFFCURVE",
"13 280 OFFCURVE",
"13 192 CURVE SMOOTH",
"13 125 OFFCURVE",
"122 0 OFFCURVE",
"221 0 CURVE SMOOTH"
);
},
{
closed = 0;
nodes = (
"221 0 LINE",
"400 23 OFFCURVE",
"567 100 OFFCURVE",
"589 185 CURVE SMOOTH",
"609 263 OFFCURVE",
"519 363 OFFCURVE",
"442 382 CURVE SMOOTH",
"342 408 OFFCURVE",
"195 400 OFFCURVE",
"179 336 CURVE SMOOTH",
"166 287 OFFCURVE",
"224 188 OFFCURVE",
"318 130 CURVE",
"383 155 LINE",
"344 178 OFFCURVE",
"322 213 OFFCURVE",
"317 248 CURVE",
"346 261 OFFCURVE",
"388 266 OFFCURVE",
"441 261 CURVE",
"372 154 OFFCURVE",
"291 107 OFFCURVE",
"151 89 CURVE"
);
}
);
};
layerId = "75929E1B-E1D2-4CA2-814D-F2F488A35AE8";
name = "Bold Italic Jul 14 15, 22:57";
paths = (
{
closed = 1;
nodes = (
"185 207 LINE",
"333 290 OFFCURVE",
"510 379 OFFCURVE",
"510 485 CURVE SMOOTH",
"510 539 OFFCURVE",
"436 619 OFFCURVE",
"353 619 CURVE SMOOTH",
"240 619 OFFCURVE",
"102 575 OFFCURVE",
"102 507 CURVE SMOOTH",
"102 465 OFFCURVE",
"131 428 OFFCURVE",
"171 403 CURVE",
"241 444 OFFCURVE",
"293 471 OFFCURVE",
"369 480 CURVE",
"337 367 OFFCURVE",
"6 304 OFFCURVE",
"6 216 CURVE SMOOTH",
"6 141 OFFCURVE",
"98 12 OFFCURVE",
"198 0 CURVE SMOOTH",
"344 -17 OFFCURVE",
"551 90 OFFCURVE",
"561 177 CURVE SMOOTH",
"567 225 OFFCURVE",
"518 291 OFFCURVE",
"460 314 CURVE SMOOTH",
"411 333 OFFCURVE",
"291 308 OFFCURVE",
"284 260 CURVE SMOOTH",
"280 226 OFFCURVE",
"305 175 OFFCURVE",
"365 126 CURVE",
"418 140 LINE",
"390 162 OFFCURVE",
"376 191 OFFCURVE",
"375 218 CURVE",
"399 226 OFFCURVE",
"439 230 OFFCURVE",
"478 213 CURVE",
"411 149 OFFCURVE",
"363 130 OFFCURVE",
"226 120 CURVE"
);
}
);
width = 604;
}
);
unicode = 0AA2;
},
{
glyphname = gjNNA;
lastChange = "2015-07-22 13:07:28 +0000";
layers = (
{
background = {
paths = (
{
closed = 1;
nodes = (
"374 -101 OFFCURVE",
"527 -49 OFFCURVE",
"526 27 CURVE SMOOTH",
"526 65 OFFCURVE",
"508 98 OFFCURVE",
"454 124 CURVE",
"352 71 OFFCURVE",
"267 48 OFFCURVE",
"143 38 CURVE",
"183 264 OFFCURVE",
"285 461 OFFCURVE",
"285 522 CURVE SMOOTH",
"284 551 OFFCURVE",
"168 583 OFFCURVE",
"118 583 CURVE SMOOTH",
"82 583 OFFCURVE",
"-14 137 OFFCURVE",
"-13 76 CURVE SMOOTH",
"-13 -6 OFFCURVE",
"112 -101 OFFCURVE",
"180 -101 CURVE SMOOTH"
);
},
{
closed = 1;
nodes = (
"892 0 OFFCURVE",
"1101 122 OFFCURVE",
"1101 193 CURVE SMOOTH",
"1101 237 OFFCURVE",
"1049 293 OFFCURVE",
"980 312 CURVE",
"937 257 OFFCURVE",
"899 208 OFFCURVE",
"842 175 CURVE",
"890 315 OFFCURVE",
"964 471 OFFCURVE",
"964 522 CURVE SMOOTH",
"964 551 OFFCURVE",
"848 583 OFFCURVE",
"798 583 CURVE SMOOTH",
"762 583 OFFCURVE",
"668 163 OFFCURVE",
"668 123 CURVE SMOOTH",
"668 86 OFFCURVE",
"781 0 OFFCURVE",
"831 0 CURVE SMOOTH"
);
},
{
closed = 1;
nodes = (
"348 166 OFFCURVE",
"262 243 OFFCURVE",
"262 292 CURVE SMOOTH",
"261 311 OFFCURVE",
"267 328 OFFCURVE",
"278 344 CURVE",
"346 362 OFFCURVE",
"394 353 OFFCURVE",
"429 312 CURVE",
"425 299 OFFCURVE",
"421 283 OFFCURVE",
"422 268 CURVE",
"519 310 OFFCURVE",
"563 401 OFFCURVE",
"554 489 CURVE",
"495 476 OFFCURVE",
"443 458 OFFCURVE",
"393 423 CURVE",
"353 448 OFFCURVE",
"328 477 OFFCURVE",
"328 516 CURVE SMOOTH",
"327 587 OFFCURVE",
"438 619 OFFCURVE",
"514 619 CURVE SMOOTH",
"600 619 OFFCURVE",
"692 536 OFFCURVE",
"692 483 CURVE SMOOTH",
"694 293 OFFCURVE",
"576 166 OFFCURVE",
"423 166 CURVE SMOOTH"
);
}
);
};
layerId = "AF1B7CCB-9C31-456C-8386-1D362D80AEF6";
name = "Bold Italic";
paths = (
{
closed = 1;
nodes = (
"374 -101 OFFCURVE",
"527 -49 OFFCURVE",
"526 27 CURVE SMOOTH",
"526 65 OFFCURVE",
"508 98 OFFCURVE",
"454 124 CURVE",
"352 71 OFFCURVE",
"267 48 OFFCURVE",
"145 47 CURVE",
"183 264 OFFCURVE",
"285 461 OFFCURVE",
"285 522 CURVE SMOOTH",
"284 551 OFFCURVE",
"168 583 OFFCURVE",
"118 583 CURVE SMOOTH",
"82 583 OFFCURVE",
"-14 137 OFFCURVE",
"-13 76 CURVE SMOOTH",
"-13 2 OFFCURVE",
"96 -101 OFFCURVE",
"169 -101 CURVE SMOOTH"
);
},
{
closed = 1;
nodes = (
"868 0 OFFCURVE",
"1077 122 OFFCURVE",
"1077 193 CURVE SMOOTH",
"1077 237 OFFCURVE",
"1025 293 OFFCURVE",
"956 312 CURVE",
"913 257 OFFCURVE",
"875 208 OFFCURVE",
"818 175 CURVE",
"866 315 OFFCURVE",
"940 471 OFFCURVE",
"940 522 CURVE SMOOTH",
"940 551 OFFCURVE",
"824 583 OFFCURVE",
"774 583 CURVE SMOOTH",
"738 583 OFFCURVE",
"644 163 OFFCURVE",
"644 123 CURVE SMOOTH",
"644 86 OFFCURVE",
"757 0 OFFCURVE",
"807 0 CURVE SMOOTH"
);
},
{
closed = 1;
nodes = (
"341 166 OFFCURVE",
"262 242 OFFCURVE",
"262 292 CURVE SMOOTH",
"262 311 OFFCURVE",
"266 328 OFFCURVE",
"276 344 CURVE",
"344 362 OFFCURVE",
"387 353 OFFCURVE",
"424 312 CURVE",
"420 299 OFFCURVE",
"417 283 OFFCURVE",
"418 268 CURVE",
"508 307 OFFCURVE",
"543 408 OFFCURVE",
"535 489 CURVE",
"475 479 OFFCURVE",
"438 467 OFFCURVE",
"379 433 CURVE",
"342 455 OFFCURVE",
"323 483 OFFCURVE",
"323 517 CURVE SMOOTH",
"323 583 OFFCURVE",
"398 619 OFFCURVE",
"506 619 CURVE SMOOTH",
"590 619 OFFCURVE",
"670 531 OFFCURVE",
"670 475 CURVE SMOOTH",
"670 314 OFFCURVE",
"564 166 OFFCURVE",
"406 166 CURVE SMOOTH"
);
}
);
width = 1109;
},
{
associatedMasterId = "AF1B7CCB-9C31-456C-8386-1D362D80AEF6";
background = {
paths = (
{
closed = 1;
nodes = (
"373 -111 OFFCURVE",
"526 -59 OFFCURVE",
"525 17 CURVE SMOOTH",
"525 55 OFFCURVE",
"507 88 OFFCURVE",
"453 114 CURVE",
"351 61 OFFCURVE",
"266 38 OFFCURVE",
"142 28 CURVE",
"182 254 OFFCURVE",
"285 461 OFFCURVE",
"285 522 CURVE SMOOTH",
"284 551 OFFCURVE",
"168 583 OFFCURVE",
"118 583 CURVE SMOOTH",
"82 583 OFFCURVE",
"-15 127 OFFCURVE",
"-14 66 CURVE SMOOTH",
"-14 -16 OFFCURVE",
"111 -111 OFFCURVE",
"179 -111 CURVE SMOOTH"
);
},
{
closed = 1;
nodes = (
"892 0 OFFCURVE",
"1101 122 OFFCURVE",
"1101 193 CURVE SMOOTH",
"1101 237 OFFCURVE",
"1049 293 OFFCURVE",
"980 312 CURVE",
"937 257 OFFCURVE",
"899 208 OFFCURVE",
"842 175 CURVE",
"890 315 OFFCURVE",
"964 471 OFFCURVE",
"964 522 CURVE SMOOTH",
"964 551 OFFCURVE",
"848 583 OFFCURVE",
"798 583 CURVE SMOOTH",
"762 583 OFFCURVE",
"668 163 OFFCURVE",
"668 123 CURVE SMOOTH",
"668 86 OFFCURVE",
"781 0 OFFCURVE",
"831 0 CURVE SMOOTH"
);
},
{
closed = 1;
nodes = (
"348 153 OFFCURVE",
"262 230 OFFCURVE",
"262 279 CURVE SMOOTH",
"261 298 OFFCURVE",
"267 315 OFFCURVE",
"278 331 CURVE",
"346 349 OFFCURVE",
"394 340 OFFCURVE",
"429 299 CURVE",
"425 286 OFFCURVE",
"421 270 OFFCURVE",
"422 255 CURVE",
"510 299 OFFCURVE",
"547 367 OFFCURVE",
"544 453 CURVE",
"485 440 OFFCURVE",
"433 422 OFFCURVE",
"383 387 CURVE",
"343 412 OFFCURVE",
"318 441 OFFCURVE",
"318 480 CURVE SMOOTH",
"317 551 OFFCURVE",
"428 583 OFFCURVE",
"504 583 CURVE SMOOTH",
"590 583 OFFCURVE",
"682 500 OFFCURVE",
"682 447 CURVE SMOOTH",
"684 292 OFFCURVE",
"591 153 OFFCURVE",
"423 153 CURVE SMOOTH"
);
}
);
};
layerId = "B9657290-F58C-4065-8BA7-E3A0C10F41EB";
name = "Bold Italic Jul 22 15, 17:53";
paths = (
{
closed = 1;
nodes = (
"374 -101 OFFCURVE",
"527 -49 OFFCURVE",
"526 27 CURVE SMOOTH",
"526 65 OFFCURVE",
"508 98 OFFCURVE",
"454 124 CURVE",
"352 71 OFFCURVE",
"267 48 OFFCURVE",
"143 38 CURVE",
"183 264 OFFCURVE",
"285 461 OFFCURVE",
"285 522 CURVE SMOOTH",
"284 551 OFFCURVE",
"168 583 OFFCURVE",
"118 583 CURVE SMOOTH",
"82 583 OFFCURVE",
"-14 137 OFFCURVE",
"-13 76 CURVE SMOOTH",
"-13 -6 OFFCURVE",
"112 -101 OFFCURVE",
"180 -101 CURVE SMOOTH"
);
},
{
closed = 1;
nodes = (
"892 0 OFFCURVE",
"1101 122 OFFCURVE",
"1101 193 CURVE SMOOTH",
"1101 237 OFFCURVE",
"1049 293 OFFCURVE",
"980 312 CURVE",
"937 257 OFFCURVE",
"899 208 OFFCURVE",
"842 175 CURVE",
"890 315 OFFCURVE",
"964 471 OFFCURVE",
"964 522 CURVE SMOOTH",
"964 551 OFFCURVE",
"848 583 OFFCURVE",
"798 583 CURVE SMOOTH",
"762 583 OFFCURVE",
"668 163 OFFCURVE",
"668 123 CURVE SMOOTH",
"668 86 OFFCURVE",
"781 0 OFFCURVE",
"831 0 CURVE SMOOTH"
);
},
{
closed = 1;
nodes = (
"348 166 OFFCURVE",
"262 243 OFFCURVE",
"262 292 CURVE SMOOTH",
"261 311 OFFCURVE",
"267 328 OFFCURVE",
"278 344 CURVE",
"346 362 OFFCURVE",
"394 353 OFFCURVE",
"429 312 CURVE",
"425 299 OFFCURVE",
"421 283 OFFCURVE",
"422 268 CURVE",
"519 310 OFFCURVE",
"563 401 OFFCURVE",
"554 489 CURVE",
"495 476 OFFCURVE",
"443 458 OFFCURVE",
"393 423 CURVE",
"353 448 OFFCURVE",
"328 477 OFFCURVE",
"328 516 CURVE SMOOTH",
"327 587 OFFCURVE",
"438 619 OFFCURVE",
"514 619 CURVE SMOOTH",
"600 619 OFFCURVE",
"692 536 OFFCURVE",
"692 483 CURVE SMOOTH",
"694 293 OFFCURVE",
"576 166 OFFCURVE",
"423 166 CURVE SMOOTH"
);
}
);
width = 1133;
}
);
rightMetricsKey = gjmAA;
unicode = 0AA3;
},
{
glyphname = gjTA;
lastChange = "2015-07-21 08:46:20 +0000";
layers = (
{
background = {
paths = (
{
closed = 1;
nodes = (
"260 0 OFFCURVE",
"293 43 OFFCURVE",
"293 108 CURVE",
"213 155 OFFCURVE",
"172 226 OFFCURVE",
"163 307 CURVE",
"257 335 OFFCURVE",
"371 315 OFFCURVE",
"455 274 CURVE",
"512 368 LINE",
"417 423 OFFCURVE",
"298 461 OFFCURVE",
"202 461 CURVE SMOOTH",
"74 461 OFFCURVE",
"-10 378 OFFCURVE",
"-10 276 CURVE SMOOTH",
"-10 164 OFFCURVE",
"66 0 OFFCURVE",
"181 0 CURVE SMOOTH"
);
},
{
closed = 1;
nodes = (
"420 583 OFFCURVE",
"326 163 OFFCURVE",
"326 123 CURVE SMOOTH",
"326 86 OFFCURVE",
"439 0 OFFCURVE",
"489 0 CURVE SMOOTH",
"550 0 OFFCURVE",
"759 122 OFFCURVE",
"759 193 CURVE SMOOTH",
"759 237 OFFCURVE",
"707 293 OFFCURVE",
"638 312 CURVE",
"595 257 OFFCURVE",
"557 208 OFFCURVE",
"500 175 CURVE",
"548 315 OFFCURVE",
"622 471 OFFCURVE",
"622 522 CURVE SMOOTH",
"622 551 OFFCURVE",
"506 583 OFFCURVE",
"456 583 CURVE SMOOTH"
);
}
);
};
layerId = "AF1B7CCB-9C31-456C-8386-1D362D80AEF6";
name = "Bold Italic";
paths = (
{
closed = 1;
nodes = (
"595 257 OFFCURVE",
"557 208 OFFCURVE",
"500 175 CURVE",
"548 315 OFFCURVE",
"622 471 OFFCURVE",
"622 522 CURVE SMOOTH",
"622 551 OFFCURVE",
"506 583 OFFCURVE",
"456 583 CURVE SMOOTH",
"441 583 OFFCURVE",
"416 511 OFFCURVE",
"392 424 CURVE",
"327 447 OFFCURVE",
"260 461 OFFCURVE",
"202 461 CURVE SMOOTH",
"74 461 OFFCURVE",
"-10 378 OFFCURVE",
"-10 276 CURVE SMOOTH",
"-10 162 OFFCURVE",
"68 0 OFFCURVE",
"174 0 CURVE SMOOTH",
"260 0 OFFCURVE",
"286 55 OFFCURVE",
"283 115 CURVE",
"208 161 OFFCURVE",
"166 240 OFFCURVE",
"159 315 CURVE",
"221 335 OFFCURVE",
"322 324 OFFCURVE",
"383 306 CURVE",
"357 248 OFFCURVE",
"326 155 OFFCURVE",
"326 123 CURVE SMOOTH",
"326 86 OFFCURVE",
"439 0 OFFCURVE",
"489 0 CURVE SMOOTH",
"550 0 OFFCURVE",
"759 122 OFFCURVE",
"759 193 CURVE SMOOTH",
"759 237 OFFCURVE",
"707 293 OFFCURVE",
"638 312 CURVE"
);
}
);
width = 791;
}
);
unicode = 0AA4;
},
{
glyphname = gjTHA;
lastChange = "2015-07-17 13:07:17 +0000";
layers = (
{
background = {
paths = (
{
closed = 1;
nodes = (
"463 583 OFFCURVE",
"485 341 OFFCURVE",
"190 214 CURVE",
"163 245 LINE",
"302 309 OFFCURVE",
"413 433 OFFCURVE",
"413 495 CURVE SMOOTH",
"413 550 OFFCURVE",
"318 619 OFFCURVE",
"244 619 CURVE SMOOTH",
"146 619 OFFCURVE",
"8 576 OFFCURVE",
"8 510 CURVE SMOOTH",
"8 465 OFFCURVE",
"34 431 OFFCURVE",
"81 398 CURVE",
"137 436 OFFCURVE",
"191 458 OFFCURVE",
"261 480 CURVE",
"188 354 OFFCURVE",
"-10 325 OFFCURVE",
"-10 258 CURVE SMOOTH",
"-10 197 OFFCURVE",
"78 98 OFFCURVE",
"151 98 CURVE SMOOTH",
"248 98 OFFCURVE",
"377 177 OFFCURVE",
"445 262 CURVE",
"464 247 LINE",
"426 196 OFFCURVE",
"386 141 OFFCURVE",
"386 118 CURVE SMOOTH",
"386 82 OFFCURVE",
"494 0 OFFCURVE",
"544 0 CURVE SMOOTH",
"605 0 OFFCURVE",
"814 122 OFFCURVE",
"814 193 CURVE SMOOTH",
"814 237 OFFCURVE",
"762 293 OFFCURVE",
"693 312 CURVE",
"650 257 OFFCURVE",
"612 208 OFFCURVE",
"555 175 CURVE",
"603 315 OFFCURVE",
"677 471 OFFCURVE",
"677 522 CURVE SMOOTH",
"677 551 OFFCURVE",
"560 583 OFFCURVE",
"517 583 CURVE SMOOTH"
);
}
);
};
layerId = "AF1B7CCB-9C31-456C-8386-1D362D80AEF6";
name = "Bold Italic";
paths = (
{
closed = 1;
nodes = (
"426 196 OFFCURVE",
"386 141 OFFCURVE",
"386 118 CURVE SMOOTH",
"386 82 OFFCURVE",
"494 0 OFFCURVE",
"544 0 CURVE SMOOTH",
"605 0 OFFCURVE",
"814 122 OFFCURVE",
"814 193 CURVE SMOOTH",
"814 237 OFFCURVE",
"762 293 OFFCURVE",
"693 312 CURVE",
"650 257 OFFCURVE",
"612 208 OFFCURVE",
"555 175 CURVE",
"603 315 OFFCURVE",
"677 471 OFFCURVE",
"677 522 CURVE SMOOTH",
"677 551 OFFCURVE",
"560 583 OFFCURVE",
"517 583 CURVE SMOOTH",
"463 583 OFFCURVE",
"485 341 OFFCURVE",
"190 214 CURVE",
"163 245 LINE",
"300 308 OFFCURVE",
"413 433 OFFCURVE",
"413 495 CURVE SMOOTH",
"413 559 OFFCURVE",
"310 619 OFFCURVE",
"240 619 CURVE SMOOTH",
"143 619 OFFCURVE",
"19 575 OFFCURVE",
"19 523 CURVE SMOOTH",
"19 463 OFFCURVE",
"85 397 OFFCURVE",
"158 371 CURVE",
"204 401 LINE",
"178 417 OFFCURVE",
"163 438 OFFCURVE",
"152 463 CURVE",
"189 487 OFFCURVE",
"232 502 OFFCURVE",
"278 503 CURVE",
"204 350 OFFCURVE",
"-10 332 OFFCURVE",
"-10 258 CURVE SMOOTH",
"-10 197 OFFCURVE",
"78 98 OFFCURVE",
"151 98 CURVE SMOOTH",
"248 98 OFFCURVE",
"377 177 OFFCURVE",
"445 262 CURVE",
"464 247 LINE"
);
}
);
width = 846;
},
{
associatedMasterId = "AF1B7CCB-9C31-456C-8386-1D362D80AEF6";
background = {
paths = (
{
closed = 1;
nodes = (
"21 331 OFFCURVE",
"21 258 CURVE SMOOTH",
"21 197 OFFCURVE",
"109 98 OFFCURVE",
"182 98 CURVE SMOOTH",
"279 98 OFFCURVE",
"408 177 OFFCURVE",
"476 262 CURVE",
"495 247 LINE",
"457 196 OFFCURVE",
"417 141 OFFCURVE",
"417 118 CURVE SMOOTH",
"417 79 OFFCURVE",
"529 -1 OFFCURVE",
"573 -1 CURVE SMOOTH",
"655 -1 OFFCURVE",
"845 132 OFFCURVE",
"845 191 CURVE SMOOTH",
"845 247 OFFCURVE",
"779 298 OFFCURVE",
"724 312 CURVE",
"686 267 OFFCURVE",
"649 222 OFFCURVE",
"607 197 CURVE",
"649 322 OFFCURVE",
"728 457 OFFCURVE",
"728 515 CURVE SMOOTH",
"728 542 OFFCURVE",
"601 583 OFFCURVE",
"548 583 CURVE SMOOTH",
"494 583 OFFCURVE",
"506 346 OFFCURVE",
"219 226 CURVE",
"204 249 LINE",
"337 318 OFFCURVE",
"444 433 OFFCURVE",
"444 495 CURVE SMOOTH",
"444 550 OFFCURVE",
"349 619 OFFCURVE",
"275 619 CURVE SMOOTH",
"177 619 OFFCURVE",
"39 576 OFFCURVE",
"39 510 CURVE SMOOTH",
"39 440 OFFCURVE",
"114 385 OFFCURVE",
"188 364 CURVE",
"235 400 LINE",
"209 409 OFFCURVE",
"190 434 OFFCURVE",
"181 456 CURVE",
"213 477 OFFCURVE",
"262 499 OFFCURVE",
"307 506 CURVE",
"247 358 OFFCURVE"
);
}
);
};
layerId = "37AEB201-9A77-4BD8-9D69-CEC8F660AAE1";
name = "Bold Italic Jul 10 15, 13:32";
paths = (
{
closed = 1;
nodes = (
"655 -1 OFFCURVE",
"845 132 OFFCURVE",
"845 191 CURVE SMOOTH",
"845 247 OFFCURVE",
"779 298 OFFCURVE",
"724 312 CURVE",
"686 267 OFFCURVE",
"649 222 OFFCURVE",
"607 197 CURVE",
"649 322 OFFCURVE",
"728 457 OFFCURVE",
"728 515 CURVE SMOOTH",
"728 542 OFFCURVE",
"601 583 OFFCURVE",
"548 583 CURVE SMOOTH",
"494 583 OFFCURVE",
"506 346 OFFCURVE",
"219 226 CURVE",
"204 249 LINE",
"337 318 OFFCURVE",
"444 433 OFFCURVE",
"444 495 CURVE SMOOTH",
"444 559 OFFCURVE",
"341 619 OFFCURVE",
"271 619 CURVE SMOOTH",
"174 619 OFFCURVE",
"50 575 OFFCURVE",
"50 523 CURVE SMOOTH",
"50 463 OFFCURVE",
"116 397 OFFCURVE",
"189 371 CURVE",
"235 401 LINE",
"209 417 OFFCURVE",
"194 438 OFFCURVE",
"183 463 CURVE",
"220 487 OFFCURVE",
"263 502 OFFCURVE",
"309 503 CURVE",
"242 357 OFFCURVE",
"21 331 OFFCURVE",
"21 258 CURVE SMOOTH",
"21 197 OFFCURVE",
"109 98 OFFCURVE",
"182 98 CURVE SMOOTH",
"279 98 OFFCURVE",
"408 177 OFFCURVE",
"476 262 CURVE",
"495 247 LINE",
"457 196 OFFCURVE",
"417 141 OFFCURVE",
"417 118 CURVE SMOOTH",
"417 79 OFFCURVE",
"529 -1 OFFCURVE",
"573 -1 CURVE SMOOTH"
);
}
);
width = 875;
},
{
associatedMasterId = "AF1B7CCB-9C31-456C-8386-1D362D80AEF6";
background = {
paths = (
{
closed = 1;
nodes = (
"655 -1 OFFCURVE",
"845 132 OFFCURVE",
"845 191 CURVE SMOOTH",
"845 247 OFFCURVE",
"779 298 OFFCURVE",
"724 312 CURVE",
"686 267 OFFCURVE",
"649 222 OFFCURVE",
"607 197 CURVE",
"649 322 OFFCURVE",
"728 457 OFFCURVE",
"728 515 CURVE SMOOTH",
"728 542 OFFCURVE",
"601 583 OFFCURVE",
"548 583 CURVE SMOOTH",
"494 583 OFFCURVE",
"506 346 OFFCURVE",
"219 226 CURVE",
"204 249 LINE",
"337 318 OFFCURVE",
"444 433 OFFCURVE",
"444 495 CURVE SMOOTH",
"444 559 OFFCURVE",
"341 619 OFFCURVE",
"271 619 CURVE SMOOTH",
"174 619 OFFCURVE",
"50 575 OFFCURVE",
"50 523 CURVE SMOOTH",
"50 463 OFFCURVE",
"116 397 OFFCURVE",
"189 371 CURVE",
"235 401 LINE",
"209 417 OFFCURVE",
"194 438 OFFCURVE",
"183 463 CURVE",
"220 487 OFFCURVE",
"263 502 OFFCURVE",
"309 503 CURVE",
"242 357 OFFCURVE",
"21 331 OFFCURVE",
"21 258 CURVE SMOOTH",
"21 197 OFFCURVE",
"109 98 OFFCURVE",
"182 98 CURVE SMOOTH",
"279 98 OFFCURVE",
"408 177 OFFCURVE",
"476 262 CURVE",
"495 247 LINE",
"457 196 OFFCURVE",
"417 141 OFFCURVE",
"417 118 CURVE SMOOTH",
"417 79 OFFCURVE",
"529 -1 OFFCURVE",
"573 -1 CURVE SMOOTH"
);
},
{
closed = 0;
nodes = (
"548 583 LINE SMOOTH",
"494 583 OFFCURVE",
"506 346 OFFCURVE",
"219 219 CURVE",
"192 250 LINE",
"331 308 OFFCURVE",
"444 433 OFFCURVE",
"444 495 CURVE SMOOTH"
);
},
{
closed = 0;
nodes = (
"292 480 LINE",
"219 354 OFFCURVE",
"21 325 OFFCURVE",
"21 258 CURVE SMOOTH"
);
}
);
};
layerId = "57D2390B-6D71-4535-8723-4F7FB25E50D2";
name = "Bold Italic Jul 10 15, 21:27";
paths = (
{
closed = 1;
nodes = (
"444 559 OFFCURVE",
"341 619 OFFCURVE",
"271 619 CURVE SMOOTH",
"174 619 OFFCURVE",
"50 575 OFFCURVE",
"50 523 CURVE SMOOTH",
"50 463 OFFCURVE",
"116 397 OFFCURVE",
"189 371 CURVE",
"235 401 LINE",
"209 417 OFFCURVE",
"194 438 OFFCURVE",
"183 463 CURVE",
"220 487 OFFCURVE",
"263 502 OFFCURVE",
"309 503 CURVE",
"235 350 OFFCURVE",
"21 332 OFFCURVE",
"21 258 CURVE SMOOTH",
"21 197 OFFCURVE",
"109 98 OFFCURVE",
"182 98 CURVE SMOOTH",
"279 98 OFFCURVE",
"408 177 OFFCURVE",
"476 262 CURVE",
"495 247 LINE",
"457 196 OFFCURVE",
"417 141 OFFCURVE",
"417 118 CURVE SMOOTH",
"417 79 OFFCURVE",
"529 -1 OFFCURVE",
"573 -1 CURVE SMOOTH",
"655 -1 OFFCURVE",
"845 132 OFFCURVE",
"845 191 CURVE SMOOTH",
"845 247 OFFCURVE",
"779 298 OFFCURVE",
"724 312 CURVE",
"686 267 OFFCURVE",
"649 222 OFFCURVE",
"607 197 CURVE",
"649 322 OFFCURVE",
"728 457 OFFCURVE",
"728 515 CURVE SMOOTH",
"728 542 OFFCURVE",
"601 583 OFFCURVE",
"548 583 CURVE SMOOTH",
"494 583 OFFCURVE",
"506 346 OFFCURVE",
"219 219 CURVE",
"192 250 LINE",
"331 308 OFFCURVE",
"444 433 OFFCURVE",
"444 495 CURVE SMOOTH"
);
}
);
width = 875;
},
{
associatedMasterId = "AF1B7CCB-9C31-456C-8386-1D362D80AEF6";
background = {
paths = (
{
closed = 1;
nodes = (
"448 196 OFFCURVE",
"408 141 OFFCURVE",
"408 118 CURVE SMOOTH",
"408 82 OFFCURVE",
"516 0 OFFCURVE",
"566 0 CURVE SMOOTH",
"627 0 OFFCURVE",
"836 122 OFFCURVE",
"836 193 CURVE SMOOTH",
"836 237 OFFCURVE",
"784 293 OFFCURVE",
"715 312 CURVE",
"672 257 OFFCURVE",
"634 208 OFFCURVE",
"577 175 CURVE",
"625 315 OFFCURVE",
"699 471 OFFCURVE",
"699 522 CURVE SMOOTH",
"699 551 OFFCURVE",
"582 583 OFFCURVE",
"539 583 CURVE SMOOTH",
"485 583 OFFCURVE",
"507 341 OFFCURVE",
"212 214 CURVE",
"185 245 LINE",
"322 308 OFFCURVE",
"435 433 OFFCURVE",
"435 495 CURVE SMOOTH",
"435 559 OFFCURVE",
"332 619 OFFCURVE",
"262 619 CURVE SMOOTH",
"165 619 OFFCURVE",
"41 575 OFFCURVE",
"41 523 CURVE SMOOTH",
"41 463 OFFCURVE",
"107 397 OFFCURVE",
"180 371 CURVE",
"226 401 LINE",
"200 417 OFFCURVE",
"185 438 OFFCURVE",
"174 463 CURVE",
"211 487 OFFCURVE",
"254 502 OFFCURVE",
"300 503 CURVE",
"226 350 OFFCURVE",
"12 332 OFFCURVE",
"12 258 CURVE SMOOTH",
"12 197 OFFCURVE",
"100 98 OFFCURVE",
"173 98 CURVE SMOOTH",
"270 98 OFFCURVE",
"399 177 OFFCURVE",
"467 262 CURVE",
"486 247 LINE"
);
}
);
};
layerId = "A51680D2-CE06-4C45-8E6A-132A4073AF55";
name = equal;
paths = (
{
closed = 1;
nodes = (
"270 98 OFFCURVE",
"399 177 OFFCURVE",
"467 262 CURVE",
"486 247 LINE",
"448 196 OFFCURVE",
"408 141 OFFCURVE",
"408 118 CURVE SMOOTH",
"408 82 OFFCURVE",
"516 0 OFFCURVE",
"566 0 CURVE SMOOTH",
"627 0 OFFCURVE",
"836 122 OFFCURVE",
"836 193 CURVE SMOOTH",
"836 237 OFFCURVE",
"784 293 OFFCURVE",
"715 312 CURVE",
"672 257 OFFCURVE",
"634 208 OFFCURVE",
"577 175 CURVE",
"625 315 OFFCURVE",
"705 480 OFFCURVE",
"705 541 CURVE SMOOTH",
"705 570 OFFCURVE",
"588 602 OFFCURVE",
"545 602 CURVE SMOOTH",
"487 602 OFFCURVE",
"520 349 OFFCURVE",
"212 214 CURVE",
"185 245 LINE",
"322 308 OFFCURVE",
"435 433 OFFCURVE",
"435 495 CURVE SMOOTH",
"435 559 OFFCURVE",
"332 619 OFFCURVE",
"262 619 CURVE SMOOTH",
"165 619 OFFCURVE",
"41 575 OFFCURVE",
"41 523 CURVE SMOOTH",
"41 463 OFFCURVE",
"107 397 OFFCURVE",
"180 371 CURVE",
"226 401 LINE",
"200 417 OFFCURVE",
"185 438 OFFCURVE",
"174 463 CURVE",
"211 487 OFFCURVE",
"254 502 OFFCURVE",
"300 503 CURVE",
"226 350 OFFCURVE",
"12 332 OFFCURVE",
"12 258 CURVE SMOOTH",
"12 197 OFFCURVE",
"100 98 OFFCURVE",
"173 98 CURVE SMOOTH"
);
}
);
width = 893;
}
);
rightMetricsKey = gjmAA;
unicode = 0AA5;
},
{
glyphname = gjDA;
lastChange = "2015-07-17 13:12:46 +0000";
layers = (
{
background = {
paths = (
{
closed = 1;
nodes = (
"458 302 LINE",
"393 237 OFFCURVE",
"347 194 OFFCURVE",
"217 141 CURVE",
"193 171 LINE",
"268 219 OFFCURVE",
"345 293 OFFCURVE",
"345 324 CURVE SMOOTH",
"345 355 OFFCURVE",
"271 361 OFFCURVE",
"221 404 CURVE",
"258 449 OFFCURVE",
"324 481 OFFCURVE",
"383 490 CURVE",
"400 539 OFFCURVE",
"389 606 OFFCURVE",
"311 619 CURVE",
"205 619 OFFCURVE",
"46 493 OFFCURVE",
"47 445 CURVE SMOOTH",
"48 406 OFFCURVE",
"106 360 OFFCURVE",
"164 326 CURVE",
"94 276 OFFCURVE",
"-13 222 OFFCURVE",
"-13 189 CURVE SMOOTH",
"-13 115 OFFCURVE",
"136 -1 OFFCURVE",
"230 -1 CURVE SMOOTH",
"338 -1 OFFCURVE",
"448 124 OFFCURVE",
"524 197 CURVE"
);
}
);
};
layerId = "AF1B7CCB-9C31-456C-8386-1D362D80AEF6";
name = "Bold Italic";
paths = (
{
closed = 1;
nodes = (
"532 223 OFFCURVE",
"491 259 OFFCURVE",
"429 272 CURVE",
"352 195 OFFCURVE",
"273 158 OFFCURVE",
"167 137 CURVE",
"233 219 OFFCURVE",
"396 293 OFFCURVE",
"396 336 CURVE SMOOTH",
"396 369 OFFCURVE",
"328 378 OFFCURVE",
"262 419 CURVE",
"318 456 OFFCURVE",
"361 474 OFFCURVE",
"417 490 CURVE",
"436 539 OFFCURVE",
"428 606 OFFCURVE",
"342 619 CURVE",
"233 608 OFFCURVE",
"90 514 OFFCURVE",
"90 463 CURVE SMOOTH",
"90 416 OFFCURVE",
"149 368 OFFCURVE",
"207 336 CURVE",
"135 293 OFFCURVE",
"-6 218 OFFCURVE",
"-6 165 CURVE SMOOTH",
"-6 107 OFFCURVE",
"102 -1 OFFCURVE",
"181 -1 CURVE SMOOTH",
"299 -1 OFFCURVE",
"532 90 OFFCURVE",
"532 166 CURVE SMOOTH"
);
}
);
width = 569;
}
);
unicode = 0AA6;
},
{
glyphname = gjDHA;
lastChange = "2015-07-17 13:12:28 +0000";
layers = (
{
background = {
paths = (
{
closed = 1;
nodes = (
"373 624 OFFCURVE",
"327 682 OFFCURVE",
"246 687 CURVE",
"153 645 OFFCURVE",
"25 549 OFFCURVE",
"25 497 CURVE SMOOTH",
"25 457 OFFCURVE",
"63 425 OFFCURVE",
"97 394 CURVE",
"59 363 OFFCURVE",
"-32 307 OFFCURVE",
"-32 276 CURVE SMOOTH",
"-32 213 OFFCURVE",
"84 95 OFFCURVE",
"173 95 CURVE SMOOTH",
"231 95 OFFCURVE",
"352 183 OFFCURVE",
"411 262 CURVE",
"430 247 LINE",
"392 196 OFFCURVE",
"352 141 OFFCURVE",
"352 118 CURVE SMOOTH",
"352 79 OFFCURVE",
"464 -1 OFFCURVE",
"508 -1 CURVE SMOOTH",
"590 -1 OFFCURVE",
"780 132 OFFCURVE",
"780 191 CURVE SMOOTH",
"780 247 OFFCURVE",
"714 298 OFFCURVE",
"659 312 CURVE",
"621 267 OFFCURVE",
"584 222 OFFCURVE",
"542 197 CURVE",
"584 322 OFFCURVE",
"663 457 OFFCURVE",
"663 515 CURVE SMOOTH",
"663 542 OFFCURVE",
"536 583 OFFCURVE",
"483 583 CURVE SMOOTH",
"433 583 OFFCURVE",
"430 370 OFFCURVE",
"207 248 CURVE",
"180 276 LINE",
"239 314 OFFCURVE",
"299 360 OFFCURVE",
"299 397 CURVE SMOOTH",
"299 418 OFFCURVE",
"249 435 OFFCURVE",
"230 467 CURVE",
"269 502 OFFCURVE",
"319 533 OFFCURVE",
"367 554 CURVE"
);
}
);
};
layerId = "AF1B7CCB-9C31-456C-8386-1D362D80AEF6";
name = "Bold Italic";
paths = (
{
closed = 1;
nodes = (
"260 504 OFFCURVE",
"319 542 OFFCURVE",
"367 563 CURVE",
"368 628 OFFCURVE",
"335 676 OFFCURVE",
"253 687 CURVE",
"160 645 OFFCURVE",
"29 549 OFFCURVE",
"29 505 CURVE SMOOTH",
"29 467 OFFCURVE",
"79 417 OFFCURVE",
"110 390 CURVE",
"80 369 OFFCURVE",
"-18 310 OFFCURVE",
"-18 272 CURVE SMOOTH",
"-18 216 OFFCURVE",
"84 95 OFFCURVE",
"173 95 CURVE SMOOTH",
"231 95 OFFCURVE",
"352 183 OFFCURVE",
"411 262 CURVE",
"430 247 LINE",
"392 196 OFFCURVE",
"352 141 OFFCURVE",
"352 118 CURVE SMOOTH",
"352 82 OFFCURVE",
"460 0 OFFCURVE",
"510 0 CURVE SMOOTH",
"571 0 OFFCURVE",
"780 122 OFFCURVE",
"780 193 CURVE SMOOTH",
"780 237 OFFCURVE",
"728 293 OFFCURVE",
"659 312 CURVE",
"616 257 OFFCURVE",
"578 208 OFFCURVE",
"521 175 CURVE",
"569 315 OFFCURVE",
"643 471 OFFCURVE",
"643 522 CURVE SMOOTH",
"643 551 OFFCURVE",
"526 583 OFFCURVE",
"483 583 CURVE SMOOTH",
"433 583 OFFCURVE",
"448 372 OFFCURVE",
"213 242 CURVE",
"180 276 LINE",
"239 314 OFFCURVE",
"285 356 OFFCURVE",
"285 380 CURVE SMOOTH",
"285 404 OFFCURVE",
"236 431 OFFCURVE",
"212 464 CURVE"
);
}
);
width = 812;
},
{
associatedMasterId = "AF1B7CCB-9C31-456C-8386-1D362D80AEF6";
background = {
paths = (
{
closed = 1;
nodes = (
"266 95 OFFCURVE",
"387 183 OFFCURVE",
"446 262 CURVE",
"465 247 LINE",
"427 196 OFFCURVE",
"387 141 OFFCURVE",
"387 118 CURVE SMOOTH",
"387 79 OFFCURVE",
"499 -1 OFFCURVE",
"543 -1 CURVE SMOOTH",
"625 -1 OFFCURVE",
"815 132 OFFCURVE",
"815 191 CURVE SMOOTH",
"815 247 OFFCURVE",
"749 298 OFFCURVE",
"694 312 CURVE",
"656 267 OFFCURVE",
"619 222 OFFCURVE",
"577 197 CURVE",
"619 322 OFFCURVE",
"698 457 OFFCURVE",
"698 515 CURVE SMOOTH",
"698 542 OFFCURVE",
"571 583 OFFCURVE",
"518 583 CURVE SMOOTH",
"468 583 OFFCURVE",
"465 370 OFFCURVE",
"242 248 CURVE",
"215 276 LINE",
"274 314 OFFCURVE",
"310 345 OFFCURVE",
"310 369 CURVE SMOOTH",
"310 393 OFFCURVE",
"257 410 OFFCURVE",
"238 442 CURVE",
"257 462 OFFCURVE",
"307 495 OFFCURVE",
"330 495 CURVE SMOOTH",
"353 495 OFFCURVE",
"379 480 OFFCURVE",
"403 464 CURVE",
"432 496 LINE",
"400 544 OFFCURVE",
"320 619 OFFCURVE",
"245 619 CURVE SMOOTH",
"168 619 OFFCURVE",
"36 532 OFFCURVE",
"36 472 CURVE SMOOTH",
"36 432 OFFCURVE",
"71 400 OFFCURVE",
"105 369 CURVE",
"75 348 OFFCURVE",
"3 307 OFFCURVE",
"3 276 CURVE SMOOTH",
"3 213 OFFCURVE",
"119 95 OFFCURVE",
"208 95 CURVE SMOOTH"
);
}
);
};
layerId = "41BA6BAB-AC78-4C57-8B9B-04B6A2446E8C";
name = "Bold Italic Jul 10 15, 21:35";
paths = (
{
closed = 1;
nodes = (
"408 624 OFFCURVE",
"362 682 OFFCURVE",
"281 687 CURVE",
"188 645 OFFCURVE",
"60 549 OFFCURVE",
"60 497 CURVE SMOOTH",
"60 457 OFFCURVE",
"98 425 OFFCURVE",
"132 394 CURVE",
"94 363 OFFCURVE",
"3 307 OFFCURVE",
"3 276 CURVE SMOOTH",
"3 213 OFFCURVE",
"119 95 OFFCURVE",
"208 95 CURVE SMOOTH",
"266 95 OFFCURVE",
"387 183 OFFCURVE",
"446 262 CURVE",
"465 247 LINE",
"427 196 OFFCURVE",
"387 141 OFFCURVE",
"387 118 CURVE SMOOTH",
"387 79 OFFCURVE",
"499 -1 OFFCURVE",
"543 -1 CURVE SMOOTH",
"625 -1 OFFCURVE",
"815 132 OFFCURVE",
"815 191 CURVE SMOOTH",
"815 247 OFFCURVE",
"749 298 OFFCURVE",
"694 312 CURVE",
"656 267 OFFCURVE",
"619 222 OFFCURVE",
"577 197 CURVE",
"619 322 OFFCURVE",
"698 457 OFFCURVE",
"698 515 CURVE SMOOTH",
"698 542 OFFCURVE",
"571 583 OFFCURVE",
"518 583 CURVE SMOOTH",
"468 583 OFFCURVE",
"465 370 OFFCURVE",
"242 248 CURVE",
"215 276 LINE",
"274 314 OFFCURVE",
"334 360 OFFCURVE",
"334 397 CURVE SMOOTH",
"334 418 OFFCURVE",
"284 435 OFFCURVE",
"265 467 CURVE",
"304 502 OFFCURVE",
"354 533 OFFCURVE",
"402 554 CURVE"
);
}
);
width = 845;
},
{
associatedMasterId = "AF1B7CCB-9C31-456C-8386-1D362D80AEF6";
background = {
paths = (
{
closed = 1;
nodes = (
"285 504 OFFCURVE",
"344 542 OFFCURVE",
"392 563 CURVE",
"393 628 OFFCURVE",
"360 676 OFFCURVE",
"278 687 CURVE",
"185 645 OFFCURVE",
"54 549 OFFCURVE",
"54 505 CURVE SMOOTH",
"54 467 OFFCURVE",
"104 417 OFFCURVE",
"135 390 CURVE",
"105 369 OFFCURVE",
"7 310 OFFCURVE",
"7 272 CURVE SMOOTH",
"7 216 OFFCURVE",
"109 95 OFFCURVE",
"198 95 CURVE SMOOTH",
"256 95 OFFCURVE",
"377 183 OFFCURVE",
"436 262 CURVE",
"455 247 LINE",
"417 196 OFFCURVE",
"377 141 OFFCURVE",
"377 118 CURVE SMOOTH",
"377 82 OFFCURVE",
"485 0 OFFCURVE",
"535 0 CURVE SMOOTH",
"596 0 OFFCURVE",
"805 122 OFFCURVE",
"805 193 CURVE SMOOTH",
"805 237 OFFCURVE",
"753 293 OFFCURVE",
"684 312 CURVE",
"641 257 OFFCURVE",
"603 208 OFFCURVE",
"546 175 CURVE",
"594 315 OFFCURVE",
"668 471 OFFCURVE",
"668 522 CURVE SMOOTH",
"668 551 OFFCURVE",
"551 583 OFFCURVE",
"508 583 CURVE SMOOTH",
"458 583 OFFCURVE",
"473 372 OFFCURVE",
"238 242 CURVE",
"205 276 LINE",
"264 314 OFFCURVE",
"310 356 OFFCURVE",
"310 380 CURVE SMOOTH",
"310 404 OFFCURVE",
"261 431 OFFCURVE",
"237 464 CURVE"
);
}
);
};
layerId = "C082FE15-F612-4808-BA0B-20614FB05321";
name = equal;
paths = (
{
closed = 1;
nodes = (
"205 276 LINE",
"264 314 OFFCURVE",
"310 356 OFFCURVE",
"310 380 CURVE SMOOTH",
"310 404 OFFCURVE",
"261 431 OFFCURVE",
"237 464 CURVE",
"285 504 OFFCURVE",
"344 542 OFFCURVE",
"392 563 CURVE",
"393 628 OFFCURVE",
"360 676 OFFCURVE",
"278 687 CURVE",
"185 645 OFFCURVE",
"54 549 OFFCURVE",
"54 505 CURVE SMOOTH",
"54 467 OFFCURVE",
"104 417 OFFCURVE",
"135 390 CURVE",
"105 369 OFFCURVE",
"7 310 OFFCURVE",
"7 272 CURVE SMOOTH",
"7 216 OFFCURVE",
"109 95 OFFCURVE",
"198 95 CURVE SMOOTH",
"256 95 OFFCURVE",
"370 177 OFFCURVE",
"436 262 CURVE",
"455 247 LINE",
"417 196 OFFCURVE",
"377 141 OFFCURVE",
"377 118 CURVE SMOOTH",
"377 82 OFFCURVE",
"485 0 OFFCURVE",
"535 0 CURVE SMOOTH",
"596 0 OFFCURVE",
"805 122 OFFCURVE",
"805 193 CURVE SMOOTH",
"805 237 OFFCURVE",
"753 293 OFFCURVE",
"684 312 CURVE",
"641 257 OFFCURVE",
"603 208 OFFCURVE",
"546 175 CURVE",
"594 315 OFFCURVE",
"674 480 OFFCURVE",
"674 541 CURVE SMOOTH",
"674 570 OFFCURVE",
"557 602 OFFCURVE",
"514 602 CURVE SMOOTH",
"460 602 OFFCURVE",
"486 382 OFFCURVE",
"238 242 CURVE"
);
}
);
width = 862;
}
);
rightMetricsKey = gjmAA;
unicode = 0AA7;
},
{
glyphname = gjNA;
lastChange = "2015-07-21 08:11:38 +0000";
layers = (
{
background = {
paths = (
{
closed = 1;
nodes = (
"526 393 LINE",
"429 433 OFFCURVE",
"328 452 OFFCURVE",
"238 452 CURVE SMOOTH",
"83 452 OFFCURVE",
"-10 392 OFFCURVE",
"-10 275 CURVE SMOOTH",
"-10 174 OFFCURVE",
"81 28 OFFCURVE",
"195 28 CURVE SMOOTH",
"316 28 OFFCURVE",
"337 193 OFFCURVE",
"304 330 CURVE",
"225 338 LINE",
"234 270 OFFCURVE",
"231 222 OFFCURVE",
"218 173 CURVE",
"156 185 OFFCURVE",
"132 222 OFFCURVE",
"118 263 CURVE",
"216 323 OFFCURVE",
"322 336 OFFCURVE",
"473 292 CURVE"
);
},
{
closed = 1;
nodes = (
"448 583 OFFCURVE",
"354 163 OFFCURVE",
"354 123 CURVE SMOOTH",
"354 86 OFFCURVE",
"467 0 OFFCURVE",
"517 0 CURVE SMOOTH",
"578 0 OFFCURVE",
"787 122 OFFCURVE",
"787 193 CURVE SMOOTH",
"787 237 OFFCURVE",
"735 293 OFFCURVE",
"666 312 CURVE",
"623 257 OFFCURVE",
"585 208 OFFCURVE",
"528 175 CURVE",
"576 315 OFFCURVE",
"650 471 OFFCURVE",
"650 522 CURVE SMOOTH",
"650 551 OFFCURVE",
"534 583 OFFCURVE",
"484 583 CURVE SMOOTH"
);
}
);
};
layerId = "AF1B7CCB-9C31-456C-8386-1D362D80AEF6";
name = "Bold Italic";
paths = (
{
closed = 1;
nodes = (
"623 257 OFFCURVE",
"585 208 OFFCURVE",
"528 175 CURVE",
"576 315 OFFCURVE",
"650 471 OFFCURVE",
"650 522 CURVE SMOOTH",
"650 551 OFFCURVE",
"534 583 OFFCURVE",
"484 583 CURVE SMOOTH",
"469 583 OFFCURVE",
"445 513 OFFCURVE",
"421 428 CURVE",
"358 444 OFFCURVE",
"296 452 OFFCURVE",
"238 452 CURVE SMOOTH",
"83 452 OFFCURVE",
"-10 392 OFFCURVE",
"-10 275 CURVE SMOOTH",
"-10 176 OFFCURVE",
"81 30 OFFCURVE",
"187 30 CURVE SMOOTH",
"310 30 OFFCURVE",
"338 182 OFFCURVE",
"314 318 CURVE",
"348 320 OFFCURVE",
"392 314 OFFCURVE",
"413 309 CURVE",
"391 263 OFFCURVE",
"354 155 OFFCURVE",
"354 123 CURVE SMOOTH",
"354 86 OFFCURVE",
"467 0 OFFCURVE",
"517 0 CURVE SMOOTH",
"578 0 OFFCURVE",
"787 122 OFFCURVE",
"787 193 CURVE SMOOTH",
"787 237 OFFCURVE",
"735 293 OFFCURVE",
"666 312 CURVE"
);
},
{
closed = 1;
nodes = (
"159 184 OFFCURVE",
"126 228 OFFCURVE",
"115 268 CURVE",
"147 293 OFFCURVE",
"188 309 OFFCURVE",
"235 315 CURVE",
"237 263 OFFCURVE",
"232 214 OFFCURVE",
"214 173 CURVE"
);
}
);
width = 819;
},
{
associatedMasterId = "AF1B7CCB-9C31-456C-8386-1D362D80AEF6";
background = {
paths = (
{
closed = 1;
nodes = (
"9 425 OFFCURVE",
"9 306 CURVE SMOOTH",
"9 250 OFFCURVE",
"33 164 OFFCURVE",
"73 135 CURVE SMOOTH",
"99 116 OFFCURVE",
"186 112 OFFCURVE",
"213 125 CURVE SMOOTH",
"245 139 OFFCURVE",
"280 221 OFFCURVE",
"309 292 CURVE",
"340 296 OFFCURVE",
"376 303 OFFCURVE",
"417 314 CURVE",
"392 250 OFFCURVE",
"358 148 OFFCURVE",
"358 123 CURVE SMOOTH",
"358 86 OFFCURVE",
"471 0 OFFCURVE",
"521 0 CURVE SMOOTH",
"582 0 OFFCURVE",
"791 122 OFFCURVE",
"791 193 CURVE SMOOTH",
"791 237 OFFCURVE",
"739 293 OFFCURVE",
"670 312 CURVE",
"627 257 OFFCURVE",
"589 208 OFFCURVE",
"532 175 CURVE",
"580 315 OFFCURVE",
"654 471 OFFCURVE",
"654 522 CURVE SMOOTH",
"654 551 OFFCURVE",
"538 583 OFFCURVE",
"488 583 CURVE SMOOTH",
"471 583 OFFCURVE",
"439 486 OFFCURVE",
"427 431 CURVE",
"236 373 OFFCURVE"
);
}
);
};
layerId = "7796A104-3AC1-4E42-9EFC-CAF80BCDCF79";
name = "Bold Italic Jul 20 15, 18:13";
paths = (
{
closed = 1;
nodes = (
"582 0 OFFCURVE",
"791 122 OFFCURVE",
"791 193 CURVE SMOOTH",
"791 237 OFFCURVE",
"739 293 OFFCURVE",
"670 312 CURVE",
"627 257 OFFCURVE",
"589 208 OFFCURVE",
"532 175 CURVE",
"580 315 OFFCURVE",
"654 471 OFFCURVE",
"654 522 CURVE SMOOTH",
"654 551 OFFCURVE",
"538 583 OFFCURVE",
"488 583 CURVE SMOOTH",
"471 583 OFFCURVE",
"439 486 OFFCURVE",
"427 431 CURVE",
"236 373 OFFCURVE",
"9 425 OFFCURVE",
"9 306 CURVE SMOOTH",
"9 250 OFFCURVE",
"33 164 OFFCURVE",
"73 135 CURVE SMOOTH",
"99 116 OFFCURVE",
"186 112 OFFCURVE",
"213 125 CURVE SMOOTH",
"245 139 OFFCURVE",
"280 221 OFFCURVE",
"309 292 CURVE",
"340 296 OFFCURVE",
"376 303 OFFCURVE",
"417 314 CURVE",
"392 250 OFFCURVE",
"358 148 OFFCURVE",
"358 123 CURVE SMOOTH",
"358 86 OFFCURVE",
"471 0 OFFCURVE",
"521 0 CURVE SMOOTH"
);
}
);
width = 823;
}
);
unicode = 0AA8;
},
{
glyphname = gjPA;
lastChange = "2015-07-17 12:57:58 +0000";
layers = (
{
associatedMasterId = "AF1B7CCB-9C31-456C-8386-1D362D80AEF6";
background = {
paths = (
{
closed = 1;
nodes = (
"521 252 LINE",
"483 201 OFFCURVE",
"443 146 OFFCURVE",
"443 123 CURVE SMOOTH",
"443 84 OFFCURVE",
"560 -1 OFFCURVE",
"604 -1 CURVE SMOOTH",
"686 -1 OFFCURVE",
"876 132 OFFCURVE",
"876 191 CURVE SMOOTH",
"876 247 OFFCURVE",
"815 296 OFFCURVE",
"739 316 CURVE",
"709 276 OFFCURVE",
"668 235 OFFCURVE",
"626 210 CURVE",
"664 308 OFFCURVE",
"759 451 OFFCURVE",
"759 515 CURVE SMOOTH",
"759 537 OFFCURVE",
"642 583 OFFCURVE",
"575 583 CURVE SMOOTH",
"536 583 OFFCURVE",
"525 399 OFFCURVE",
"363 291 CURVE",
"354 300 LINE",
"385 358 OFFCURVE",
"459 487 OFFCURVE",
"458 514 CURVE SMOOTH",
"457 537 OFFCURVE",
"344 616 OFFCURVE",
"249 612 CURVE SMOOTH",
"170 608 OFFCURVE",
"-15 524 OFFCURVE",
"-13 479 CURVE SMOOTH",
"-11 433 OFFCURVE",
"78 332 OFFCURVE",
"129 334 CURVE SMOOTH",
"152 335 OFFCURVE",
"227 403 OFFCURVE",
"269 432 CURVE",
"280 416 LINE",
"178 341 LINE",
"167 305 OFFCURVE",
"161 272 OFFCURVE",
"161 248 CURVE SMOOTH",
"161 217 OFFCURVE",
"291 127 OFFCURVE",
"334 127 CURVE SMOOTH",
"378 127 OFFCURVE",
"451 199 OFFCURVE",
"508 261 CURVE"
);
}
);
};
guideLines = (
{
angle = -20.2826;
position = "{349, 684}";
},
{
angle = -20.2826;
position = "{72, 694}";
}
);
layerId = "3224E3E9-2473-4E9A-A70B-35C349BF5FD2";
name = bolder;
paths = (
{
closed = 1;
nodes = (
"521 252 LINE",
"483 201 OFFCURVE",
"443 146 OFFCURVE",
"443 123 CURVE SMOOTH",
"443 84 OFFCURVE",
"560 -1 OFFCURVE",
"604 -1 CURVE SMOOTH",
"686 -1 OFFCURVE",
"876 132 OFFCURVE",
"876 191 CURVE SMOOTH",
"876 247 OFFCURVE",
"815 296 OFFCURVE",
"739 316 CURVE",
"709 276 OFFCURVE",
"668 235 OFFCURVE",
"626 210 CURVE",
"664 308 OFFCURVE",
"759 451 OFFCURVE",
"759 515 CURVE SMOOTH",
"759 537 OFFCURVE",
"642 583 OFFCURVE",
"575 583 CURVE SMOOTH",
"536 583 OFFCURVE",
"525 399 OFFCURVE",
"363 291 CURVE",
"354 300 LINE",
"385 358 OFFCURVE",
"455 477 OFFCURVE",
"454 504 CURVE SMOOTH",
"453 534 OFFCURVE",
"339 616 OFFCURVE",
"263 616 CURVE SMOOTH",
"187 616 OFFCURVE",
"-12 533 OFFCURVE",
"-12 471 CURVE SMOOTH",
"-12 426 OFFCURVE",
"59 345 OFFCURVE",
"129 329 CURVE",
"182 367 OFFCURVE",
"227 403 OFFCURVE",
"269 432 CURVE",
"280 416 LINE",
"178 341 LINE",
"167 305 OFFCURVE",
"161 272 OFFCURVE",
"161 248 CURVE SMOOTH",
"161 217 OFFCURVE",
"291 127 OFFCURVE",
"334 127 CURVE SMOOTH",
"378 127 OFFCURVE",
"451 199 OFFCURVE",
"508 261 CURVE"
);
}
);
width = 856;
},
{
background = {
paths = (
{
closed = 1;
nodes = (
"550 0 OFFCURVE",
"759 122 OFFCURVE",
"759 193 CURVE SMOOTH",
"759 237 OFFCURVE",
"707 293 OFFCURVE",
"638 312 CURVE",
"595 257 OFFCURVE",
"557 208 OFFCURVE",
"500 175 CURVE",
"548 315 OFFCURVE",
"622 471 OFFCURVE",
"622 522 CURVE SMOOTH",
"622 551 OFFCURVE",
"505 583 OFFCURVE",
"460 583 CURVE SMOOTH",
"420 583 OFFCURVE",
"427 417 OFFCURVE",
"238 273 CURVE",
"216 290 LINE",
"260 347 OFFCURVE",
"315 472 OFFCURVE",
"315 521 CURVE SMOOTH",
"315 558 OFFCURVE",
"200 619 OFFCURVE",
"150 619 CURVE SMOOTH",
"80 619 OFFCURVE",
"-55 566 OFFCURVE",
"-55 498 CURVE SMOOTH",
"-55 457 OFFCURVE",
"-20 412 OFFCURVE",
"51 384 CURVE",
"87 414 OFFCURVE",
"121 441 OFFCURVE",
"152 462 CURVE",
"175 438 LINE",
"77 341 LINE",
"66 305 OFFCURVE",
"57 266 OFFCURVE",
"57 240 CURVE SMOOTH",
"57 208 OFFCURVE",
"177 127 OFFCURVE",
"217 127 CURVE SMOOTH",
"261 127 OFFCURVE",
"334 199 OFFCURVE",
"391 261 CURVE",
"409 247 LINE",
"371 196 OFFCURVE",
"331 141 OFFCURVE",
"331 118 CURVE SMOOTH",
"331 82 OFFCURVE",
"439 0 OFFCURVE",
"489 0 CURVE SMOOTH"
);
}
);
};
guideLines = (
{
angle = -20.2826;
position = "{232, 684}";
},
{
angle = -20.2826;
position = "{-45, 700}";
}
);
layerId = "AF1B7CCB-9C31-456C-8386-1D362D80AEF6";
name = "Bold Italic";
paths = (
{
closed = 1;
nodes = (
"550 0 OFFCURVE",
"759 122 OFFCURVE",
"759 193 CURVE SMOOTH",
"759 237 OFFCURVE",
"707 293 OFFCURVE",
"638 312 CURVE",
"595 257 OFFCURVE",
"557 208 OFFCURVE",
"500 175 CURVE",
"548 315 OFFCURVE",
"622 471 OFFCURVE",
"622 522 CURVE SMOOTH",
"622 551 OFFCURVE",
"505 583 OFFCURVE",
"460 583 CURVE SMOOTH",
"420 583 OFFCURVE",
"427 417 OFFCURVE",
"238 273 CURVE",
"216 290 LINE",
"260 347 OFFCURVE",
"315 472 OFFCURVE",
"315 521 CURVE SMOOTH",
"315 558 OFFCURVE",
"200 619 OFFCURVE",
"150 619 CURVE SMOOTH",
"80 619 OFFCURVE",
"-55 566 OFFCURVE",
"-55 498 CURVE SMOOTH",
"-55 457 OFFCURVE",
"-20 412 OFFCURVE",
"51 384 CURVE",
"87 414 OFFCURVE",
"121 441 OFFCURVE",
"152 462 CURVE",
"175 438 LINE",
"77 341 LINE",
"66 305 OFFCURVE",
"57 266 OFFCURVE",
"57 240 CURVE SMOOTH",
"57 208 OFFCURVE",
"177 127 OFFCURVE",
"217 127 CURVE SMOOTH",
"261 127 OFFCURVE",
"334 199 OFFCURVE",
"391 261 CURVE",
"409 247 LINE",
"371 196 OFFCURVE",
"331 141 OFFCURVE",
"331 118 CURVE SMOOTH",
"331 82 OFFCURVE",
"439 0 OFFCURVE",
"489 0 CURVE SMOOTH"
);
}
);
width = 791;
},
{
associatedMasterId = "AF1B7CCB-9C31-456C-8386-1D362D80AEF6";
background = {
paths = (
{
closed = 1;
nodes = (
"460 252 LINE",
"422 201 OFFCURVE",
"382 146 OFFCURVE",
"382 123 CURVE SMOOTH",
"382 84 OFFCURVE",
"499 -1 OFFCURVE",
"543 -1 CURVE SMOOTH",
"625 -1 OFFCURVE",
"815 132 OFFCURVE",
"815 191 CURVE SMOOTH",
"815 247 OFFCURVE",
"754 296 OFFCURVE",
"678 316 CURVE",
"648 276 OFFCURVE",
"607 235 OFFCURVE",
"565 210 CURVE",
"603 308 OFFCURVE",
"698 451 OFFCURVE",
"698 515 CURVE SMOOTH",
"698 537 OFFCURVE",
"581 583 OFFCURVE",
"514 583 CURVE SMOOTH",
"475 583 OFFCURVE",
"464 399 OFFCURVE",
"302 291 CURVE",
"293 300 LINE",
"324 358 OFFCURVE",
"394 477 OFFCURVE",
"393 504 CURVE SMOOTH",
"392 534 OFFCURVE",
"278 616 OFFCURVE",
"202 616 CURVE SMOOTH",
"126 616 OFFCURVE",
"-73 533 OFFCURVE",
"-73 471 CURVE SMOOTH",
"-73 426 OFFCURVE",
"-2 345 OFFCURVE",
"68 329 CURVE",
"121 367 OFFCURVE",
"166 403 OFFCURVE",
"208 432 CURVE",
"219 416 LINE",
"117 341 LINE",
"106 305 OFFCURVE",
"100 272 OFFCURVE",
"100 248 CURVE SMOOTH",
"100 217 OFFCURVE",
"230 127 OFFCURVE",
"273 127 CURVE SMOOTH",
"317 127 OFFCURVE",
"390 199 OFFCURVE",
"447 261 CURVE"
);
}
);
};
guideLines = (
{
angle = -20.2826;
position = "{288, 684}";
},
{
angle = -20.2826;
position = "{11, 694}";
}
);
layerId = "53030155-F01C-466C-86D0-FD14022F6026";
name = faster;
paths = (
{
closed = 1;
nodes = (
"475 583 OFFCURVE",
"464 399 OFFCURVE",
"302 291 CURVE",
"284 305 LINE",
"323 358 OFFCURVE",
"389 469 OFFCURVE",
"389 510 CURVE SMOOTH",
"389 540 OFFCURVE",
"278 616 OFFCURVE",
"202 616 CURVE SMOOTH",
"126 616 OFFCURVE",
"-56 544 OFFCURVE",
"-56 482 CURVE SMOOTH",
"-56 437 OFFCURVE",
"6 368 OFFCURVE",
"65 350 CURVE",
"114 388 OFFCURVE",
"142 413 OFFCURVE",
"188 442 CURVE",
"204 426 LINE",
"117 341 LINE",
"106 305 OFFCURVE",
"100 272 OFFCURVE",
"100 248 CURVE SMOOTH",
"100 217 OFFCURVE",
"230 127 OFFCURVE",
"273 127 CURVE SMOOTH",
"317 127 OFFCURVE",
"390 199 OFFCURVE",
"447 261 CURVE",
"465 247 LINE",
"427 196 OFFCURVE",
"387 141 OFFCURVE",
"387 118 CURVE SMOOTH",
"387 79 OFFCURVE",
"499 -1 OFFCURVE",
"543 -1 CURVE SMOOTH",
"625 -1 OFFCURVE",
"815 132 OFFCURVE",
"815 191 CURVE SMOOTH",
"815 247 OFFCURVE",
"749 298 OFFCURVE",
"694 312 CURVE",
"656 267 OFFCURVE",
"619 222 OFFCURVE",
"577 197 CURVE",
"619 322 OFFCURVE",
"698 457 OFFCURVE",
"698 515 CURVE SMOOTH",
"698 542 OFFCURVE",
"572 583 OFFCURVE",
"518 583 CURVE SMOOTH"
);
}
);
width = 845;
},
{
associatedMasterId = "AF1B7CCB-9C31-456C-8386-1D362D80AEF6";
background = {
paths = (
{
closed = 1;
nodes = (
"454 583 OFFCURVE",
"443 399 OFFCURVE",
"281 291 CURVE",
"263 305 LINE",
"302 358 OFFCURVE",
"368 469 OFFCURVE",
"368 510 CURVE SMOOTH",
"368 540 OFFCURVE",
"257 616 OFFCURVE",
"181 616 CURVE SMOOTH",
"105 616 OFFCURVE",
"-77 544 OFFCURVE",
"-77 482 CURVE SMOOTH",
"-77 437 OFFCURVE",
"-15 368 OFFCURVE",
"44 350 CURVE",
"93 388 OFFCURVE",
"121 413 OFFCURVE",
"167 442 CURVE",
"183 426 LINE",
"96 341 LINE",
"85 305 OFFCURVE",
"79 272 OFFCURVE",
"79 248 CURVE SMOOTH",
"79 217 OFFCURVE",
"209 127 OFFCURVE",
"252 127 CURVE SMOOTH",
"296 127 OFFCURVE",
"369 199 OFFCURVE",
"426 261 CURVE",
"444 247 LINE",
"406 196 OFFCURVE",
"366 141 OFFCURVE",
"366 118 CURVE SMOOTH",
"366 79 OFFCURVE",
"478 -1 OFFCURVE",
"522 -1 CURVE SMOOTH",
"604 -1 OFFCURVE",
"794 132 OFFCURVE",
"794 191 CURVE SMOOTH",
"794 247 OFFCURVE",
"728 298 OFFCURVE",
"673 312 CURVE",
"635 267 OFFCURVE",
"598 222 OFFCURVE",
"556 197 CURVE",
"598 322 OFFCURVE",
"677 457 OFFCURVE",
"677 515 CURVE SMOOTH",
"677 542 OFFCURVE",
"551 583 OFFCURVE",
"497 583 CURVE SMOOTH"
);
}
);
};
guideLines = (
{
angle = -20.2826;
position = "{267, 684}";
},
{
angle = -20.2826;
position = "{-10, 694}";
}
);
layerId = "46B3D389-3197-4DBC-985E-8E9443BFDF54";
name = "Bold Italic Jul 10 15, 20:05";
paths = (
{
closed = 1;
nodes = (
"454 583 OFFCURVE",
"443 399 OFFCURVE",
"281 291 CURVE",
"263 305 LINE",
"302 358 OFFCURVE",
"368 469 OFFCURVE",
"368 510 CURVE SMOOTH",
"368 540 OFFCURVE",
"257 616 OFFCURVE",
"181 616 CURVE SMOOTH",
"111 616 OFFCURVE",
"-47 559 OFFCURVE",
"-47 491 CURVE SMOOTH",
"-47 450 OFFCURVE",
"-12 402 OFFCURVE",
"59 374 CURVE",
"95 404 OFFCURVE",
"140 441 OFFCURVE",
"171 462 CURVE",
"194 438 LINE",
"96 341 LINE",
"85 305 OFFCURVE",
"79 272 OFFCURVE",
"79 248 CURVE SMOOTH",
"79 217 OFFCURVE",
"209 127 OFFCURVE",
"252 127 CURVE SMOOTH",
"296 127 OFFCURVE",
"369 199 OFFCURVE",
"426 261 CURVE",
"444 247 LINE",
"406 196 OFFCURVE",
"366 141 OFFCURVE",
"366 118 CURVE SMOOTH",
"366 79 OFFCURVE",
"478 -1 OFFCURVE",
"522 -1 CURVE SMOOTH",
"604 -1 OFFCURVE",
"794 132 OFFCURVE",
"794 191 CURVE SMOOTH",
"794 247 OFFCURVE",
"728 298 OFFCURVE",
"673 312 CURVE",
"635 267 OFFCURVE",
"598 222 OFFCURVE",
"556 197 CURVE",
"598 322 OFFCURVE",
"677 457 OFFCURVE",
"677 515 CURVE SMOOTH",
"677 542 OFFCURVE",
"551 583 OFFCURVE",
"497 583 CURVE SMOOTH"
);
}
);
width = 824;
},
{
associatedMasterId = "AF1B7CCB-9C31-456C-8386-1D362D80AEF6";
background = {
paths = (
{
closed = 1;
nodes = (
"570 0 OFFCURVE",
"779 122 OFFCURVE",
"779 193 CURVE SMOOTH",
"779 237 OFFCURVE",
"727 293 OFFCURVE",
"658 312 CURVE",
"615 257 OFFCURVE",
"577 208 OFFCURVE",
"520 175 CURVE",
"568 315 OFFCURVE",
"642 471 OFFCURVE",
"642 522 CURVE SMOOTH",
"642 551 OFFCURVE",
"525 583 OFFCURVE",
"480 583 CURVE SMOOTH",
"440 583 OFFCURVE",
"447 417 OFFCURVE",
"258 273 CURVE",
"236 290 LINE",
"280 347 OFFCURVE",
"335 472 OFFCURVE",
"335 521 CURVE SMOOTH",
"335 558 OFFCURVE",
"220 619 OFFCURVE",
"170 619 CURVE SMOOTH",
"100 619 OFFCURVE",
"-35 566 OFFCURVE",
"-35 498 CURVE SMOOTH",
"-35 457 OFFCURVE",
"0 412 OFFCURVE",
"71 384 CURVE",
"107 414 OFFCURVE",
"141 441 OFFCURVE",
"172 462 CURVE",
"195 438 LINE",
"97 341 LINE",
"86 305 OFFCURVE",
"77 266 OFFCURVE",
"77 240 CURVE SMOOTH",
"77 208 OFFCURVE",
"197 127 OFFCURVE",
"237 127 CURVE SMOOTH",
"281 127 OFFCURVE",
"354 199 OFFCURVE",
"411 261 CURVE",
"429 247 LINE",
"391 196 OFFCURVE",
"351 141 OFFCURVE",
"351 118 CURVE SMOOTH",
"351 82 OFFCURVE",
"459 0 OFFCURVE",
"509 0 CURVE SMOOTH"
);
}
);
};
guideLines = (
{
angle = -20.2826;
position = "{252, 684}";
},
{
angle = -20.2826;
position = "{-25, 700}";
}
);
layerId = "E786972E-703C-4FFA-ABF3-8E75A4E3E6FF";
name = equal;
paths = (
{
closed = 1;
nodes = (
"236 290 LINE",
"280 347 OFFCURVE",
"335 472 OFFCURVE",
"335 521 CURVE SMOOTH",
"335 558 OFFCURVE",
"220 619 OFFCURVE",
"170 619 CURVE SMOOTH",
"100 619 OFFCURVE",
"-35 566 OFFCURVE",
"-35 498 CURVE SMOOTH",
"-35 457 OFFCURVE",
"0 412 OFFCURVE",
"71 384 CURVE",
"107 414 OFFCURVE",
"141 441 OFFCURVE",
"172 462 CURVE",
"195 438 LINE",
"97 341 LINE",
"86 305 OFFCURVE",
"77 266 OFFCURVE",
"77 240 CURVE SMOOTH",
"77 208 OFFCURVE",
"197 127 OFFCURVE",
"237 127 CURVE SMOOTH",
"281 127 OFFCURVE",
"354 199 OFFCURVE",
"411 261 CURVE",
"429 247 LINE",
"391 196 OFFCURVE",
"351 141 OFFCURVE",
"351 118 CURVE SMOOTH",
"351 82 OFFCURVE",
"459 0 OFFCURVE",
"509 0 CURVE SMOOTH",
"570 0 OFFCURVE",
"779 122 OFFCURVE",
"779 193 CURVE SMOOTH",
"779 237 OFFCURVE",
"727 293 OFFCURVE",
"658 312 CURVE",
"615 257 OFFCURVE",
"577 208 OFFCURVE",
"520 175 CURVE",
"568 315 OFFCURVE",
"648 480 OFFCURVE",
"648 541 CURVE SMOOTH",
"648 570 OFFCURVE",
"531 602 OFFCURVE",
"488 602 CURVE SMOOTH",
"438 602 OFFCURVE",
"456 420 OFFCURVE",
"258 273 CURVE"
);
}
);
width = 836;
},
{
associatedMasterId = "AF1B7CCB-9C31-456C-8386-1D362D80AEF6";
background = {
paths = (
{
closed = 1;
nodes = (
"493 0 OFFCURVE",
"702 122 OFFCURVE",
"702 193 CURVE SMOOTH",
"702 237 OFFCURVE",
"650 293 OFFCURVE",
"581 312 CURVE",
"538 257 OFFCURVE",
"500 208 OFFCURVE",
"443 175 CURVE",
"491 315 OFFCURVE",
"565 471 OFFCURVE",
"565 522 CURVE SMOOTH",
"565 551 OFFCURVE",
"448 583 OFFCURVE",
"403 583 CURVE SMOOTH",
"363 583 OFFCURVE",
"374 425 OFFCURVE",
"189 291 CURVE",
"171 305 LINE",
"210 358 OFFCURVE",
"276 469 OFFCURVE",
"276 510 CURVE SMOOTH",
"276 540 OFFCURVE",
"165 616 OFFCURVE",
"89 616 CURVE SMOOTH",
"19 616 OFFCURVE",
"-139 559 OFFCURVE",
"-139 491 CURVE SMOOTH",
"-139 450 OFFCURVE",
"-104 402 OFFCURVE",
"-33 374 CURVE",
"3 404 OFFCURVE",
"48 441 OFFCURVE",
"79 462 CURVE",
"102 438 LINE",
"4 341 LINE",
"-7 305 OFFCURVE",
"-13 272 OFFCURVE",
"-13 248 CURVE SMOOTH",
"-13 217 OFFCURVE",
"117 127 OFFCURVE",
"160 127 CURVE SMOOTH",
"204 127 OFFCURVE",
"277 199 OFFCURVE",
"334 261 CURVE",
"352 247 LINE",
"314 196 OFFCURVE",
"274 141 OFFCURVE",
"274 118 CURVE SMOOTH",
"274 82 OFFCURVE",
"382 0 OFFCURVE",
"432 0 CURVE SMOOTH"
);
}
);
};
guideLines = (
{
angle = -20.2826;
position = "{175, 684}";
},
{
angle = -20.2826;
position = "{-102, 700}";
}
);
layerId = "98BE5D78-AB20-4AE2-9005-A080FF39117E";
name = "Bold Italic Jul 17 15, 18:22";
paths = (
{
closed = 1;
nodes = (
"493 0 OFFCURVE",
"702 122 OFFCURVE",
"702 193 CURVE SMOOTH",
"702 237 OFFCURVE",
"650 293 OFFCURVE",
"581 312 CURVE",
"538 257 OFFCURVE",
"500 208 OFFCURVE",
"443 175 CURVE",
"491 315 OFFCURVE",
"565 471 OFFCURVE",
"565 522 CURVE SMOOTH",
"565 551 OFFCURVE",
"448 583 OFFCURVE",
"403 583 CURVE SMOOTH",
"363 583 OFFCURVE",
"370 417 OFFCURVE",
"181 273 CURVE",
"159 290 LINE",
"203 347 OFFCURVE",
"271 459 OFFCURVE",
"271 513 CURVE SMOOTH",
"271 550 OFFCURVE",
"160 619 OFFCURVE",
"110 619 CURVE SMOOTH",
"40 619 OFFCURVE",
"-99 571 OFFCURVE",
"-99 502 CURVE SMOOTH",
"-99 456 OFFCURVE",
"-68 417 OFFCURVE",
"2 386 CURVE",
"39 415 OFFCURVE",
"72 444 OFFCURVE",
"104 464 CURVE",
"126 439 LINE",
"20 341 LINE",
"9 305 OFFCURVE",
"0 266 OFFCURVE",
"0 240 CURVE SMOOTH",
"0 208 OFFCURVE",
"120 127 OFFCURVE",
"160 127 CURVE SMOOTH",
"204 127 OFFCURVE",
"277 199 OFFCURVE",
"334 261 CURVE",
"352 247 LINE",
"314 196 OFFCURVE",
"274 141 OFFCURVE",
"274 118 CURVE SMOOTH",
"274 82 OFFCURVE",
"382 0 OFFCURVE",
"432 0 CURVE SMOOTH"
);
}
);
width = 734;
}
);
rightMetricsKey = gjmAA;
unicode = 0AAA;
},
{
glyphname = gjPHA;
lastChange = "2015-07-21 17:33:12 +0000";
layers = (
{
background = {
paths = (
{
closed = 1;
nodes = (
"310 0 OFFCURVE",
"517 109 OFFCURVE",
"517 193 CURVE SMOOTH",
"517 229 OFFCURVE",
"451 274 OFFCURVE",
"358 295 CURVE",
"288 272 LINE",
"313 254 OFFCURVE",
"324 235 OFFCURVE",
"324 217 CURVE SMOOTH",
"324 180 OFFCURVE",
"267 134 OFFCURVE",
"217 113 CURVE",
"194 139 OFFCURVE",
"205 221 OFFCURVE",
"180 221 CURVE SMOOTH",
"127 221 OFFCURVE",
"6 137 OFFCURVE",
"6 111 CURVE SMOOTH",
"6 64 OFFCURVE",
"126 0 OFFCURVE",
"176 0 CURVE SMOOTH"
);
},
{
closed = 1;
nodes = (
"277 -200 OFFCURVE",
"397 -177 OFFCURVE",
"480 -137 CURVE",
"533 -77 OFFCURVE",
"509 10 OFFCURVE",
"432 31 CURVE",
"379 -12 OFFCURVE",
"262 -69 OFFCURVE",
"196 -71 CURVE SMOOTH",
"177 -72 OFFCURVE",
"164 -59 OFFCURVE",
"165 -44 CURVE SMOOTH",
"166 -21 OFFCURVE",
"193 41 OFFCURVE",
"210 83 CURVE",
"108 83 LINE",
"93 24 OFFCURVE",
"66 -56 OFFCURVE",
"66 -82 CURVE SMOOTH",
"66 -121 OFFCURVE",
"142 -200 OFFCURVE",
"189 -200 CURVE SMOOTH"
);
},
{
closed = 1;
nodes = (
"255 266 OFFCURVE",
"389 284 OFFCURVE",
"560 324 CURVE",
"583 376 OFFCURVE",
"562 433 OFFCURVE",
"512 458 CURVE",
"380 405 OFFCURVE",
"193 362 OFFCURVE",
"41 344 CURVE",
"8 295 OFFCURVE",
"22 251 OFFCURVE",
"58 223 CURVE"
);
},
{
closed = 1;
nodes = (
"299 370 LINE",
"284 380 OFFCURVE",
"277 391 OFFCURVE",
"277 406 CURVE SMOOTH",
"277 432 OFFCURVE",
"336 463 OFFCURVE",
"472 481 CURVE",
"508 537 OFFCURVE",
"480 600 OFFCURVE",
"418 620 CURVE",
"236 613 OFFCURVE",
"83 533 OFFCURVE",
"83 463 CURVE SMOOTH",
"83 429 OFFCURVE",
"139 376 OFFCURVE",
"230 351 CURVE"
);
}
);
};
layerId = "AF1B7CCB-9C31-456C-8386-1D362D80AEF6";
name = "Bold Italic";
paths = (
{
closed = 1;
nodes = (
"312 0 OFFCURVE",
"517 109 OFFCURVE",
"517 193 CURVE SMOOTH",
"517 229 OFFCURVE",
"451 274 OFFCURVE",
"358 295 CURVE",
"288 272 LINE",
"313 254 OFFCURVE",
"324 235 OFFCURVE",
"324 217 CURVE SMOOTH",
"324 183 OFFCURVE",
"271 135 OFFCURVE",
"202 105 CURVE",
"203 164 OFFCURVE",
"207 225 OFFCURVE",
"184 225 CURVE SMOOTH",
"139 225 OFFCURVE",
"-15 151 OFFCURVE",
"-15 113 CURVE SMOOTH",
"-15 67 OFFCURVE",
"104 0 OFFCURVE",
"160 0 CURVE SMOOTH"
);
},
{
closed = 1;
nodes = (
"277 -210 OFFCURVE",
"397 -187 OFFCURVE",
"480 -147 CURVE",
"533 -87 OFFCURVE",
"509 10 OFFCURVE",
"432 31 CURVE",
"379 -12 OFFCURVE",
"262 -69 OFFCURVE",
"196 -71 CURVE SMOOTH",
"177 -72 OFFCURVE",
"164 -59 OFFCURVE",
"165 -44 CURVE SMOOTH",
"166 -21 OFFCURVE",
"193 41 OFFCURVE",
"210 83 CURVE",
"108 83 LINE",
"93 24 OFFCURVE",
"66 -56 OFFCURVE",
"66 -82 CURVE SMOOTH",
"66 -121 OFFCURVE",
"142 -210 OFFCURVE",
"189 -210 CURVE SMOOTH"
);
},
{
closed = 1;
nodes = (
"255 266 OFFCURVE",
"389 284 OFFCURVE",
"560 324 CURVE",
"583 376 OFFCURVE",
"562 433 OFFCURVE",
"512 458 CURVE",
"380 405 OFFCURVE",
"193 362 OFFCURVE",
"41 344 CURVE",
"8 295 OFFCURVE",
"22 251 OFFCURVE",
"58 223 CURVE"
);
},
{
closed = 1;
nodes = (
"299 370 LINE",
"284 380 OFFCURVE",
"277 391 OFFCURVE",
"277 406 CURVE SMOOTH",
"277 432 OFFCURVE",
"336 463 OFFCURVE",
"472 481 CURVE",
"508 537 OFFCURVE",
"480 600 OFFCURVE",
"418 620 CURVE",
"236 613 OFFCURVE",
"83 533 OFFCURVE",
"83 463 CURVE SMOOTH",
"83 429 OFFCURVE",
"139 376 OFFCURVE",
"230 351 CURVE"
);
}
);
width = 606;
}
);
rightMetricsKey = gjKA;
unicode = 0AAB;
},
